<svg xmlns="http://www.w3.org/2000/svg" version="1.1" xmlns:xlink="http://www.w3.org/1999/xlink" xmlns:svgjs="http://svgjs.com/svgjs" width="512" height="512" x="0" y="0" viewBox="0 0 512 512" style="enable-background:new 0 0 512 512" xml:space="preserve" class=""><g><g fill-rule="evenodd" clip-rule="evenodd"><path fill="#ffe177" d="m120.633 233.436 9.173 24.16a1.875 1.875 0 0 0 1.693 1.23l25.812 1.258c1.755.085 2.474 2.297 1.104 3.398l-20.143 16.19a1.876 1.876 0 0 0-.647 1.991l6.78 24.938c.461 1.696-1.42 3.063-2.891 2.1l-21.622-14.154a1.874 1.874 0 0 0-2.093 0l-21.622 14.154c-1.471.963-3.352-.404-2.89-2.1l6.78-24.938a1.875 1.875 0 0 0-.647-1.991l-20.143-16.19c-1.37-1.101-.651-3.313 1.104-3.398l25.812-1.258a1.877 1.877 0 0 0 1.694-1.23l9.173-24.16c.62-1.634 2.953-1.634 3.573 0z" data-original="#ffe177"></path><path fill="#ffd064" d="m149.153 259.687 8.159.398c1.755.086 2.474 2.297 1.104 3.398l-20.143 16.19a1.877 1.877 0 0 0-.647 1.991l6.78 24.938c.461 1.696-1.42 3.062-2.891 2.1l-5.595-3.663-6.464-23.773a1.876 1.876 0 0 1 .647-1.991l20.143-16.19c1.368-1.099.655-3.304-1.093-3.398zm-28.52-26.251 9.173 24.16a1.874 1.874 0 0 0 1.675 1.229l-8.151-.397a1.877 1.877 0 0 1-1.694-1.23l-6.799-17.908 2.223-5.854c.62-1.634 2.953-1.634 3.573 0zm-.74 61.111a1.877 1.877 0 0 0-2.093 0l-21.622 14.154c-1.471.963-3.352-.404-2.89-2.1l.58-2.134 19.543-12.794a1.875 1.875 0 0 1 2.093 0z" data-original="#ffd064"></path><path fill="#ffe177" d="m221.649 253.65 11.41 30.052a2.332 2.332 0 0 0 2.106 1.53l32.107 1.565c2.184.106 3.077 2.857 1.373 4.227l-25.055 20.138a2.334 2.334 0 0 0-.805 2.476l8.433 31.019c.574 2.109-1.766 3.809-3.595 2.612l-26.895-17.606a2.335 2.335 0 0 0-2.604 0l-26.895 17.606c-1.829 1.197-4.169-.502-3.595-2.612l8.433-31.019a2.334 2.334 0 0 0-.804-2.476l-25.055-20.138c-1.704-1.37-.81-4.121 1.374-4.227l32.107-1.565a2.333 2.333 0 0 0 2.106-1.53l11.41-30.052c.771-2.032 3.673-2.032 4.444 0z" data-original="#ffe177"></path><path fill="#ffd064" d="m257.123 286.303 10.149.495c2.183.106 3.077 2.857 1.373 4.227l-25.055 20.138a2.334 2.334 0 0 0-.805 2.476l8.433 31.019c.574 2.109-1.766 3.809-3.596 2.612l-6.96-4.556-8.04-29.571a2.333 2.333 0 0 1 .805-2.476l25.055-20.138c1.702-1.367.815-4.11-1.359-4.226zm-35.474-32.653 11.41 30.052a2.333 2.333 0 0 0 2.084 1.529l-10.139-.494a2.334 2.334 0 0 1-2.107-1.53l-8.457-22.274 2.765-7.282c.771-2.033 3.673-2.033 4.444-.001zm-.921 76.013a2.335 2.335 0 0 0-2.604 0l-26.894 17.606c-1.829 1.197-4.169-.502-3.596-2.612l.722-2.654 24.309-15.913a2.331 2.331 0 0 1 2.603 0z" data-original="#ffd064"></path><path fill="#8ac9fe" d="M86.78 199.526h78.798c2.204 0 4.101-.954 5.416-2.724s1.681-3.861 1.044-5.971c-5.941-19.699-24.224-34.045-45.859-34.045-21.636 0-39.919 14.347-45.859 34.045-.637 2.111-.271 4.202 1.044 5.971 1.314 1.77 3.211 2.724 5.416 2.724z" data-original="#8ac9fe"></path><path fill="#60b7ff" d="M165.578 199.526c2.204 0 4.101-.954 5.416-2.724s1.681-3.861 1.044-5.971c-5.941-19.699-24.224-34.045-45.859-34.045-2.291 0-4.543.162-6.747.473 18.62 2.626 33.8 15.958 39.112 33.572.637 2.11.271 4.202-1.044 5.971-1.314 1.77-3.212 2.724-5.416 2.724z" data-original="#60b7ff"></path><circle cx="126.179" cy="132.571" r="24.215" fill="#f6dccd" transform="rotate(-16.86 126.054 132.494)" data-original="#f6dccd" class=""></circle><path fill="#f1cbbc" d="M126.179 108.355c13.373 0 24.215 10.842 24.215 24.215s-10.842 24.215-24.215 24.215a24.36 24.36 0 0 1-3.373-.235c11.776-1.642 20.841-11.752 20.841-23.98s-9.065-22.338-20.841-23.98a24.516 24.516 0 0 1 3.373-.235z" data-original="#f1cbbc"></path><path fill="#8ac9fe" d="M273.275 199.526h78.798c2.204 0 4.101-.954 5.416-2.724s1.68-3.861 1.044-5.971c-5.94-19.699-24.224-34.045-45.859-34.045s-39.919 14.347-45.859 34.045c-.637 2.111-.271 4.202 1.044 5.971 1.315 1.77 3.212 2.724 5.416 2.724z" data-original="#8ac9fe"></path><path fill="#60b7ff" d="M352.073 199.526c2.204 0 4.101-.954 5.416-2.724 1.314-1.77 1.68-3.861 1.044-5.971-5.941-19.699-24.224-34.045-45.859-34.045-2.29 0-4.543.162-6.747.473 18.62 2.626 33.8 15.958 39.111 33.572.637 2.11.271 4.202-1.044 5.971-1.314 1.77-3.211 2.724-5.415 2.724z" data-original="#60b7ff"></path><circle cx="312.675" cy="132.571" r="24.215" fill="#f6dccd" transform="rotate(-82 312.85 132.581)" data-original="#f6dccd" class=""></circle><path fill="#f1cbbc" d="M312.675 108.355c13.374 0 24.215 10.842 24.215 24.215s-10.841 24.215-24.215 24.215c-1.145 0-2.271-.081-3.374-.235 11.776-1.642 20.842-11.752 20.842-23.98s-9.065-22.338-20.842-23.98a24.53 24.53 0 0 1 3.374-.235z" data-original="#f1cbbc"></path><path fill="#8ac9fe" d="M172.694 211.264h93.465c2.615 0 4.865-1.131 6.424-3.23s1.993-4.58 1.238-7.083c-7.046-23.365-28.732-40.382-54.394-40.382-25.663 0-47.349 17.017-54.395 40.382-.755 2.504-.321 4.984 1.238 7.083s3.81 3.23 6.424 3.23z" data-original="#8ac9fe"></path><path fill="#60b7ff" d="M266.159 211.264c2.614 0 4.865-1.131 6.424-3.231 1.559-2.099 1.993-4.579 1.238-7.082-7.046-23.365-28.732-40.382-54.394-40.382-2.717 0-5.388.193-8.003.562 22.086 3.115 40.091 18.929 46.391 39.82.755 2.503.321 4.983-1.238 7.082-1.559 2.1-3.81 3.231-6.424 3.231z" data-original="#60b7ff"></path><circle cx="219.427" cy="131.847" r="28.722" fill="#f6dccd" transform="rotate(-83 219.279 131.794)" data-original="#f6dccd" class=""></circle><path fill="#f1cbbc" d="M219.427 103.124c15.863 0 28.722 12.86 28.722 28.722s-12.859 28.722-28.722 28.722c-1.358 0-2.694-.097-4.002-.279 13.968-1.947 24.721-13.939 24.721-28.443 0-14.505-10.752-26.496-24.721-28.443a29.025 29.025 0 0 1 4.002-.279z" data-original="#f1cbbc"></path><path fill="#a79ba7" d="M392.071 371.587a94.961 94.961 0 0 1-16.031 17.648l43.589 42.728 16.594-17.101z" data-original="#a79ba7"></path><path fill="#837683" d="M392.365 371.293c-.857 2.811-2.455 4.948-4.745 6.363l43.3 43.017 5.303-5.81z" data-original="#837683"></path><path fill="#f1ba84" d="m474.826 487.424 18.728-19.3c3.29-3.39 3.206-8.853-.183-12.142l-51.872-50.335c-3.389-3.289-8.854-3.207-12.143.182l-18.728 19.301c-3.289 3.389-3.207 8.854.183 12.143l51.872 50.334c3.39 3.288 8.854 3.207 12.143-.183z" data-original="#f1ba84"></path><path fill="#e3a76f" d="m433.825 405.646 51.872 50.335c3.389 3.29 3.472 8.753.183 12.142l-18.728 19.301a8.504 8.504 0 0 1-2.326 1.7c3.257 1.619 7.34 1.042 10-1.7l18.728-19.3c3.289-3.39 3.206-8.853-.183-12.142l-51.872-50.335c-2.676-2.597-6.645-3.092-9.816-1.518a8.49 8.49 0 0 1 2.142 1.517z" data-original="#e3a76f"></path><circle cx="321.287" cy="324.035" r="94.458" fill="#9facba" transform="rotate(-64.33 321.385 324.147)" data-original="#9facba"></circle><path fill="#8d9ca8" d="M321.287 229.577c52.167 0 94.458 42.29 94.458 94.458 0 52.167-42.29 94.458-94.458 94.458a95.48 95.48 0 0 1-4.585-.113c50.037-2.392 89.872-43.716 89.872-94.345 0-50.63-39.835-91.954-89.872-94.345a95.48 95.48 0 0 1 4.585-.113z" data-original="#8d9ca8"></path><circle cx="321.287" cy="324.035" r="67.826" fill="#eceff1" transform="rotate(-84.32 321.446 324.073)" data-original="#eceff1"></circle><path fill="#d1d1d6" d="M321.287 256.209c1.542 0 3.07.056 4.586.158-35.321 2.358-63.241 31.75-63.241 67.669 0 35.918 27.921 65.31 63.241 67.668a68.941 68.941 0 0 1-4.586.158c-37.46 0-67.826-30.367-67.826-67.826-.001-37.46 30.366-67.827 67.826-67.827z" data-original="#d1d1d6"></path></g><path fill="#8ac9fe" fill-rule="evenodd" d="m312.386 329.961 32.955-33.284c3.901-3.94 10.265-3.951 14.193-.044 3.928 3.906 3.94 10.252.043 14.185-13.363 13.487-26.637 27.064-40.062 40.489-3.925 3.925-10.292 3.925-14.216 0l-22.274-22.273c-3.925-3.925-3.925-10.292 0-14.216 3.925-3.925 10.292-3.925 14.216 0z" clip-rule="evenodd" data-original="#8ac9fe"></path><path fill-rule="evenodd" d="M353.916 302.309a2.023 2.023 0 0 0-1.44-.598 2.048 2.048 0 0 0-1.431.598l-32.948 33.282a8.003 8.003 0 0 1-5.672 2.372h-.019a7.972 7.972 0 0 1-5.648-2.344l-15.147-15.137a1.996 1.996 0 0 0-1.45-.598c-.391 0-.955.099-1.454.598-.8.8-.8 2.099 0 2.9l22.277 22.268a1.986 1.986 0 0 0 1.454.603 1.98 1.98 0 0 0 1.445-.603c8.411-8.406 16.921-17.039 25.154-25.389a8816.793 8816.793 0 0 1 14.879-15.067c.8-.8.8-2.094 0-2.885zm11.371 14.144a8422.617 8422.617 0 0 0-14.859 15.048c-8.242 8.359-16.771 17.011-25.229 25.469a17.962 17.962 0 0 1-12.76 5.281 17.96 17.96 0 0 1-12.774-5.281l-22.268-22.278c-7.042-7.042-7.042-18.489 0-25.53 7.037-7.042 18.493-7.042 25.53 0l9.461 9.461 27.3-27.568c3.38-3.427 7.898-5.319 12.728-5.338h.071c4.801 0 9.31 1.859 12.723 5.248 7.025 6.999 7.067 18.437.077 25.488zm15.849 7.587c0 32.991-26.839 59.834-59.82 59.834-32.99 0-59.829-26.843-59.829-59.834 0-32.99 26.839-59.829 59.829-59.829 32.981 0 59.82 26.839 59.82 59.829zm16.003 0c0 41.811-34.012 75.833-75.823 75.833-41.816 0-75.828-34.021-75.828-75.833 0-41.811 34.012-75.828 75.828-75.828 41.811.001 75.823 34.017 75.823 75.828zm90.687 137.691-51.87-50.34a.586.586 0 0 0-.41-.151h-.009a.524.524 0 0 0-.409.16l-18.734 19.303a.529.529 0 0 0-.151.419c0 .17.052.311.16.41l51.884 50.34a.61.61 0 0 0 .828-.009l18.719-19.298a.604.604 0 0 0-.008-.834zm-166.51-51.23c-47.676 0-86.461-38.789-86.461-86.461 0-47.676 38.785-86.461 86.461-86.461 47.671 0 86.461 38.785 86.461 86.461-.001 47.672-38.79 86.461-86.461 86.461zm-107.548-87.529a10.263 10.263 0 0 1 5.121-1.647c.32-12.092 2.739-23.661 6.91-34.36-.061-.141-.136-.273-.193-.414l-6.152-16.21-6.152 16.206a10.388 10.388 0 0 1-9.202 6.684l-17.307.842 13.509 10.859a10.378 10.378 0 0 1 3.511 10.812l-4.547 16.728zm185.757 67.172c-1.69 2-3.45 3.925-5.277 5.789l17.307 16.789 5.45-5.62zm99.8 83.556-18.729 19.303a16.549 16.549 0 0 1-11.908 5.031 16.558 16.558 0 0 1-11.551-4.683l-51.87-50.331a16.452 16.452 0 0 1-5.022-11.659 16.389 16.389 0 0 1 1.111-6.241l-19.242-18.668c-17.015 12.586-38.06 20.047-60.799 20.047-9.169 0-18.06-1.219-26.519-3.488-24.043 9.179-49.375 13.848-75.352 13.848-43.788 0-86.503-13.678-122.031-38.78l3.422 12.003c1.214 4.241-1.247 8.67-5.498 9.88a7.91 7.91 0 0 1-2.198.311c-3.483 0-6.689-2.292-7.691-5.799l-10.294-36.102a7.976 7.976 0 0 1 1.219-6.891 8.025 8.025 0 0 1 6.185-3.3l37.509-1.341c4.391-.188 8.124 3.29 8.279 7.701.16 4.42-3.29 8.133-7.705 8.293l-16.248.579c33.273 24.231 73.644 37.448 115.05 37.448 17.886 0 35.433-2.401 52.406-7.121-27.502-15.227-47.304-42.729-51.95-75.07l-.447-.297-23.817 15.589a10.325 10.325 0 0 1-5.686 1.723 10.37 10.37 0 0 1-6.096-2c-3.521-2.565-5.055-6.924-3.916-11.123l7.47-27.469-22.188-17.83c-3.389-2.725-4.712-7.155-3.366-11.292s5.022-6.952 9.362-7.159l28.43-1.389 10.105-26.608c1.539-4.062 5.347-6.684 9.701-6.684 4.349 0 8.157 2.622 9.701 6.684l6.486 17.091c18.333-27.879 49.884-46.325 85.675-46.325 37.392 0 70.161 20.136 88.051 50.128 3.667-15.086 5.521-30.585 5.521-46.297 0-34.567-9.146-68.532-26.453-98.228a7.998 7.998 0 0 1 2.89-10.939c3.813-2.226 8.713-.932 10.939 2.885 18.719 32.139 28.622 68.89 28.622 106.281 0 23.61-3.883 46.782-11.508 68.923a102.342 102.342 0 0 1 4.396 29.705c0 19.374-5.408 37.509-14.799 52.981l20.108 19.52a16.52 16.52 0 0 1 6.213-1.299c4.467-.071 8.628 1.591 11.8 4.669l51.87 50.331c6.575 6.378 6.735 16.903.362 23.459zM96.816 267.299l7.639 6.143a9.896 9.896 0 0 1 3.356 10.322l-2.575 9.465 8.209-5.37a9.898 9.898 0 0 1 10.859.005l8.2 5.366-2.57-9.461a9.912 9.912 0 0 1 3.356-10.332l7.644-6.138-9.8-.48a9.905 9.905 0 0 1-8.783-6.378l-3.478-9.169-3.483 9.164a9.894 9.894 0 0 1-8.783 6.383zm-5.488 16.116-5.733 21.087c-1.092 4.01.377 8.181 3.733 10.619a9.89 9.89 0 0 0 5.822 1.911 9.941 9.941 0 0 0 5.436-1.628l18.286-11.97 18.286 11.97c3.478 2.269 7.893 2.17 11.254-.283 3.361-2.438 4.829-6.599 3.742-10.609l-5.738-21.096 17.039-13.692c3.238-2.603 4.5-6.839 3.215-10.788-1.28-3.949-4.791-6.636-8.943-6.834l-21.83-1.068-7.757-20.433c-1.473-3.878-5.112-6.387-9.268-6.387s-7.795 2.509-9.268 6.387l-7.757 20.433-21.83 1.066c-4.151.198-7.663 2.885-8.943 6.834-1.285 3.949-.023 8.185 3.215 10.788zm259.057-91.887c-5.441-15.721-20.338-26.735-37.669-26.74H312.688c-15.241.005-29.211 8.872-35.838 22.395a66.827 66.827 0 0 1 2.062 4.349zm-84.182 11.739c-6.067-20.291-24.815-34.694-46.749-34.694-21.939 0-40.682 14.403-46.749 34.694zm-106.211-11.739a67.984 67.984 0 0 1 2.062-4.345c-6.627-13.523-20.593-22.391-35.838-22.395h-.023c-17.336.005-32.233 11.019-37.679 26.744zm-33.795-42.739H126.211c8.938-.005 16.211-7.277 16.211-16.215 0-8.943-7.277-16.215-16.22-16.215-8.938 0-16.215 7.272-16.215 16.215-.001 8.938 7.271 16.21 16.21 16.215zm72.533-16.94c0 11.428 9.296 20.724 20.724 20.724 11.424 0 20.724-9.296 20.724-20.724s-9.301-20.724-20.724-20.724c-11.428 0-20.724 9.296-20.724 20.724zm113.967 16.94h.01c8.938-.005 16.21-7.277 16.21-16.215 0-8.943-7.272-16.215-16.21-16.215-8.948 0-16.22 7.272-16.22 16.215 0 8.938 7.272 16.21 16.21 16.215zm55.579 49.888c-2.142-19.962-14.549-36.469-31.658-44.541 5.149-5.714 8.298-13.278 8.298-21.562 0-17.764-14.45-32.219-32.209-32.219-17.769 0-32.223 14.455-32.223 32.219 0 8.317 3.168 15.905 8.359 21.628a56.507 56.507 0 0 0-22.136 18.752 64.7 64.7 0 0 0-21.412-15.043c6.712-6.656 10.882-15.881 10.882-26.062 0-20.249-16.474-36.723-36.723-36.723s-36.723 16.474-36.723 36.723c0 10.181 4.165 19.406 10.878 26.062a64.822 64.822 0 0 0-21.416 15.043c-5.625-8.101-13.302-14.559-22.132-18.752 5.192-5.723 8.359-13.311 8.359-21.628 0-17.764-14.455-32.219-32.219-32.219s-32.214 14.455-32.214 32.219c0 8.284 3.145 15.848 8.303 21.562-17.109 8.072-29.521 24.579-31.659 44.541a7.996 7.996 0 0 0 2.005 6.199 7.987 7.987 0 0 0 5.95 2.655h76.807a62.756 62.756 0 0 0-.376 2.885 7.972 7.972 0 0 0 2.005 6.199 7.995 7.995 0 0 0 5.95 2.655h112.965a8 8 0 0 0 7.949-8.854c-.099-.97-.23-1.935-.376-2.885h76.807a7.987 7.987 0 0 0 5.95-2.655 7.997 7.997 0 0 0 2.009-6.199zM50.444 323.65c2.226 3.822.937 8.722-2.885 10.943a7.925 7.925 0 0 1-4.015 1.087 7.985 7.985 0 0 1-6.919-3.968c-18.728-32.153-28.627-68.904-28.627-106.3 0-116.594 94.853-211.447 211.447-211.447 43.783 0 86.503 13.674 122.03 38.785l-3.427-12.007a7.998 7.998 0 0 1 5.497-9.889 7.999 7.999 0 0 1 9.889 5.502l10.299 36.092a8.02 8.02 0 0 1-1.219 6.896 7.995 7.995 0 0 1-6.189 3.29l-37.509 1.351c-.09 0-.188.005-.292.005-4.279 0-7.828-3.398-7.987-7.715a8 8 0 0 1 7.71-8.284l16.229-.579c-33.268-24.231-73.639-37.448-115.031-37.448-107.769 0-195.449 87.675-195.449 195.449 0 34.571 9.146 68.541 26.448 98.237z" clip-rule="evenodd" fill="#000000" data-original="#000000" class=""></path></g></svg>