<svg xmlns="http://www.w3.org/2000/svg" version="1.1" xmlns:xlink="http://www.w3.org/1999/xlink" xmlns:svgjs="http://svgjs.com/svgjs" width="512" height="512" x="0" y="0" viewBox="0 0 512 512" style="enable-background:new 0 0 512 512" xml:space="preserve" class=""><g><g fill-rule="evenodd" clip-rule="evenodd"><path fill="#ffe177" d="m258.622 289.338 13.46 35.452a2.752 2.752 0 0 0 2.485 1.805l37.876 1.846c2.576.125 3.631 3.37 1.62 4.986l-29.558 23.757a2.751 2.751 0 0 0-.949 2.921l9.949 36.593c.677 2.489-2.083 4.494-4.241 3.082l-31.728-20.77a2.75 2.75 0 0 0-3.071 0l-31.728 20.77c-2.158 1.412-4.918-.593-4.241-3.082l9.948-36.594a2.753 2.753 0 0 0-.949-2.921l-29.558-23.757c-2.01-1.616-.955-4.861 1.62-4.986l37.877-1.846a2.754 2.754 0 0 0 2.485-1.805l13.46-35.452c.909-2.396 4.333-2.396 5.243.001z" data-original="#ffe177"></path><path fill="#ffd064" d="m300.471 327.859 11.973.583c2.576.126 3.63 3.371 1.62 4.986l-29.558 23.758a2.751 2.751 0 0 0-.949 2.921l9.949 36.593c.677 2.489-2.083 4.494-4.241 3.082l-8.211-5.375-9.484-34.885a2.754 2.754 0 0 1 .949-2.921l29.558-23.757c2.005-1.612.958-4.847-1.606-4.985zm-41.85-38.521 13.461 35.453a2.751 2.751 0 0 0 2.458 1.803l-11.961-.583a2.751 2.751 0 0 1-2.485-1.805l-9.977-26.277 3.262-8.591c.909-2.397 4.333-2.397 5.242 0zm-1.086 89.674a2.753 2.753 0 0 0-3.071 0l-31.728 20.77c-2.158 1.412-4.918-.593-4.242-3.082l.851-3.131 28.677-18.773a2.751 2.751 0 0 1 3.071 0z" data-original="#ffd064"></path><path fill="#ffe177" d="m376.767 265.487 10.822 28.504a2.213 2.213 0 0 0 1.998 1.452l30.453 1.484c2.071.101 2.919 2.71 1.302 4.009l-23.765 19.101a2.215 2.215 0 0 0-.763 2.349l7.999 29.421c.544 2.001-1.675 3.613-3.41 2.478l-25.51-16.699a2.212 2.212 0 0 0-2.469 0l-25.51 16.699c-1.735 1.135-3.954-.477-3.41-2.478l7.999-29.422a2.215 2.215 0 0 0-.763-2.349l-23.765-19.101c-1.616-1.299-.768-3.909 1.303-4.009l30.453-1.484a2.214 2.214 0 0 0 1.998-1.452l10.822-28.504c.733-1.926 3.485-1.926 4.216.001z" data-original="#ffe177"></path><path fill="#ffd064" d="m410.415 296.457 9.626.469c2.071.101 2.919 2.71 1.302 4.009l-23.764 19.101a2.211 2.211 0 0 0-.763 2.349l7.999 29.421c.544 2.001-1.675 3.613-3.41 2.478l-6.601-4.322-7.625-28.048a2.213 2.213 0 0 1 .763-2.349l23.765-19.101c1.611-1.295.77-3.895-1.292-4.007zm-33.648-30.97 10.822 28.504a2.213 2.213 0 0 0 1.976 1.45l-9.617-.469a2.214 2.214 0 0 1-1.998-1.451l-8.021-21.128 2.622-6.907c.733-1.926 3.485-1.926 4.216.001zm-.873 72.098a2.212 2.212 0 0 0-2.469 0l-25.51 16.699c-1.735 1.135-3.954-.477-3.41-2.478l.684-2.517 23.057-15.094a2.216 2.216 0 0 1 2.47 0z" data-original="#ffd064"></path><path fill="#ffe177" d="m139.448 265.487 10.822 28.504a2.214 2.214 0 0 0 1.998 1.452l30.453 1.484c2.071.101 2.919 2.71 1.303 4.009l-23.765 19.101a2.215 2.215 0 0 0-.763 2.349l7.999 29.421c.544 2.001-1.675 3.613-3.41 2.478l-25.51-16.699a2.214 2.214 0 0 0-2.47 0l-25.509 16.699c-1.735 1.135-3.954-.477-3.41-2.478l7.999-29.422a2.215 2.215 0 0 0-.763-2.349l-23.765-19.101c-1.616-1.299-.769-3.909 1.303-4.009l30.453-1.484a2.214 2.214 0 0 0 1.998-1.452l10.822-28.504c.731-1.926 3.483-1.926 4.215.001z" data-original="#ffe177"></path><path fill="#ffd064" d="m173.095 296.457 9.626.469c2.071.101 2.919 2.71 1.303 4.009l-23.765 19.101a2.211 2.211 0 0 0-.763 2.349l7.999 29.421c.544 2.001-1.675 3.613-3.41 2.478l-6.601-4.322-7.625-28.048a2.213 2.213 0 0 1 .763-2.349l23.765-19.101c1.612-1.295.77-3.895-1.292-4.007zm-33.647-30.97 10.822 28.504a2.213 2.213 0 0 0 1.976 1.45l-9.617-.469a2.214 2.214 0 0 1-1.998-1.451l-8.021-21.128 2.622-6.907c.732-1.926 3.484-1.926 4.216.001zm-.873 72.098a2.212 2.212 0 0 0-2.469 0l-25.509 16.699c-1.735 1.135-3.954-.477-3.41-2.478l.685-2.517 23.057-15.094a2.214 2.214 0 0 1 2.469 0z" data-original="#ffd064"></path><path fill="#8ac9fe" d="M99.507 225.482h92.964c2.6 0 4.839-1.125 6.389-3.213 1.551-2.088 1.983-4.555 1.232-7.045-7.008-23.24-28.578-40.166-54.103-40.166s-47.095 16.926-54.103 40.166c-.751 2.49-.319 4.957 1.232 7.045s3.789 3.213 6.389 3.213z" data-original="#8ac9fe"></path><path fill="#60b7ff" d="M192.471 225.482c2.6 0 4.839-1.125 6.389-3.213 1.551-2.088 1.983-4.555 1.232-7.045-7.008-23.24-28.578-40.166-54.103-40.166-2.702 0-5.359.192-7.96.558 21.968 3.098 39.876 18.827 46.142 39.607.751 2.49.32 4.957-1.231 7.045s-3.789 3.213-6.389 3.213h15.92z" data-original="#60b7ff"></path><circle cx="145.989" cy="146.49" r="28.568" fill="#f6dccd" transform="rotate(-16.86 145.847 146.405)" data-original="#f6dccd"></circle><path fill="#f1cbbc" d="M145.99 117.922c15.778 0 28.568 12.791 28.568 28.568 0 15.778-12.79 28.568-28.568 28.568-1.351 0-2.68-.096-3.98-.277 13.894-1.937 24.588-13.864 24.588-28.291s-10.695-26.354-24.588-28.291c1.3-.181 2.629-.277 3.98-.277z" data-original="#f1cbbc"></path><path fill="#8ac9fe" d="M319.529 225.482h92.964c2.6 0 4.839-1.125 6.389-3.213 1.551-2.088 1.983-4.555 1.232-7.045-7.008-23.24-28.578-40.166-54.103-40.166s-47.095 16.926-54.103 40.166c-.751 2.49-.319 4.957 1.232 7.045 1.55 2.088 3.788 3.213 6.389 3.213z" data-original="#8ac9fe"></path><path fill="#60b7ff" d="M412.492 225.482c2.6 0 4.839-1.125 6.389-3.213 1.551-2.088 1.983-4.555 1.232-7.045-7.008-23.24-28.578-40.166-54.103-40.166-2.702 0-5.359.192-7.96.558 21.968 3.098 39.876 18.827 46.142 39.607.751 2.49.32 4.957-1.231 7.045s-3.789 3.213-6.389 3.213h15.92z" data-original="#60b7ff"></path><circle cx="366.011" cy="146.49" r="28.568" fill="#f6dccd" transform="rotate(-16.86 365.695 146.451)" data-original="#f6dccd"></circle><path fill="#f1cbbc" d="M366.011 117.922c15.778 0 28.568 12.791 28.568 28.568 0 15.778-12.79 28.568-28.568 28.568-1.351 0-2.68-.096-3.98-.277 13.893-1.937 24.588-13.864 24.588-28.291s-10.695-26.354-24.588-28.291c1.3-.181 2.629-.277 3.98-.277z" data-original="#f1cbbc"></path><path fill="#8ac9fe" d="M200.867 239.33h110.267c3.085 0 5.739-1.335 7.579-3.811s2.352-5.403 1.461-8.356c-8.313-27.565-33.897-47.641-64.173-47.641s-55.86 20.076-64.173 47.641c-.891 2.954-.379 5.88 1.461 8.356 1.839 2.476 4.493 3.811 7.578 3.811z" data-original="#8ac9fe"></path><path fill="#60b7ff" d="M311.133 239.33c3.084 0 5.739-1.335 7.579-3.812s2.352-5.403 1.461-8.356c-8.313-27.565-33.897-47.641-64.173-47.641-3.205 0-6.357.228-9.442.662 26.056 3.675 47.298 22.332 54.731 46.979.891 2.953.379 5.879-1.461 8.356s-4.494 3.812-7.579 3.812z" data-original="#60b7ff"></path><circle cx="256" cy="145.636" r="33.886" fill="#f6dccd" transform="rotate(-45 255.993 145.693)" data-original="#f6dccd"></circle><path fill="#f1cbbc" d="M256 111.75c18.714 0 33.886 15.171 33.886 33.886 0 18.714-15.171 33.886-33.886 33.886-1.602 0-3.178-.114-4.721-.329 16.479-2.298 29.165-16.445 29.165-33.557s-12.685-31.259-29.165-33.557a34.193 34.193 0 0 1 4.721-.329z" data-original="#f1cbbc"></path><path d="M325.191 217.479a78.06 78.06 0 0 0-3.107-6.524c7.908-16.827 25.135-27.898 43.915-27.898a48.422 48.422 0 0 1 46.457 34.421h-87.265zm-126.238 13.852c6.731-25.511 29.841-43.812 57.047-43.812s50.317 18.301 57.048 43.812zm-99.41-13.852A48.42 48.42 0 0 1 146 183.058c18.78 0 36.008 11.071 43.915 27.898-1.13 2.113-2.212 4.288-3.107 6.524H99.543zm25.888-70.989c0-11.343 9.226-20.569 20.569-20.569s20.569 9.226 20.569 20.569c0 11.339-9.226 20.569-20.569 20.569s-20.569-9.23-20.569-20.569zm104.681-.857c0-14.271 11.626-25.883 25.888-25.883s25.888 11.612 25.888 25.883c0 14.276-11.626 25.888-25.888 25.888s-25.888-11.612-25.888-25.888zm115.319.857c0-11.343 9.226-20.569 20.569-20.569 11.344 0 20.569 9.226 20.569 20.569 0 11.339-9.225 20.569-20.569 20.569s-20.569-9.23-20.569-20.569zm46.363 25.906c6.636-6.627 10.779-15.791 10.779-25.907 0-20.164-16.38-36.568-36.573-36.568-20.145 0-36.572 16.404-36.572 36.568 0 10.148 4.189 19.345 10.873 25.977-11.532 5.036-21.463 13.368-28.382 23.991-7.672-8.548-17.227-15.293-28.053-19.599 8.614-7.672 14.026-18.828 14.026-31.226 0-23.097-18.78-41.882-41.891-41.882s-41.891 18.785-41.891 41.882c0 12.398 5.413 23.548 14.027 31.226-10.826 4.307-20.381 11.052-28.053 19.599a65.433 65.433 0 0 0-28.382-23.991c6.684-6.632 10.873-15.829 10.873-25.977 0-20.164-16.427-36.568-36.572-36.568-20.193 0-36.573 16.404-36.573 36.568a36.34 36.34 0 0 0 10.779 25.907c-20.663 8.986-35.819 28.496-38.361 52.232-.235 2.259.471 4.514 2.024 6.199a7.953 7.953 0 0 0 5.931 2.655h92.349c-.283 1.647-.565 3.309-.753 4.999-.235 2.255.518 4.509 2.024 6.199s3.671 2.65 5.931 2.65H322.65a7.97 7.97 0 0 0 5.931-2.65c1.506-1.69 2.259-3.944 2.024-6.199-.188-1.69-.471-3.351-.753-4.999H422.2a7.956 7.956 0 0 0 5.931-2.655 8.076 8.076 0 0 0 2.024-6.199c-2.542-23.736-17.698-43.246-38.361-52.232zM504.006 256c0-43.854-11.626-86.96-33.56-124.652-2.259-3.817-7.154-5.111-10.967-2.885-3.813 2.222-5.083 7.122-2.871 10.939 20.522 35.255 31.395 75.574 31.395 116.599 0 127.924-104.069 232.002-232.002 232.002-50.505 0-99.739-16.587-139.888-46.904l23.299-.838c4.377-.155 7.861-3.864 7.672-8.279a7.95 7.95 0 0 0-8.284-7.71l-44.245 1.591c-2.448.09-4.707 1.304-6.166 3.295-1.459 1.987-1.883 4.528-1.224 6.896l12.144 42.578c.989 3.516 4.189 5.804 7.672 5.804.753 0 1.506-.099 2.212-.306 4.236-1.214 6.731-5.639 5.507-9.889l-5.178-18.107c42.315 30.967 93.714 47.869 146.478 47.869 66.226 0 128.498-25.798 175.378-72.637C478.212 384.521 504.006 322.24 504.006 256zM55.393 372.618C34.871 337.363 23.998 297.035 23.998 256 23.998 128.076 128.067 24.003 256 24.003c50.505 0 99.739 16.582 139.842 46.899l-23.252.833a7.946 7.946 0 0 0-7.672 8.284 7.96 7.96 0 0 0 7.954 7.71c.094 0 .188 0 .283-.005l44.292-1.591c2.447-.085 4.707-1.299 6.166-3.29 1.459-1.986 1.883-4.533 1.224-6.896l-12.144-42.579c-1.224-4.25-5.648-6.712-9.884-5.502a7.973 7.973 0 0 0-5.507 9.889l5.178 18.126C360.163 24.906 308.717 7.999 256 7.999c-66.226 0-128.545 25.798-175.378 72.637C33.788 127.479 7.994 189.755 7.994 256c0 43.863 11.626 86.974 33.56 124.671a8.046 8.046 0 0 0 6.919 3.973 8.07 8.07 0 0 0 4.048-1.087c3.813-2.227 5.084-7.122 2.872-10.939zM392.546 313.8a10.257 10.257 0 0 0-3.436 10.685l4.001 14.817-12.85-8.406c-1.695-1.12-3.624-1.68-5.601-1.68s-3.907.56-5.648 1.676l-12.803 8.411 4.001-14.822a10.194 10.194 0 0 0-3.483-10.68l-11.956-9.621 15.344-.748a10.284 10.284 0 0 0 9.084-6.599l5.46-14.361 5.46 14.361c1.412 3.813 4.989 6.401 9.084 6.599l15.344.748zm37.138-17.791c1.318 4.09 0 8.468-3.342 11.165l-20.804 16.742 7.013 25.794c1.083 4.147-.424 8.458-3.907 10.986-3.483 2.523-8.049 2.636-11.626.283l-22.358-14.638-22.358 14.638c-1.742 1.13-3.671 1.694-5.648 1.694-2.071 0-4.189-.664-5.978-1.977-3.483-2.528-5.036-6.839-3.907-10.986l7.013-25.794-20.804-16.742c-3.389-2.697-4.66-7.074-3.342-11.165 1.318-4.086 4.942-6.863 9.225-7.074l26.735-1.299 9.461-24.989c1.553-4.01 5.319-6.604 9.602-6.604s8.049 2.593 9.602 6.604l9.461 24.989 26.688 1.299c4.284.211 7.956 2.988 9.274 7.074zm-306.889 7.422a10.284 10.284 0 0 0 9.084-6.599l5.46-14.361 5.46 14.361c1.459 3.813 4.989 6.401 9.085 6.599l15.344.748-12.002 9.621a10.254 10.254 0 0 0-3.436 10.685l4.001 14.817-12.85-8.406c-3.389-2.241-7.813-2.241-11.249-.005l-12.803 8.411 4.001-14.822a10.188 10.188 0 0 0-3.483-10.68l-11.955-9.621zm-23.346 46.278 7.013-25.794-20.804-16.742c-3.389-2.697-4.66-7.074-3.342-11.165 1.318-4.086 4.942-6.863 9.226-7.074l26.735-1.299 9.461-24.989c1.553-4.01 5.319-6.604 9.602-6.604s8.049 2.593 9.602 6.604l9.461 24.989 26.688 1.299c4.33.212 7.955 2.989 9.272 7.074 1.318 4.09 0 8.468-3.342 11.165l-20.805 16.742 7.013 25.794c1.083 4.147-.424 8.458-3.907 10.986a10.156 10.156 0 0 1-11.626.283l-22.358-14.638-22.358 14.638c-1.742 1.13-3.671 1.694-5.648 1.694-2.071 0-4.189-.664-5.978-1.977-3.481-2.527-5.034-6.839-3.905-10.986zm180.038 1.238c-3.342 2.697-4.801 7.117-3.671 11.259l6.401 23.389-20.287-13.278a10.853 10.853 0 0 0-11.861.005l-20.286 13.273 6.354-23.389c1.13-4.146-.282-8.566-3.624-11.254l-18.922-15.184 24.24-1.181a10.756 10.756 0 0 0 9.555-6.957L256 304.97l8.614 22.664a10.76 10.76 0 0 0 9.555 6.952l24.193 1.181zm43.068-23.04c1.412 4.302.047 8.919-3.483 11.758l-26.923 21.628 9.084 33.31c1.177 4.368-.424 8.91-4.095 11.574-3.671 2.659-8.473 2.777-12.285.297L256 387.567l-28.9 18.908a10.673 10.673 0 0 1-12.238-.296c-3.671-2.664-5.272-7.206-4.095-11.574l9.037-33.31-26.876-21.628c-3.53-2.838-4.895-7.456-3.53-11.758 1.412-4.312 5.225-7.235 9.79-7.456l34.454-1.68 12.238-32.275c1.6-4.227 5.601-6.957 10.12-6.957s8.472 2.73 10.073 6.957l12.285 32.275 34.454 1.68c4.566.219 8.378 3.142 9.743 7.454z" fill="#000000" data-original="#000000" class=""></path></g></g></svg>