<svg width="227" height="196" viewBox="0 0 227 196" fill="none" xmlns="http://www.w3.org/2000/svg">
<path d="M50.9046 99.3485L17.5314 127.491L69.1663 188.723L102.539 160.58L50.9046 99.3485Z" fill="#505054"/>
<path d="M183.63 24.2798C155.161 48.2884 97.6032 96.8237 69.0617 120.888L17.5346 127.499C60.1649 91.5527 122.573 38.9278 165.478 2.74976L183.632 24.2783L183.63 24.2798Z" fill="#F7AF2C"/>
<path d="M36.507 122.654C36.9961 123.216 36.1024 123.973 35.6245 123.394L30.13 116.877L31.011 116.135L36.507 122.654Z" fill="black"/>
<path d="M41.4765 118.461C41.9671 119.026 41.075 119.786 40.5956 119.203L35.1011 112.687L35.982 111.945L41.4765 118.461Z" fill="black"/>
<path d="M51.9461 120.788C52.4352 121.351 51.5446 122.113 51.0652 121.531L40.0706 108.494L40.9542 107.75L51.9461 120.788Z" fill="black"/>
<path d="M51.4172 110.078C51.9078 110.643 51.0157 111.403 50.5362 110.82L45.0418 104.304L45.9242 103.564L51.4172 110.078Z" fill="black"/>
<path d="M56.3883 105.887C56.8789 106.453 55.9853 107.21 55.5073 106.63L50.0128 100.114L50.8953 99.3738L56.3883 105.887Z" fill="black"/>
<path d="M66.8606 108.213C67.3471 108.777 66.4564 109.54 65.977 108.957L54.985 95.9195L55.8675 95.1795L66.8606 108.213Z" fill="black"/>
<path d="M66.3315 97.5026C66.8221 98.0681 65.93 98.8277 65.4505 98.2453L59.9561 91.729L60.8386 90.989L66.3315 97.5026Z" fill="black"/>
<path d="M71.3013 93.3098C71.7919 93.8752 70.8997 94.6348 70.4203 94.0524L64.9258 87.5362L65.8083 86.7962L71.3013 93.3098Z" fill="black"/>
<path d="M81.7707 95.6368C82.2598 96.1996 81.3666 96.9633 80.8898 96.3794L69.8951 83.3432L70.7787 82.5991L81.7707 95.6368Z" fill="black"/>
<path d="M81.2461 84.9277C81.7367 85.4931 80.8445 86.2527 80.3651 85.6703L74.8706 79.1541L75.7531 78.4141L81.2461 84.9277Z" fill="black"/>
<path d="M86.2156 80.7348C86.7088 81.2987 85.8141 82.0598 85.3346 81.4774L79.8401 74.9612L80.7226 74.2212L86.2156 80.7348Z" fill="black"/>
<path d="M96.6852 83.0619C97.1743 83.6247 96.281 84.3884 95.8016 83.806L84.8096 70.7683L85.6921 70.0283L96.6852 83.0619Z" fill="black"/>
<path d="M96.1576 72.3544C96.6467 72.9172 95.7531 73.6742 95.2751 73.0944L89.7807 66.5782L90.6631 65.8381L96.1576 72.3544Z" fill="black"/>
<path d="M101.13 68.16C101.621 68.7255 100.728 69.4851 100.249 68.9027L94.7546 62.3864L95.6356 61.6438L101.13 68.16Z" fill="black"/>
<path d="M111.597 70.4886C112.086 71.0515 111.193 71.8152 110.716 71.2313L99.7241 58.1936L100.605 57.4509L111.597 70.4886Z" fill="black"/>
<path d="M111.072 59.7794C111.559 60.3438 110.669 61.1018 110.19 60.5194L104.695 54.0032L105.578 53.2632L111.072 59.7794Z" fill="black"/>
<path d="M116.042 55.5866C116.531 56.1495 115.64 56.9116 115.161 56.3293L109.666 49.813L110.549 49.073L116.042 55.5866Z" fill="black"/>
<path d="M126.511 57.9136C126.998 58.478 126.107 59.2402 125.628 58.6578L114.636 45.6201L115.517 44.8775L126.511 57.9136Z" fill="black"/>
<path d="M125.984 47.2059C126.473 47.7688 125.578 48.5299 125.101 47.946L119.607 41.4297L120.489 40.6897L125.984 47.2059Z" fill="black"/>
<path d="M130.955 43.0089C131.445 43.5744 130.553 44.3339 130.074 43.7516L124.579 37.2353L125.46 36.4927L130.955 43.0089Z" fill="black"/>
<path d="M141.422 45.3375C141.911 45.9004 141.017 46.6641 140.541 46.0802L129.549 33.0424L130.43 32.2998L141.422 45.3375Z" fill="black"/>
<path d="M140.897 34.6285C141.387 35.194 140.495 35.9536 140.016 35.3712L134.521 28.8549L135.402 28.1123L140.897 34.6285Z" fill="black"/>
<path d="M145.866 30.4357C146.355 30.9985 145.465 31.7607 144.985 31.1783L139.491 24.6621L140.372 23.9194L145.866 30.4357Z" fill="black"/>
<path d="M156.336 32.7625C156.823 33.3269 155.935 34.0876 155.455 33.5052L144.461 20.469L145.344 19.7248L156.336 32.7625Z" fill="black"/>
<path d="M155.811 22.0535C156.3 22.6163 155.407 23.3732 154.93 22.7961L149.432 16.2788L150.315 15.5346L155.811 22.0535Z" fill="black"/>
<path d="M160.782 17.8634C161.271 18.4262 160.377 19.1873 159.9 18.6034L154.405 12.0871L155.286 11.3445L160.782 17.8634Z" fill="black"/>
<path d="M171.179 21.0011C170.944 21.2063 170.571 21.1772 170.367 20.932L159.375 7.89425L160.256 7.15162L171.248 20.1893C171.455 20.433 171.424 20.7967 171.179 21.0011Z" fill="black"/>
<path opacity="0.2" d="M17.532 127.5L53.1735 159.773C67.6542 173.499 86.6103 168.772 102.539 160.592L69.1676 188.734L17.5346 127.499L17.532 127.5Z" fill="black"/>
<path opacity="0.3" d="M183.63 24.2797L128.168 71.0495C117.828 69.0494 108.925 64.2149 101.313 56.8568L165.478 2.74966L183.632 24.2782L183.63 24.2797Z" fill="white"/>
</svg>
