<svg width="302" height="280" viewBox="0 0 302 280" fill="none" xmlns="http://www.w3.org/2000/svg">
<g clip-path="url(#clip0_52_642)">
<path d="M219.331 263.197C234.882 262.52 254.604 257.556 266.666 247.41C250.017 247.838 233.176 253.454 219.331 263.197Z" fill="#255E7E" fill-opacity="0.2"/>
<path d="M230.147 244.804C245.698 244.126 265.421 239.162 277.483 229.017C260.833 229.445 243.992 235.061 230.147 244.804Z" fill="#255E7E" fill-opacity="0.2"/>
<path d="M241.775 227.285C257.326 226.608 277.048 221.644 289.111 211.498C272.461 211.926 255.62 217.542 241.775 227.285Z" fill="#255E7E" fill-opacity="0.2"/>
<path d="M254.751 209.218C270.219 206.643 289.283 199.334 299.985 187.879C283.38 190.351 267.293 197.941 254.751 209.218Z" fill="#255E7E" fill-opacity="0.2"/>
<path d="M266.162 195.884C279.898 188.026 295.199 174.615 300.898 160.458C286.037 168.629 273.681 181.228 266.162 195.884Z" fill="#255E7E" fill-opacity="0.2"/>
<path d="M260.629 202.19C264.858 186.767 266.174 166.029 259.964 151.321C255.147 167.754 255.384 185.847 260.629 202.19Z" fill="#255E7E" fill-opacity="0.2"/>
<path d="M249.627 216.929C252.624 200.567 252.093 178.909 244.26 164.112C240.74 181.566 242.65 200.356 249.627 216.929Z" fill="#255E7E" fill-opacity="0.2"/>
<path d="M236.517 235.009C239.514 218.647 238.983 196.989 231.15 182.192C227.63 199.647 229.54 218.437 236.517 235.009Z" fill="#255E7E" fill-opacity="0.2"/>
<path d="M222.538 257.914C225.535 241.552 225.004 219.893 217.172 205.097C213.651 222.551 215.562 241.341 222.538 257.914Z" fill="#255E7E" fill-opacity="0.2"/>
<path d="M217.21 266.366C214.955 270.526 213.191 273.924 212.028 276.295C211.46 277.445 211.013 278.358 210.687 279.029C210.553 279.317 210.444 279.553 210.348 279.745C210.278 279.911 210.246 279.994 210.252 280C210.259 280 210.31 279.93 210.399 279.777C210.502 279.591 210.629 279.361 210.789 279.087C211.14 278.429 211.62 277.534 212.227 276.403C213.453 274.065 215.274 270.698 217.574 266.571C219.861 262.437 222.685 257.569 225.899 252.209C229.138 246.867 232.799 241.053 236.785 235.048C244.778 223.05 252.598 212.585 258.437 205.161C261.357 201.442 263.753 198.465 265.427 196.421C266.232 195.424 266.871 194.632 267.337 194.05C267.535 193.801 267.695 193.59 267.823 193.424C267.931 193.284 267.982 193.207 267.976 193.201C267.97 193.194 267.899 193.258 267.778 193.386C267.637 193.546 267.459 193.737 267.248 193.974C266.756 194.536 266.091 195.303 265.248 196.274C263.517 198.273 261.07 201.219 258.105 204.905C252.176 212.272 244.292 222.711 236.287 234.728" fill="#255E7E" fill-opacity="0.2"/>
<path d="M190.37 158.809C196.043 144.798 199.615 125.369 195.513 110.617C189.175 125.504 187.348 142.645 190.37 158.809Z" fill="#255E7E" fill-opacity="0.2"/>
<path d="M178.487 141.827C184.16 127.816 187.731 108.388 183.63 93.6357C177.292 108.522 175.465 125.663 178.487 141.827Z" fill="#255E7E" fill-opacity="0.2"/>
<path d="M167.702 124.488C173.376 110.477 176.947 91.0484 172.845 76.2964C166.508 91.1825 164.68 108.324 167.702 124.488Z" fill="#255E7E" fill-opacity="0.2"/>
<path d="M156.975 105.736C160.936 91.0292 162.169 71.2364 156.368 57.1616C151.858 72.8272 152.075 90.1028 156.975 105.736Z" fill="#255E7E" fill-opacity="0.2"/>
<path d="M149.794 90.2816C148.389 74.9738 142.715 56.0435 132.506 45.2974C133.732 61.7232 139.879 77.721 149.794 90.2816Z" fill="#255E7E" fill-opacity="0.2"/>
<path d="M153.136 97.7056C141.214 87.7453 123.421 78.2194 107.921 77.7722C120.501 88.6589 136.582 95.7506 153.136 97.7056Z" fill="#255E7E" fill-opacity="0.2"/>
<path d="M161.716 113.377C148.472 104.126 129.12 95.8655 112.885 96.811C126.89 106.963 144.255 112.854 161.716 113.377Z" fill="#255E7E" fill-opacity="0.2"/>
<path d="M172.398 132.25C159.154 122.999 139.802 114.738 123.568 115.684C137.572 125.836 154.937 131.726 172.398 132.25Z" fill="#255E7E" fill-opacity="0.2"/>
<path d="M186.997 153.838C173.752 144.587 154.4 136.326 138.166 137.272C152.171 147.424 169.536 153.315 186.997 153.838Z" fill="#255E7E" fill-opacity="0.2"/>
<path d="M192.325 161.959C195.091 165.626 197.379 168.559 199.008 170.545C199.8 171.51 200.42 172.27 200.88 172.833C201.078 173.069 201.244 173.261 201.378 173.42C201.493 173.548 201.557 173.612 201.563 173.606C201.57 173.606 201.525 173.523 201.423 173.382C201.301 173.216 201.155 173.012 200.969 172.762C200.528 172.187 199.934 171.402 199.18 170.411C197.609 168.38 195.373 165.415 192.651 161.722C189.916 158.036 186.754 153.577 183.317 148.574C179.905 143.559 176.244 137.981 172.545 132.033C165.166 120.131 159.077 109.001 154.873 100.843C152.765 96.7664 151.097 93.4442 149.973 91.1378C149.417 90.0261 148.976 89.1381 148.651 88.4928C148.51 88.2181 148.389 87.9945 148.293 87.8092C148.21 87.6559 148.165 87.5792 148.152 87.5856C148.146 87.5856 148.171 87.675 148.242 87.8347C148.325 88.0264 148.427 88.2564 148.548 88.5439C148.849 89.202 149.257 90.1028 149.775 91.2336C150.842 93.572 152.458 96.9198 154.516 101.028C158.636 109.238 164.674 120.418 172.066 132.333" fill="#E0E0E0"/>
<path d="M93.8721 158.585C90.8565 156.33 87.1893 155.397 84.7551 155.276C82.4807 155.161 79.1137 155.353 75.996 156.912C74.0601 157.876 72.4821 159.256 71.3129 161C69.9265 163.07 69.1023 165.671 68.8596 168.737C68.8212 169.197 68.9746 169.645 69.2748 169.99C69.5815 170.341 70.0032 170.545 70.4696 170.565L76.4368 170.865C77.2801 170.91 78.034 170.315 78.1937 169.491C78.5515 167.632 79.8229 164.54 84.2951 164.687C87.7004 164.802 88.9782 167.332 89.3743 168.418C90.0132 170.181 89.7257 172.219 88.6077 173.874C86.889 176.41 83.9438 176.666 82.3465 176.589C80.5065 176.506 78.9349 177.925 78.839 179.752L78.5132 186.173C78.4685 187.112 79.1904 187.911 80.1296 187.962L85.9435 188.256C86.8826 188.3 87.6813 187.578 87.7324 186.639L87.8026 185.291C87.8026 185.259 87.8282 185.234 87.8602 185.221C89.2018 184.825 91.8085 183.834 94.2235 181.669C97.3029 178.896 98.9832 175.203 99.2132 170.692C99.5391 164.24 96.4916 160.547 93.8785 158.592L93.8721 158.585Z" fill="#EBEBEB"/>
<path d="M83.2474 189.731L82.7363 189.706C80.3021 189.584 78.2257 191.463 78.1043 193.897C77.9829 196.331 79.8613 198.407 82.2954 198.529L82.8066 198.554C85.2407 198.676 87.3171 196.797 87.4385 194.363C87.5599 191.929 85.6816 189.853 83.2474 189.731Z" fill="#EBEBEB"/>
<path d="M62.8412 272.327H68.3612C71.6131 260.75 73.172 247.87 71.0445 237.099C66.0612 247.896 63.2692 260.054 62.8412 272.327Z" fill="#255E7E" fill-opacity="0.2"/>
<path d="M61.7935 218.609C55.0084 233.316 52.2676 250.547 54.0629 267.146C54.1268 267.273 54.1843 267.408 54.2482 267.535C60.3879 253.505 64.8218 233.923 61.7935 218.609Z" fill="#255E7E" fill-opacity="0.2"/>
<path d="M47.2268 197.916C42.2498 213.076 41.3298 230.026 44.5754 245.82C44.7735 246.299 44.9779 246.791 45.1887 247.283C49.6801 232.473 51.8779 212.546 47.2332 197.916H47.2268Z" fill="#255E7E" fill-opacity="0.2"/>
<path d="M37.7392 228.934C37.6881 228.768 37.6626 228.678 37.669 228.672C37.6754 228.672 37.7201 228.748 37.7904 228.908C37.8734 229.106 37.9692 229.343 38.0906 229.63C38.1865 229.873 38.3015 230.167 38.4229 230.473C38.6401 230.825 38.8509 231.189 39.0809 231.534C38.6273 215.715 34.3276 195.903 25.2426 184.23C25.4534 200.509 30.0087 216.661 38.0715 229.898C38.0459 229.828 38.014 229.745 37.9948 229.675C37.8926 229.374 37.8095 229.132 37.7456 228.927L37.7392 228.934Z" fill="#255E7E" fill-opacity="0.2"/>
<path d="M41.547 239.322C41.5023 239.201 41.4576 239.086 41.4065 238.964C30.6476 228.129 14.5156 217.485 0 216.079C11.2572 227.982 26.0284 236.236 41.547 239.322Z" fill="#255E7E" fill-opacity="0.2"/>
<path d="M49.0795 256.016C49.022 255.965 48.9581 255.914 48.9006 255.863C48.9198 255.908 48.939 255.959 48.9645 256.003C49.0029 256.003 49.0412 256.016 49.0859 256.016H49.0795Z" fill="#255E7E" fill-opacity="0.2"/>
<path d="M3.62248 235.955C16.1703 247.104 32.0595 254.183 48.3767 255.94C48.2617 255.671 48.1467 255.409 48.0317 255.147C36.0014 245.149 18.6619 235.993 3.61609 235.955H3.62248Z" fill="#255E7E" fill-opacity="0.2"/>
<path d="M12.6884 256.016C20.9045 263.319 30.5581 268.864 40.8315 272.327H53.4559C41.7259 263.517 26.2712 256.048 12.6884 256.016Z" fill="#255E7E" fill-opacity="0.2"/>
<path d="M42.9398 242.874C44.3645 246.471 46.0767 250.618 48.0381 255.141C48.1531 255.403 48.2681 255.665 48.3831 255.933C50.6001 261.019 53.1365 266.558 55.9412 272.327H56.5545C55.7623 270.711 54.9956 269.113 54.2481 267.535C54.1842 267.408 54.1267 267.273 54.0629 267.146C52.2292 263.261 50.5234 259.524 48.9581 256.003C48.939 255.959 48.9198 255.908 48.8942 255.863C47.5462 252.815 46.3067 249.94 45.1887 247.276C44.9778 246.784 44.7734 246.292 44.5753 245.813C44.1281 244.74 43.7001 243.698 43.2912 242.708C41.5278 238.383 40.1287 234.869 39.1895 232.428C38.8892 231.668 38.6401 231.029 38.4164 230.473C38.2951 230.167 38.1801 229.873 38.0842 229.63C37.9628 229.343 37.867 229.1 37.7839 228.908C37.7137 228.748 37.6753 228.665 37.6626 228.672C37.6562 228.672 37.6753 228.761 37.7328 228.934C37.8031 229.132 37.8798 229.381 37.982 229.681C38.0076 229.751 38.0331 229.835 38.0587 229.905C38.2951 230.576 38.6017 231.445 38.9851 232.524C39.5792 234.205 40.397 236.383 41.4001 238.971C41.4448 239.086 41.4895 239.207 41.5406 239.328C41.9751 240.446 42.4351 241.628 42.9334 242.881L42.9398 242.874Z" fill="#E0E0E0"/>
<path d="M242.574 54.2291C242.574 56.0499 241.098 57.5322 239.271 57.5322C237.443 57.5322 235.968 56.0563 235.968 54.2291C235.968 52.4019 237.443 50.926 239.271 50.926C241.098 50.926 242.574 52.4019 242.574 54.2291Z" fill="#255E7E" fill-opacity="0.2"/>
<path d="M122.392 213.032C115.498 195.756 110.323 183.758 110.323 183.758L47.2714 193.341C47.2714 193.341 35.9375 222.398 36.9214 235.578C37.9053 248.758 42.5181 271.976 42.5181 271.976H118.821C118.821 271.976 129.299 230.307 122.398 213.032H122.392Z" fill="#263238"/>
<path d="M99.6349 68.9488C100.127 63.9655 100.874 58.9502 102.702 54.2863C104.522 49.6224 107.512 45.2907 111.736 42.5946L112.822 43.6041C113.569 41.4638 115.562 39.809 117.805 39.464C120.047 39.119 122.443 40.1029 123.798 41.9238C126.219 41.2721 128.992 42.2624 130.455 44.2941C131.918 46.3257 131.969 49.271 130.583 51.3602C132.851 51.6477 134.851 53.4302 135.394 55.6471C135.937 57.8641 134.991 60.3749 133.119 61.6783C135.617 63.8377 136.614 67.5752 135.515 70.6866C134.422 73.8044 131.311 76.098 128.008 76.2194C128.743 79.088 127.248 82.3719 124.603 83.6944C121.958 85.0233 118.431 84.2566 116.572 81.9566C116.802 84.9402 114.419 87.7641 111.512 88.4733C108.605 89.1825 105.436 88.0069 103.321 85.8986C101.2 83.7902 100.037 80.8641 99.5838 77.9061C99.1302 74.948 99.341 71.9324 99.6349 68.9552V68.9488Z" fill="#263238"/>
<path d="M113.052 46.8689C115.952 47.8081 116.546 50.1592 117.147 52.1142C118.444 56.3245 116.987 62.56 114.63 66.2848C112.272 70.0095 109.685 71.9006 105.327 72.5331C105.187 65.8439 105.046 59.1611 104.899 52.472L113.052 46.8689Z" fill="#FF725E"/>
<path d="M114.687 58.3818C116.668 55.807 116.387 51.7693 114.067 49.4948C115.339 47.8976 114.879 45.4379 113.588 43.8598C112.298 42.2817 110.381 41.3745 108.528 40.5184C107.512 35.8545 102.273 32.5706 97.6288 33.6887C95.2074 30.13 90.0579 29.5742 85.9307 30.7753C84.9212 31.0692 83.9118 31.4462 82.864 31.4462C82.091 31.4462 81.3435 31.2353 80.5768 31.1267C76.3793 30.5645 72.2073 33.5162 70.5718 37.4262C70.3098 38.0523 70.0926 38.7103 69.6773 39.247C69.1343 39.9498 68.3037 40.3651 67.6009 40.9081C66.0804 42.0837 65.1093 43.9492 65.0326 45.8659C64.9623 47.4951 65.4862 49.2265 64.7962 50.7087C64.4512 51.4498 63.8315 52.0504 63.5631 52.8234C62.7837 55.0659 65.269 57.3532 64.809 59.6787C64.7131 60.1515 64.5023 60.5923 64.3681 61.0587C64.0998 62.0107 64.1893 63.0584 64.6173 63.9529C64.9495 64.6429 65.4862 65.269 65.5309 66.0357C65.5629 66.6171 65.3073 67.1665 65.1923 67.7351C64.9112 69.1215 67.9076 74.4818 69.1023 75.2357L104.963 75.5551C107.679 74.9993 109.889 72.5396 110.151 69.786C110.196 69.326 110.202 68.8276 110.483 68.4698C110.726 68.1632 111.116 68.0162 111.461 67.831C113.767 66.5915 114.048 63.4226 113.805 60.8095C113.774 60.4454 113.735 60.0684 113.825 59.717C113.959 59.1995 114.349 58.797 114.668 58.3754L114.687 58.3818Z" fill="#263238"/>
<path d="M104.414 58.4328C104.522 52.0886 100.542 44.7925 94.2362 41.6875C90.2623 39.7325 87.1637 39.7197 85.0745 39.4769C80.3915 38.9339 76.6156 41.253 76.6156 41.253C74.6415 41.7194 67.3965 48.3511 67.0195 55.545C66.6042 63.5439 66.4062 73.3189 67.4156 79.2734C69.4473 91.2398 78.6537 92.6709 78.6537 92.6709C78.6537 92.6518 77.7976 112.566 77.7976 112.566L95.4885 127.062L100.893 103.257L104.42 58.4328H104.414Z" fill="#FFBF9D"/>
<path d="M78.6473 92.6708C78.6473 92.6708 86.774 93.1053 94.7091 88.2178C94.7091 88.2178 90.5243 96.715 78.5132 95.7183L78.6473 92.6708Z" fill="#FF9A6C"/>
<path d="M102.606 69.8179C102.599 68.9234 103.609 66.8087 104.49 66.6618C106.842 66.272 111.084 66.4126 111.192 72.3926C111.333 80.564 103.308 78.7432 103.078 78.7879C101.775 79.0562 102.631 72.9037 102.606 69.8179Z" fill="#FFBF9D"/>
<path d="M105.276 75.7596C105.315 75.7341 105.423 75.8554 105.66 75.9641C105.896 76.0663 106.299 76.1366 106.727 75.9641C107.583 75.6318 108.285 74.2518 108.305 72.776C108.311 72.0285 108.145 71.3257 107.87 70.7443C107.608 70.1502 107.219 69.7413 106.778 69.671C106.343 69.5752 106.043 69.8435 105.947 70.0735C105.839 70.3035 105.896 70.4696 105.851 70.4824C105.826 70.5015 105.672 70.3482 105.736 70.0096C105.768 69.8435 105.858 69.6518 106.049 69.4921C106.241 69.3324 106.529 69.2429 106.835 69.2685C107.468 69.3004 108.043 69.869 108.343 70.5079C108.682 71.1468 108.886 71.939 108.873 72.776C108.848 74.4243 108.036 75.9768 106.854 76.341C106.279 76.5007 105.8 76.341 105.551 76.1493C105.295 75.9513 105.251 75.7724 105.276 75.7532V75.7596Z" fill="#FF9A6C"/>
<path d="M65.2626 54.3374C65.5246 51.3666 66.7065 48.5555 68.1376 45.9424C69.1279 44.1344 70.2715 42.371 71.8304 41.0166C73.1337 39.8921 74.6862 39.0935 76.2451 38.3524C80.3404 36.4102 84.9085 34.7619 89.3296 35.7585C91.6999 36.2952 93.8402 37.5538 95.9166 38.8188C97.5074 39.7899 99.111 40.7802 100.446 42.0835C101.615 43.2271 102.561 44.5816 103.385 45.9935C105.366 49.3541 106.759 53.1108 107.027 57.0016C107.295 60.8925 110.24 64.3297 107.96 67.4922C107.781 67.735 103.724 68.5783 103.443 68.6869C102.785 68.9489 102.056 68.2333 102.063 67.5241C102.063 66.815 102.555 66.2016 103.085 65.7225C102.075 65.6905 101.379 64.5597 101.443 63.5502C101.507 62.5408 102.107 61.6527 102.708 60.835C102.785 60.7263 102.868 60.6177 102.887 60.4836C102.932 60.1386 102.542 59.9277 102.242 59.7488C100.785 58.8863 100.625 56.4905 101.948 55.4427C99.9991 54.9891 98.7341 52.6444 99.4305 50.7724C99.5391 50.4785 99.6924 50.1399 99.5455 49.8588C99.4113 49.5841 99.0727 49.501 98.7788 49.418C96.6193 48.7791 95.1691 46.3385 95.6418 44.1408C94.5046 44.1983 93.3546 44.2558 92.2493 43.9874C91.1441 43.7191 90.0771 43.0738 89.5724 42.058C88.8504 43.3613 87.4257 44.2494 85.9371 44.3324C84.4485 44.4155 82.9407 43.6808 82.0846 42.4605C80.1807 42.6458 78.2321 42.3391 76.4751 41.5916C76.0407 43.3677 74.6415 44.8691 72.9101 45.4313C72.5715 45.5399 72.1882 45.6485 72.0221 45.9616C71.9199 46.1597 71.9326 46.4024 71.9454 46.626C72.0029 47.7697 71.2299 48.2552 70.5973 49.2072C69.9712 50.1591 68.8723 51.5838 67.7735 51.2644C67.8948 53.2066 66.8535 54.6249 65.2179 55.6727L65.2754 54.3311L65.2626 54.3374Z" fill="#263238"/>
<path d="M63.5695 52.8361C63.5695 52.8361 63.6462 52.4975 64.004 51.9544C64.1765 51.6797 64.4193 51.3603 64.6429 50.9514C64.8665 50.5425 65.039 50.025 65.0901 49.4181C65.1476 48.8175 65.0901 48.1339 65.039 47.3992C64.9815 46.6581 64.9176 45.8403 65.0837 44.9714C65.237 44.1089 65.582 43.2144 66.1379 42.3839C66.4126 41.9686 66.7448 41.5789 67.1345 41.2211C67.5179 40.8569 67.9651 40.5566 68.4187 40.25C68.8659 39.9433 69.3195 39.6111 69.6518 39.1703C69.984 38.723 70.1948 38.18 70.4121 37.6241C70.8529 36.5061 71.5046 35.4136 72.3671 34.4489C73.2296 33.4841 74.2773 32.6089 75.5104 31.9827C76.1173 31.6505 76.7882 31.4269 77.4718 31.2289C78.1682 31.0691 78.8837 30.9477 79.6185 30.9669C79.9826 30.9669 80.3532 31.0116 80.7173 31.0436C81.0815 31.0947 81.4457 31.1714 81.8035 31.2352C82.5254 31.3694 83.2601 31.3886 83.9885 31.2161C84.7168 31.0627 85.4324 30.7944 86.1862 30.6027C86.9337 30.3919 87.7132 30.2641 88.499 30.1747C89.2849 30.0852 90.0899 30.0852 90.8949 30.13C91.6999 30.1875 92.5049 30.3344 93.2971 30.5516C94.8624 31.018 96.3893 31.8805 97.4371 33.2286C97.5393 33.3627 97.6416 33.4969 97.7438 33.6311L97.616 33.58C100.082 32.9858 102.67 33.6311 104.663 34.9408C106.675 36.2441 108.17 38.2694 108.656 40.4991L108.592 40.4161C109.582 40.8761 110.566 41.3361 111.474 41.9047C112.374 42.4669 113.205 43.1442 113.831 43.9747C114.451 44.8117 114.828 45.7956 114.917 46.7858C115.013 47.7761 114.764 48.7983 114.157 49.5586V49.4244C115.326 50.5872 115.927 52.1333 116.067 53.6028C116.208 55.0786 115.907 56.5225 115.249 57.6725C115.102 57.9664 114.898 58.2284 114.713 58.4839C114.515 58.7331 114.317 58.9695 114.157 59.2186C113.997 59.4678 113.895 59.7425 113.876 60.0236C113.85 60.3047 113.882 60.5922 113.908 60.8734C114.004 61.9978 113.984 63.0456 113.844 63.9784C113.703 64.9048 113.441 65.7225 113.058 66.3486C112.687 66.9811 112.215 67.4156 111.799 67.6839C111.378 67.965 111.007 68.08 110.803 68.227C110.592 68.3675 110.515 68.4825 110.509 68.4761C110.509 68.4761 110.573 68.3548 110.784 68.2014C110.988 68.0353 111.359 67.9139 111.767 67.6264C112.176 67.3517 112.624 66.9173 112.981 66.2975C113.345 65.6778 113.595 64.8728 113.729 63.9592C113.857 63.0392 113.869 62.0042 113.761 60.8861C113.735 60.605 113.697 60.3175 113.722 60.0109C113.742 59.7042 113.857 59.4039 114.023 59.1356C114.189 58.8672 114.393 58.6308 114.585 58.3817C114.764 58.1261 114.955 57.877 115.102 57.5831C115.735 56.4586 116.022 55.0531 115.875 53.6156C115.735 52.1844 115.141 50.6767 114.004 49.565L113.94 49.5011L113.997 49.4308C114.566 48.7217 114.796 47.7569 114.7 46.805C114.61 45.8531 114.246 44.9075 113.646 44.1089C113.045 43.3103 112.234 42.6522 111.346 42.0964C110.458 41.5405 109.48 41.0869 108.49 40.6269L108.439 40.6014L108.426 40.5439C107.953 38.378 106.497 36.4103 104.529 35.1389C102.58 33.8611 100.057 33.2414 97.6671 33.81L97.5904 33.8291L97.5393 33.7589C97.4435 33.6311 97.3413 33.5033 97.2454 33.3755C96.2424 32.0722 94.7602 31.2289 93.2332 30.7752C92.4601 30.558 91.6743 30.4239 90.8821 30.36C90.0899 30.3152 89.304 30.3152 88.531 30.3983C87.7579 30.4877 86.9912 30.6091 86.2565 30.82C85.5154 31.0116 84.7935 31.28 84.0396 31.4333C83.6626 31.51 83.2793 31.5611 82.896 31.5611C82.5126 31.5611 82.1357 31.51 81.7651 31.4461C81.401 31.3822 81.0368 31.3119 80.679 31.2544C80.3212 31.2225 79.9635 31.1714 79.6057 31.1777C78.8901 31.1586 78.1937 31.28 77.5165 31.4269C76.8521 31.6186 76.194 31.8358 75.5998 32.1616C74.3859 32.7686 73.3573 33.6247 72.5076 34.5702C71.6515 35.5158 71.0126 36.5891 70.5718 37.6816C70.3482 38.2311 70.1373 38.7933 69.7796 39.2661C69.4218 39.7389 68.949 40.0775 68.5018 40.3841C68.0482 40.6908 67.6073 40.9847 67.2304 41.3361C66.8534 41.6811 66.5276 42.0644 66.2529 42.4669C65.7034 43.2719 65.3648 44.1472 65.2051 44.9905C65.039 45.8339 65.0901 46.6453 65.1412 47.3864C65.1923 48.1275 65.2434 48.8111 65.1732 49.4244C65.122 50.0378 64.9304 50.5681 64.694 50.9833C64.4576 51.3922 64.2084 51.7053 64.0295 51.9736C63.8507 52.2356 63.7293 52.4528 63.659 52.5997C63.5887 52.7467 63.5632 52.8297 63.5568 52.8233L63.5695 52.8361Z" fill="#455A64"/>
<path d="M93.7891 31.9317C93.7891 31.9317 93.5718 31.8103 93.1757 31.6187C92.7796 31.4334 92.1727 31.197 91.3868 31.114C90.6074 31.0245 89.6491 31.1012 88.7035 31.5292C87.7643 31.9509 86.8571 32.724 86.2757 33.7653C86.1096 34.0656 85.9691 34.3851 85.8796 34.6917C85.7966 34.9984 85.7838 35.3306 85.9435 35.5542L86.1479 35.829L85.8157 35.7395C84.9085 35.4903 83.9757 35.6692 83.2921 36.059C82.5957 36.4487 82.1549 37.0492 81.9185 37.5795C81.6757 38.1226 81.6182 38.6017 81.6118 38.9276C81.6054 39.2534 81.631 39.4323 81.6118 39.4387C81.6054 39.4387 81.5927 39.394 81.5735 39.3109C81.5543 39.2279 81.5352 39.1001 81.5288 38.9276C81.516 38.5954 81.5479 38.0906 81.7779 37.5156C82.0079 36.947 82.4552 36.3017 83.1899 35.8737C83.9118 35.4456 84.9021 35.2412 85.8796 35.5031L85.7518 35.6884C85.5218 35.369 85.5538 34.9601 85.6432 34.6215C85.7391 34.2765 85.886 33.957 86.0649 33.6376C86.6718 32.5451 87.6302 31.7465 88.6141 31.3184C89.6107 30.884 90.6138 30.8265 91.4124 30.9415C92.2174 31.0501 92.8307 31.3184 93.2205 31.5356C93.4185 31.6442 93.5655 31.7401 93.6549 31.8167C93.7507 31.887 93.7955 31.9317 93.7891 31.9381V31.9317Z" fill="#455A64"/>
<path d="M107.123 41.2083C107.123 41.2083 107.04 41.3297 106.842 41.5022C106.643 41.6747 106.343 41.9175 105.922 42.1539C105.5 42.3839 104.95 42.6139 104.292 42.6586C103.647 42.7033 102.874 42.5628 102.261 42.058L102.44 42.0261C102.363 42.1347 102.286 42.2497 102.203 42.3647C102.114 42.4733 102.018 42.5819 101.928 42.6905C101.334 43.3166 100.606 43.7511 99.8968 43.9747C99.1876 44.2111 98.5104 44.275 97.9482 44.2366C97.386 44.1983 96.9515 44.0642 96.6576 43.9555C96.3701 43.8278 96.2232 43.7447 96.2296 43.7319C96.2487 43.6808 96.8621 44.0258 97.9546 44.0641C98.4976 44.0833 99.1429 44.0003 99.8201 43.7639C100.491 43.5339 101.181 43.1186 101.75 42.5244C101.839 42.4222 101.928 42.32 102.012 42.2178C102.088 42.1091 102.165 42.0005 102.235 41.8983L102.312 41.7833L102.414 41.8664C102.963 42.32 103.673 42.4669 104.28 42.435C104.893 42.4094 105.43 42.2114 105.845 42.0069C106.675 41.5789 107.097 41.17 107.123 41.2083Z" fill="#455A64"/>
<path d="M111.505 48.76C111.505 48.76 111.505 48.8111 111.486 48.9134C111.461 49.0092 111.41 49.1498 111.307 49.3095C111.109 49.6289 110.669 50.025 109.998 50.1975C109.327 50.3764 108.49 50.2486 107.659 49.9611C107.244 49.8142 106.81 49.6673 106.362 49.4628C105.928 49.2584 105.462 48.9581 105.225 48.4406C105.206 48.3959 105.187 48.3511 105.174 48.3064L105.366 48.3639C104.586 48.9836 103.775 49.5267 102.951 49.8398C102.133 50.1656 101.309 50.2231 100.657 50.0953C99.999 49.9739 99.5135 49.7056 99.2388 49.4628C99.0982 49.3478 98.996 49.2392 98.9385 49.1625C98.881 49.0859 98.849 49.0411 98.8554 49.0411C98.8746 49.0284 99.0024 49.1817 99.2899 49.3925C99.5774 49.6034 100.05 49.8398 100.676 49.9292C101.302 50.025 102.075 49.9548 102.861 49.6353C103.647 49.3223 104.427 48.792 105.206 48.1786L105.334 48.0764L105.398 48.2361C105.41 48.2681 105.423 48.3064 105.442 48.3447C105.634 48.7664 106.049 49.0475 106.458 49.2456C106.873 49.4436 107.314 49.597 107.723 49.7439C108.535 50.0378 109.32 50.172 109.947 50.025C110.579 49.8845 111.007 49.5395 111.218 49.252C111.435 48.9645 111.467 48.7536 111.493 48.76H111.505Z" fill="#455A64"/>
<path d="M85.1129 65.3584C85.0618 66.157 85.6879 66.8598 86.5185 66.9301C87.349 67.0003 88.0646 66.4126 88.1221 65.6203C88.1732 64.8217 87.5471 64.1189 86.7165 64.0487C85.886 63.9784 85.164 64.5662 85.1129 65.3648V65.3584Z" fill="#263238"/>
<path d="M70.4631 64.9558C70.412 65.7544 71.0381 66.4572 71.8687 66.5275C72.6992 66.5977 73.4148 66.01 73.4723 65.2177C73.5234 64.4191 72.8973 63.7164 72.0667 63.6461C71.2362 63.5758 70.5142 64.1636 70.4631 64.9622V64.9558Z" fill="#263238"/>
<path d="M69.8626 59.9407C70.0415 60.1451 71.217 59.3337 72.8398 59.3912C74.4626 59.4232 75.6317 60.2985 75.817 60.1068C75.9065 60.0237 75.7276 59.6596 75.2229 59.2635C74.7245 58.8673 73.862 58.4776 72.8462 58.4457C71.8303 58.4201 70.9679 58.7651 70.4695 59.1293C69.9584 59.4998 69.7731 59.8448 69.8626 59.9407Z" fill="#263238"/>
<path d="M86.0393 60.752C86.2437 60.9373 87.3235 60.0109 88.9462 59.8959C90.569 59.7617 91.8149 60.5092 91.981 60.2984C92.0576 60.2026 91.8468 59.864 91.2974 59.519C90.7607 59.1804 89.8662 58.8737 88.8504 58.9504C87.841 59.027 87.0168 59.4615 86.5504 59.8767C86.0776 60.292 85.9371 60.6626 86.0329 60.7456L86.0393 60.752Z" fill="#263238"/>
<path d="M79.9762 72.9611C79.989 72.8717 78.9796 72.6609 77.3504 72.3989C76.9351 72.3414 76.5454 72.2456 76.4879 71.9645C76.3985 71.6642 76.5901 71.217 76.8073 70.7442C77.229 69.7539 77.6698 68.7125 78.1362 67.62C79.989 63.1733 81.3435 59.5061 81.1582 59.4358C80.9793 59.3656 79.331 62.9114 77.4846 67.3581C77.0373 68.457 76.6093 69.4984 76.2068 70.5014C76.0343 70.9678 75.7468 71.4981 75.9385 72.1242C76.0407 72.4373 76.341 72.6736 76.6029 72.7567C76.8648 72.8461 77.1012 72.8589 77.3057 72.8781C78.954 73.0186 79.9762 73.057 79.9826 72.9675L79.9762 72.9611Z" fill="#263238"/>
<path d="M82.4934 75.3762C83.1003 75.4592 83.7137 75.7787 84.0651 76.2898C84.4228 76.8009 84.6784 77.9956 84.327 78.4556C84.0267 78.8517 82.6851 78.8517 81.7587 78.7367C81.3306 78.6856 80.9728 78.3853 80.8323 77.9764L80.4681 76.9287C80.2573 76.3281 80.5703 75.6573 81.1773 75.472C81.5862 75.3442 82.0462 75.3187 82.4998 75.3825L82.4934 75.3762Z" fill="#FF9A6C"/>
<path d="M85.2982 54.8104C85.541 55.2129 87.0935 54.6954 89.0102 54.5612C90.9268 54.3823 92.5432 54.6379 92.7157 54.197C92.7924 53.9862 92.4474 53.6348 91.7574 53.3282C91.0674 53.0279 90.026 52.817 88.876 52.9065C87.726 53.0023 86.7293 53.3793 86.1032 53.7945C85.4707 54.2034 85.1896 54.6123 85.2982 54.8104Z" fill="#263238"/>
<path d="M70.265 57.2701C70.6037 57.6279 71.8942 57.2126 73.4531 57.1551C75.012 57.0465 76.3409 57.3276 76.6348 56.9315C76.7626 56.7398 76.5453 56.3756 75.9576 56.0434C75.3762 55.7112 74.4178 55.4492 73.3509 55.5067C72.2775 55.5642 71.3575 55.922 70.8273 56.3181C70.2842 56.7142 70.1181 57.0976 70.265 57.2765V57.2701Z" fill="#263238"/>
<path d="M126.315 124.813L110.969 180.48L116.355 196.433C96.0891 205.365 66.796 208.201 43.7001 197.014C43.7001 197.014 51.5456 174.002 51.8076 169.517C52.0759 165.038 50.1465 138.863 52.2804 130.084C54.4143 121.306 60.5284 102.497 60.5284 102.497L78.5068 99.6412C86.7485 104.069 92.0257 104.727 100.887 99.5964L117.632 103.251L126.315 124.813Z" fill="#455A64"/>
<path d="M60.8031 102.471C60.8031 102.471 51.1495 103.494 47.2651 111.435C43.4253 119.281 32.7686 153.992 32.1873 159.793C31.6059 165.594 36.3145 173.401 40.4162 174.474L52.8553 162.073L63.1734 162.993L76.7626 99.6028L60.8159 102.471H60.8031Z" fill="#455A64"/>
<g opacity="0.3">
<path d="M53.5134 123.798C50.5106 131.586 49.6609 140.185 51.0856 148.408C48.8175 147.564 46.5559 146.715 44.2878 145.871C46.1406 148.427 48.5748 150.561 51.3475 152.062C49.5139 151.532 47.6356 150.995 45.7317 151.123C43.8278 151.244 41.86 152.164 41.0039 153.87C43.2272 153.461 45.4889 153.059 47.7314 153.321C49.9739 153.583 52.2356 154.618 53.4431 156.528C51.7692 149.296 51.1239 141.827 51.5328 134.416" fill="black"/>
</g>
<g opacity="0.3">
<path d="M50.6959 171.535L101.353 176.557C97.699 176.48 94.8943 179.573 91.7318 181.4C85.8795 184.786 78.5898 183.84 71.907 182.786C66.3742 181.917 60.835 181.042 55.3023 180.173C53.9031 179.956 52.4145 179.688 51.3859 178.723C49.5395 176.985 50.0442 173.989 50.6959 171.535Z" fill="black"/>
</g>
<path d="M89.3872 167.37L97.8716 159.179C98.6958 158.387 99.8202 157.991 100.964 158.093C103.385 158.323 107.487 158.745 108.33 159.077C109.544 159.55 110.688 160.221 111.026 160.828C111.365 161.435 112.509 165.076 112.579 165.613C112.611 165.875 112.534 166.629 112.445 167.338C112.336 168.175 111.416 168.667 110.688 168.252C110.356 168.066 110.055 167.817 109.889 167.498C109.352 166.488 109.416 166.079 109.416 166.079C109.416 166.079 109.685 169.721 106.72 169.785C106.72 169.785 108.087 172.884 104.267 174.168C104.267 174.168 104.407 176.187 101.213 176.461C98.0186 176.73 95.1244 176.461 95.1244 176.461C95.1244 176.461 89.2913 180.652 85.1769 180.921C81.0624 181.189 71.8624 179.394 71.8624 179.394L70.7507 162.438L89.3999 167.357L89.3872 167.37Z" fill="#FFBF9D"/>
<path d="M100.881 162.176C100.881 162.176 101.385 162.425 102.242 162.744C103.091 163.064 104.28 163.485 105.621 163.843C106.286 164.035 106.957 164.137 107.519 164.29C108.087 164.444 108.426 164.865 108.675 165.236C108.924 165.613 109.116 165.932 109.289 166.124C109.455 166.322 109.576 166.405 109.582 166.392C109.595 166.38 109.499 166.277 109.359 166.066C109.212 165.862 109.046 165.536 108.809 165.146C108.688 164.948 108.547 164.738 108.349 164.54C108.151 164.341 107.883 164.182 107.583 164.086C106.989 163.913 106.35 163.805 105.679 163.613C104.344 163.255 103.155 162.859 102.293 162.578C101.43 162.297 100.894 162.131 100.881 162.163V162.176Z" fill="#FF9A6C"/>
<path d="M99.7882 167.376C99.7882 167.376 100.14 167.574 100.734 167.811C101.328 168.047 102.158 168.36 103.085 168.667C104.011 168.98 104.861 169.229 105.481 169.395C106.1 169.561 106.49 169.644 106.497 169.612C106.503 169.581 106.132 169.446 105.525 169.242C104.835 169.012 104.037 168.744 103.155 168.45C102.273 168.156 101.475 167.887 100.785 167.657C100.178 167.459 99.7946 167.344 99.7882 167.37V167.376Z" fill="#FF9A6C"/>
<path d="M97.6863 172.206C97.6799 172.276 99.1621 172.43 100.925 172.909C102.695 173.382 104.056 173.995 104.082 173.931C104.094 173.906 103.769 173.714 103.219 173.471C102.663 173.222 101.884 172.928 100.989 172.685C100.095 172.443 99.2708 172.308 98.6702 172.238C98.0696 172.174 97.6927 172.174 97.6927 172.2L97.6863 172.206Z" fill="#FF9A6C"/>
<path d="M78.0404 180.48L40.4098 174.474C40.4098 174.474 44.9331 155.602 51.5265 155.602C52.4912 155.602 85.9179 166.463 85.9179 166.463L78.034 180.486L78.0404 180.48Z" fill="#455A64"/>
<path d="M84.6274 172.264C84.6274 172.264 84.9788 171.97 85.5091 171.459C86.0904 170.89 86.7932 170.2 87.5663 169.44C88.3649 168.648 89.0805 167.913 89.5788 167.37C90.0771 166.827 90.371 166.469 90.3455 166.45C90.3199 166.431 89.9941 166.744 89.4638 167.255C88.8824 167.823 88.1796 168.513 87.4066 169.274C86.6079 170.066 85.8988 170.801 85.3941 171.344C84.8957 171.887 84.6018 172.245 84.6274 172.264Z" fill="#FF9A6C"/>
<path d="M85.9243 166.456C85.9243 166.456 85.7518 166.444 85.4451 166.367C85.0745 166.271 84.6337 166.15 84.1034 166.009C82.864 165.651 81.2092 165.179 79.2031 164.597C75.0695 163.383 69.3706 161.671 63.0839 159.748C59.602 158.675 56.3053 157.659 53.3792 156.752L53.3025 156.726L53.245 156.649C52.095 155.097 50.3956 154.151 48.8622 153.685C47.3033 153.212 45.8467 153.155 44.6647 153.257C43.4828 153.353 42.5692 153.615 41.9558 153.8C41.3425 153.998 41.0231 154.139 41.0103 154.113C40.9975 154.087 41.2978 153.902 41.8983 153.653C42.5053 153.417 43.4189 153.11 44.6328 152.969C45.8339 152.816 47.3417 152.835 48.9708 153.295C50.5872 153.768 52.357 154.675 53.6475 156.381L53.5134 156.279C56.4459 157.167 59.7489 158.17 63.2309 159.224C69.5176 161.147 75.1973 162.917 79.299 164.227C81.2859 164.872 82.9215 165.402 84.1545 165.798C84.672 165.977 85.1065 166.131 85.4643 166.252C85.7645 166.361 85.9179 166.431 85.9115 166.444L85.9243 166.456Z" fill="#263238"/>
<path d="M75.9512 106.126C76.2643 105.078 78.034 95.4118 78.7496 93.1629C79.7654 89.9876 88.0071 84.3206 88.0071 84.3206C88.0071 84.3206 86.7165 81.3434 83.2026 82.8895C79.0498 84.7231 76.9926 87.809 75.9448 87.1765C74.897 86.5503 68.374 79.9059 66.5915 80.1167C64.8154 80.3276 64.4192 82.1548 65.0517 82.8831C65.6779 83.6178 66.387 84.8253 66.387 84.8253C66.387 84.8253 62.6176 83.6945 63.3523 87.8154C63.3523 87.8154 59.059 85.1384 59.4806 90.7926C59.4806 90.7926 56.6567 89.6426 56.0242 91.6295C55.3981 93.6165 57.2573 95.9229 58.2028 97.4881C59.142 99.0598 62.2023 108.164 62.2023 108.164L62.2406 116.195L77.2482 113.109L75.9576 106.126H75.9512Z" fill="#FFBF9D"/>
<path d="M75.9512 106.126C75.9512 106.126 76.0023 106.286 76.0726 106.586C76.1429 106.925 76.2387 107.365 76.3537 107.934C76.5965 109.148 76.9351 110.879 77.3696 113.09L77.3951 113.211L77.2737 113.237C73.5682 114.016 68.4443 115.102 62.2854 116.399L62.0362 116.451V116.195C62.017 113.722 61.9979 111.02 61.9723 108.164L61.9851 108.234C60.9117 105.149 59.8001 101.826 58.4009 98.4657C57.7173 96.8494 56.2926 95.4438 55.7815 93.4824C55.6537 92.9969 55.5962 92.473 55.6792 91.9491C55.7559 91.4443 55.9987 90.8693 56.4906 90.5499C56.9698 90.2305 57.5448 90.1602 58.0623 90.1985C58.5862 90.2368 59.0845 90.3518 59.5829 90.5371L59.2187 90.8055C59.1995 90.256 59.174 89.6938 59.257 89.1124C59.3592 88.5502 59.487 87.9177 59.9726 87.4449C60.4454 86.9466 61.1865 86.8379 61.787 86.9466C62.4068 87.0488 62.9626 87.266 63.4993 87.5854L63.0904 87.8602C62.9881 87.0999 62.8604 86.1799 63.3715 85.3429C63.6909 84.8191 64.2851 84.5188 64.8345 84.4421C65.3968 84.3591 65.9334 84.4166 66.4701 84.5571L66.157 84.9532C65.7801 84.3271 65.3776 83.6946 64.9304 83.1388C64.6429 82.8513 64.4895 82.3465 64.5087 81.9377C64.5279 81.516 64.6748 81.1071 64.9176 80.7621C65.1604 80.4171 65.5054 80.1552 65.8887 80.0082C66.0804 79.9379 66.2784 79.8804 66.4765 79.8549C66.6682 79.8293 66.9365 79.8549 67.1281 79.9124C67.9012 80.1615 68.489 80.596 69.0832 81.0113C71.4215 82.7235 73.4276 84.6849 75.4529 86.4546C75.6957 86.6527 75.9896 86.9338 76.1684 86.9785C76.3473 87.036 76.654 86.8954 76.9096 86.7421C77.4462 86.4099 77.9573 85.9818 78.4684 85.5857C79.4907 84.7743 80.5512 84.0141 81.6629 83.3879C82.7682 82.8066 83.931 82.1613 85.2407 82.2124C86.5568 82.2379 87.6876 83.1132 88.2115 84.2185L88.2882 84.3782L88.1349 84.4868C84.9212 86.7677 82.0335 89.0166 79.9954 91.438C79.4843 92.0449 79.0882 92.6902 78.8646 93.3738C78.6537 94.0766 78.494 94.7793 78.3343 95.4502C78.0404 96.7919 77.7657 98.0313 77.5229 99.143C77.0501 101.347 76.6796 103.085 76.4176 104.312C76.2834 104.906 76.1812 105.359 76.0982 105.66C76.0215 105.96 75.9512 106.113 75.9512 106.113C75.9384 106.113 75.9768 105.954 76.0343 105.647C76.0982 105.308 76.1812 104.855 76.2898 104.286C76.5262 103.053 76.8521 101.309 77.2737 99.0919C77.5037 97.9674 77.7593 96.728 78.034 95.3799C78.1809 94.7027 78.3343 93.9999 78.5451 93.278C78.7751 92.5368 79.2032 91.8405 79.7143 91.2207C81.7843 88.7227 84.6593 86.4546 87.8857 84.129L87.809 84.3974C87.349 83.4518 86.3524 82.6852 85.2279 82.6724C84.0971 82.6213 82.9854 83.2218 81.9057 83.8032C80.826 84.4166 79.8037 85.1577 78.7879 85.9754C78.2704 86.378 77.7721 86.806 77.1779 87.1766C76.8776 87.3363 76.539 87.5727 76.0471 87.4705C75.5871 87.2979 75.4146 87.0552 75.1271 86.8379C73.0826 85.0554 71.0765 83.1068 68.7829 81.4393C68.2143 81.0368 67.6073 80.6215 66.9876 80.4235C66.8343 80.3915 66.7257 80.366 66.5659 80.3852C66.4062 80.4043 66.2465 80.4554 66.0995 80.5065C65.8056 80.6215 65.5437 80.8196 65.3648 81.0815C65.0006 81.5863 64.9112 82.3529 65.352 82.8002C65.8376 83.4007 66.2401 84.0268 66.6298 84.6849L66.9684 85.2535L66.3168 85.081C65.4415 84.8446 64.2915 84.8702 63.8315 85.6368C63.4481 86.2246 63.5248 87.0616 63.627 87.7643L63.7101 88.3266L63.2181 88.0391C62.7581 87.7707 62.2215 87.5599 61.7104 87.4768C61.1929 87.3874 60.6754 87.4768 60.3559 87.8218C59.6915 88.5374 59.7106 89.7513 59.7554 90.7607L59.7745 91.1696L59.3912 91.0291C58.5479 90.7224 57.4873 90.5371 56.8037 90.9843C56.4651 91.2016 56.2862 91.5977 56.2095 92.0321C56.1392 92.4602 56.184 92.9138 56.299 93.3482C56.529 94.2235 56.989 95.0413 57.4745 95.8271C57.9537 96.6066 58.5287 97.3796 58.8801 98.2613C60.2856 101.667 61.3781 104.976 62.4387 108.081L62.4515 108.119V108.158C62.4515 111.007 62.4579 113.716 62.4642 116.189L62.2151 115.984C68.3868 114.751 73.5234 113.722 77.2354 112.981L77.1396 113.128C76.7562 110.899 76.4496 109.154 76.2387 107.928C76.1493 107.359 76.0726 106.912 76.0215 106.58C75.9768 106.273 75.9576 106.12 75.9704 106.12L75.9512 106.126Z" fill="#FF9A6C"/>
<path d="M66.4062 84.9277C66.3678 84.9788 67.2112 85.7008 68.227 86.6272C69.2428 87.5472 70.0414 88.3266 70.0926 88.2819C70.1373 88.2436 69.4026 87.3875 68.3803 86.4611C67.3581 85.5283 66.4445 84.883 66.4062 84.9277Z" fill="#FF9A6C"/>
<path d="M63.0521 87.5917C63.0009 87.6173 63.3204 88.4287 63.9784 89.2656C64.6301 90.109 65.3393 90.6265 65.3712 90.5754C65.4159 90.5243 64.7898 89.9492 64.1573 89.1251C63.5184 88.3073 63.1159 87.5598 63.0521 87.5854V87.5917Z" fill="#FF9A6C"/>
<path d="M59.5445 90.5883C59.4934 90.6267 59.8448 91.2017 60.3303 91.8725C60.8159 92.5497 61.2503 93.0608 61.3014 93.0289C61.3525 92.9906 61.0012 92.4156 60.5156 91.7447C60.03 91.0675 59.5956 90.5564 59.5445 90.5883Z" fill="#FF9A6C"/>
<path d="M117.632 103.257L101.494 119.357L84.9404 140.16L78.3535 112.438L61.5315 115.895C61.5315 115.895 62.7198 147.207 67.8948 161.396C68.8787 164.099 71.7921 166.105 73.0954 166.725C81.2285 170.59 89.1699 164.61 89.1699 164.61C89.1699 164.61 123.101 141.834 126.781 126.59C128.519 119.389 127.823 110.828 124.865 107.308C122.264 104.209 117.639 103.251 117.639 103.251L117.632 103.257Z" fill="#455A64"/>
<path d="M126.781 126.596C126.781 126.596 126.743 126.762 126.654 127.088C126.545 127.407 126.462 127.906 126.2 128.513C125.772 129.758 124.897 131.509 123.536 133.605C122.169 135.7 120.284 138.122 117.888 140.747C115.486 143.36 112.604 146.203 109.257 149.168C105.922 152.139 102.133 155.244 97.9546 158.432C95.8655 160.023 93.6805 161.639 91.3932 163.255C90.8182 163.658 90.2432 164.06 89.6555 164.463C89.0805 164.859 88.4735 165.281 87.8474 165.632C86.5888 166.348 85.2407 166.948 83.816 167.389C80.9921 168.303 77.7977 168.488 74.8013 167.562C74.4179 167.472 74.0729 167.287 73.7024 167.153C73.3382 167.006 72.9676 166.872 72.6226 166.667C71.9262 166.284 71.281 165.817 70.6612 165.313C69.4474 164.29 68.3421 163.038 67.7479 161.492C66.6746 158.445 65.9015 155.257 65.2243 152.005C64.6046 148.74 64.036 145.418 63.6015 142.038C62.4132 133.017 61.7423 124.226 61.359 115.907V115.773L61.4868 115.748C67.3582 114.546 72.9868 113.39 78.3152 112.298L78.4557 112.266L78.4877 112.406C80.9729 122.935 83.1899 132.308 85.0363 140.134L84.8446 140.083C90.5243 133.969 95.086 129.062 98.2357 125.676C99.8074 123.996 101.028 122.692 101.858 121.804C102.267 121.37 102.58 121.038 102.804 120.808C103.015 120.584 103.13 120.475 103.13 120.475C103.13 120.475 103.027 120.597 102.823 120.827C102.612 121.063 102.305 121.402 101.903 121.843C101.079 122.743 99.8777 124.06 98.3252 125.753C95.1946 129.158 90.6585 134.084 85.0107 140.23L84.8638 140.39L84.8127 140.179C82.9471 132.359 80.7046 122.993 78.1938 112.47L78.3663 112.579C73.0379 113.678 67.4157 114.834 61.5443 116.048L61.6721 115.882C62.0618 124.194 62.739 132.978 63.921 141.98C64.349 145.36 64.9176 148.67 65.5374 151.928C66.2146 155.167 66.9812 158.349 68.0418 161.364C68.604 162.834 69.671 164.054 70.8529 165.051C71.4535 165.543 72.086 166.003 72.7568 166.373C73.0826 166.565 73.4532 166.693 73.8046 166.84C74.1624 166.967 74.5074 167.153 74.8779 167.242C77.804 168.149 80.9282 167.977 83.7074 167.082C85.1066 166.648 86.4354 166.06 87.6813 165.357C88.3074 165.006 88.876 164.61 89.4702 164.201C90.0516 163.799 90.633 163.396 91.2016 163C93.4888 161.39 95.6738 159.786 97.763 158.195C101.941 155.02 105.736 151.934 109.071 148.976C112.425 146.031 115.313 143.207 117.722 140.607C120.124 138 122.015 135.598 123.395 133.522C124.762 131.439 125.657 129.707 126.104 128.474C126.379 127.874 126.468 127.382 126.59 127.062C126.692 126.743 126.749 126.577 126.749 126.577L126.781 126.596Z" fill="#263238"/>
<path d="M88.0007 152.893C87.9432 152.88 88.1412 152.081 88.2435 150.765C88.3074 150.107 88.2946 149.321 88.2499 148.459C88.1796 147.59 88.0326 146.644 87.7835 145.673C87.2851 143.725 86.4482 142.089 85.7774 140.958C85.0937 139.834 84.5826 139.182 84.6274 139.15C84.6465 139.137 84.7871 139.284 85.0299 139.572C85.279 139.853 85.5985 140.287 85.9754 140.837C86.7101 141.949 87.5982 143.603 88.1093 145.59C88.3649 146.58 88.499 147.552 88.5565 148.44C88.5885 149.328 88.5693 150.126 88.4799 150.791C88.3968 151.455 88.2946 151.985 88.1924 152.343C88.0965 152.701 88.0262 152.899 88.0071 152.893H88.0007Z" fill="#263238"/>
<path d="M85.7006 77.4844C85.6687 77.5738 85.3237 77.5355 84.7934 77.4269C84.2631 77.3247 83.5476 77.1585 82.7617 77.101C81.9695 77.0372 81.2604 77.0947 80.7748 77.2224C80.2765 77.3374 80.0656 77.5419 79.9826 77.5099C79.9442 77.4908 79.9442 77.3822 80.0465 77.2352C80.1423 77.0883 80.3404 76.9222 80.6023 76.788C81.1326 76.5133 81.9504 76.3727 82.8129 76.443C83.6817 76.5133 84.4292 76.7624 84.934 76.986C85.4387 77.2097 85.7262 77.4077 85.7006 77.4908V77.4844Z" fill="#263238"/>
<g opacity="0.3">
<path d="M111.339 180.129C111.339 180.129 103.954 179.221 99.9799 178.608C97.8077 178.269 94.4982 177.924 93.8721 177.318C93.0927 176.564 93.099 175.305 93.016 174.225C91.604 155.793 97.9418 135.86 117.53 123.97L122.526 125.286L122.2 137.291L111.339 180.129Z" fill="black"/>
</g>
<path d="M226.8 36.4933C229.304 36.7169 231.828 34.8194 232.3 32.3469C232.773 29.8744 231.138 27.1783 228.729 26.4563C230.243 24.8272 230.569 22.2013 229.502 20.2527C228.429 18.2977 226.046 17.1669 223.854 17.5694C223.707 15.378 222.347 13.3016 220.392 12.2985C218.437 11.2955 215.958 11.4041 214.092 12.5669C211.613 10.5416 207.697 10.5608 205.237 12.6052C203.097 12.2602 200.797 13.4549 199.838 15.4035C198.887 17.3522 199.353 19.9013 200.937 21.3836" fill="#263238"/>
<path d="M204.253 17.697L205.384 17.6714C216.737 17.4095 226.384 25.9003 227.566 37.1959C228.659 47.6993 229.732 59.3207 229.796 64.9685C229.924 76.6602 218.277 78.7493 218.277 78.7493L219.593 92.773L191.201 92.5557L187.501 41.6809C186.173 29.5676 192.114 18.7 204.26 17.7034L204.253 17.697Z" fill="#FFBF9D"/>
<path d="M218.283 78.743C218.283 78.743 210.131 79.35 202.164 74.603C202.164 74.603 206.911 83.1258 218.552 81.8033L218.283 78.7494V78.743Z" fill="#FF9A6C"/>
<path d="M223.988 49.8779C224.04 50.7595 223.337 51.5262 222.417 51.6029C221.497 51.6732 220.711 51.0215 220.66 50.1398C220.609 49.2582 221.312 48.4851 222.225 48.4148C223.145 48.3445 223.931 49.0026 223.982 49.8779H223.988Z" fill="#263238"/>
<path d="M225.177 42.9715C224.972 43.1951 223.688 42.2879 221.893 42.3326C220.098 42.3518 218.801 43.3101 218.603 43.0929C218.507 42.997 218.705 42.6009 219.267 42.1665C219.823 41.7384 220.775 41.3104 221.899 41.2912C223.017 41.272 223.969 41.6618 224.519 42.0707C225.081 42.4795 225.279 42.8693 225.177 42.9715Z" fill="#263238"/>
<path d="M208.521 49.8779C208.572 50.7596 207.869 51.5263 206.949 51.5965C206.029 51.6668 205.243 51.0151 205.192 50.1335C205.141 49.2518 205.844 48.4787 206.764 48.4085C207.684 48.3382 208.47 48.9962 208.521 49.8715V49.8779Z" fill="#263238"/>
<path d="M207.531 43.719C207.326 43.9427 206.042 43.0354 204.247 43.0802C202.451 43.0993 201.155 44.0577 200.956 43.8404C200.861 43.7446 201.059 43.3485 201.627 42.914C202.183 42.486 203.135 42.0579 204.253 42.0388C205.371 42.0196 206.323 42.4093 206.873 42.8182C207.435 43.2271 207.633 43.6168 207.531 43.719Z" fill="#263238"/>
<path d="M214.36 56.8864C214.348 56.7842 215.459 56.567 217.267 56.2923C217.727 56.2348 218.155 56.1325 218.226 55.8195C218.328 55.4873 218.123 54.9953 217.887 54.465C217.427 53.3662 216.954 52.2098 216.45 51.0023C214.45 46.07 212.993 42.0131 213.191 41.9364C213.389 41.8597 215.172 45.7889 217.172 50.7211C217.651 51.935 218.117 53.0978 218.552 54.2031C218.737 54.7206 219.05 55.302 218.833 55.9984C218.718 56.3434 218.385 56.5989 218.092 56.6884C217.798 56.7842 217.542 56.797 217.312 56.8162C215.491 56.9567 214.367 56.9887 214.354 56.8928L214.36 56.8864Z" fill="#263238"/>
<path d="M207.908 40.0071C207.684 40.4671 206.131 40.0071 204.234 39.9943C202.336 39.9368 200.752 40.3265 200.567 39.8601C200.484 39.6365 200.816 39.2213 201.487 38.8379C202.158 38.4546 203.18 38.1543 204.317 38.1735C205.454 38.199 206.451 38.544 207.083 38.9529C207.722 39.3618 208.01 39.7899 207.914 40.0071H207.908Z" fill="#263238"/>
<path d="M225.094 35.5604C224.723 35.9757 223.235 35.5859 221.452 35.6115C219.67 35.5796 218.168 35.9629 217.81 35.5412C217.651 35.3368 217.881 34.9215 218.532 34.519C219.171 34.1165 220.251 33.7779 221.478 33.7843C222.704 33.7843 223.771 34.1357 224.404 34.5382C225.043 34.9407 225.26 35.3559 225.1 35.5604H225.094Z" fill="#263238"/>
<path d="M226.308 31.8612C226.308 31.8612 223.056 24.6098 219.484 22.987C215.165 21.0192 213.434 25.7534 209.332 24.7056C205.231 23.6642 201.11 21.7731 197.021 25.0187C192.549 28.5709 194.734 30.9412 194.574 36.129C193.922 57.1868 190.223 63.2179 188.901 53.3407C188.754 52.2609 185.725 51.4623 185.17 46.8879C184.454 40.959 184.058 33.7395 185.285 29.4909C186.32 25.9067 188.287 23.4023 191.865 20.6103C197.507 16.202 205.384 15.9273 210.751 16.3361C216.117 16.7514 226.582 22.6675 226.308 31.8484V31.8612Z" fill="#263238"/>
<path d="M189.635 53.0085C189.52 51.2068 187.93 49.8204 186.141 50.0312C183.968 50.2868 181.566 51.5837 181.815 56.0879C182.256 64.074 190.185 61.9849 190.185 61.7549C190.185 61.6015 189.853 56.3563 189.635 53.0149V53.0085Z" fill="#FFBF9D"/>
<path d="M188.281 58.8416C188.243 58.816 188.147 58.9438 187.917 59.0652C187.693 59.1802 187.303 59.276 186.875 59.1418C186.013 58.8799 185.227 57.5766 185.112 56.1391C185.055 55.4107 185.163 54.7143 185.393 54.1265C185.604 53.526 185.962 53.0979 186.377 53.0021C186.792 52.8807 187.112 53.1171 187.22 53.3407C187.342 53.5579 187.297 53.7177 187.342 53.7304C187.367 53.7496 187.508 53.5899 187.425 53.2577C187.38 53.0979 187.278 52.919 187.08 52.7721C186.882 52.6252 186.594 52.5613 186.3 52.6124C185.687 52.689 185.163 53.2832 184.914 53.9285C184.633 54.5802 184.486 55.366 184.556 56.1838C184.697 57.7874 185.604 59.2504 186.773 59.5188C187.342 59.6338 187.802 59.4421 188.032 59.2377C188.268 59.0268 188.3 58.8479 188.275 58.8352L188.281 58.8416Z" fill="#FF9A6C"/>
<path d="M189.431 37.5218C190.485 38.2055 191.597 38.9082 192.855 39.0041C194.108 39.0999 195.52 38.346 195.705 37.1002C195.788 36.5443 195.635 35.8991 195.992 35.4582C196.414 34.9343 197.225 35.0749 197.896 35.1324C200.228 35.3241 202.88 32.6918 203.423 30.4174C204.036 31.2927 205.339 31.5291 206.221 30.9285C207.103 30.3279 207.422 29.9893 208.106 29.1716C208.789 28.3538 209.754 27.6127 210.815 27.734C211.409 27.8043 211.971 28.1429 212.559 28.0791C213.607 27.9641 214.092 26.7182 214.226 25.6768C214.36 24.629 214.456 23.4152 215.332 22.8274C216.143 22.2843 217.216 22.559 218.187 22.6804C219.159 22.8018 220.398 22.5463 220.622 21.5943C220.743 21.096 220.513 20.5785 220.232 20.1504C218.941 18.221 216.207 17.416 214.073 18.336C213.23 15.7165 210.712 13.7168 207.965 13.4932C205.218 13.2696 202.413 14.8285 201.148 17.2818C199.423 15.7868 196.957 15.2054 194.74 15.7612C192.53 16.3235 190.632 18.0101 189.827 20.144C187.872 19.6776 185.674 20.4826 184.48 22.099C183.285 23.7154 183.163 26.0538 184.186 27.7852C182.767 28.6413 181.573 30.0979 181.579 31.7527C181.585 33.4074 183.24 35.0174 184.825 34.5446C184.211 35.848 184.773 37.5857 186.038 38.2757C187.303 38.9657 189.067 38.5057 189.833 37.2791" fill="#263238"/>
<path d="M214.731 20.6808C214.731 20.6808 214.737 20.7319 214.731 20.8278C214.725 20.9236 214.718 21.0705 214.693 21.2558C214.629 21.6264 214.495 22.1758 214.15 22.8083C213.805 23.4344 213.262 24.1564 212.425 24.7378C211.6 25.3255 210.47 25.7855 209.173 25.7472L209.307 25.5683C209.569 26.2455 209.524 27.0697 209.198 27.7789C208.892 28.5008 208.4 29.1461 207.876 29.7786C207.607 30.0789 207.377 30.4367 207 30.7178C206.636 30.9861 206.195 31.1522 205.742 31.2161C204.841 31.3503 203.819 31.0947 203.148 30.3536L203.442 30.2642C203.276 31.855 202.407 33.4714 200.995 34.4681C200.247 35.0367 199.315 35.3944 198.388 35.3881C197.462 35.4008 196.599 35.1517 195.788 34.8833L195.999 34.7811C195.59 35.7842 194.951 36.6467 194.165 37.292C193.392 37.9372 192.351 38.327 191.399 38.1161C189.501 37.7583 188.217 36.2186 187.93 34.7492L188.115 34.8322C187.188 35.3625 186.185 35.4392 185.38 35.2986C184.563 35.1708 183.911 34.8258 183.445 34.4872C182.978 34.1422 182.697 33.7781 182.531 33.5289C182.378 33.2669 182.307 33.1264 182.32 33.12C182.358 33.0881 182.601 33.7206 183.528 34.3722C183.988 34.6853 184.626 34.9919 185.412 35.1006C186.192 35.2156 187.144 35.1261 187.993 34.615L188.14 34.5256L188.179 34.6917C188.466 36.0653 189.706 37.5028 191.463 37.8095C192.325 37.9883 193.239 37.6433 193.973 37.0364C194.708 36.4295 195.321 35.5989 195.698 34.6533L195.756 34.5064L195.909 34.5575C196.708 34.8194 197.538 35.0558 198.395 35.0431C199.251 35.0431 200.088 34.7236 200.797 34.1869C202.132 33.2414 202.943 31.7336 203.11 30.2194L203.148 29.8425L203.403 30.13C203.972 30.7689 204.886 31.0117 205.697 30.8903C206.1 30.8328 206.496 30.6922 206.809 30.4558C207.115 30.2322 207.358 29.8808 207.633 29.5742C208.157 28.9544 208.636 28.3347 208.923 27.6639C209.23 26.9994 209.275 26.2775 209.051 25.6641L208.981 25.4725H209.179C210.399 25.5364 211.492 25.1147 212.297 24.5653C213.115 24.0158 213.658 23.3322 214.015 22.738C214.718 21.5114 214.673 20.668 214.731 20.6808Z" fill="#455A64"/>
<path d="M157.244 91.5145C157.244 91.5145 127.203 102.094 118.514 106.464C111.723 109.876 107.423 122.264 117.869 127.426C125.657 131.279 167.83 123.919 167.83 123.919L157.244 91.5081V91.5145Z" fill="#FFBF9D"/>
<path d="M248.956 196.702L172.628 193.814L169.862 219.797L166.802 271.918L205.767 272.084C205.787 271.861 210.629 242.785 210.629 242.785L212.834 242.21L212.629 272.084H249.148C251.065 247.365 252.164 226.595 252.228 224.647C252.758 209.205 248.963 196.708 248.963 196.708L248.956 196.702Z" fill="#263238"/>
<path d="M207.876 226.589C207.863 226.627 208.272 226.838 209.032 227.177C209.799 227.502 210.93 227.994 212.444 228.212C213.198 228.314 214.054 228.32 214.942 228.122C215.824 227.924 216.763 227.509 217.504 226.755C218.245 226.001 218.699 224.972 218.973 223.918C219.248 222.851 219.382 221.746 219.561 220.622C220.238 216.117 220.647 212.009 220.864 209.032C220.973 207.543 221.037 206.336 221.062 205.505C221.088 204.668 221.082 204.208 221.043 204.208C221.005 204.208 220.935 204.662 220.839 205.493C220.737 206.445 220.609 207.614 220.462 209C220.142 211.965 219.67 216.047 218.992 220.539C218.647 222.762 218.443 225.017 217.127 226.391C215.804 227.739 213.901 227.956 212.495 227.809C211.045 227.656 209.907 227.228 209.115 226.972C208.329 226.697 207.889 226.55 207.876 226.589Z" fill="#455A64"/>
<path d="M215.159 205.237C215.159 205.237 214.98 205.103 214.597 205.096C214.22 205.084 213.651 205.224 213.102 205.646C212.578 206.068 212.029 206.809 212.048 207.793C212.048 208.789 212.859 209.728 213.888 210.048C214.904 210.399 216.117 210.118 216.705 209.313C217.299 208.534 217.299 207.614 217.121 206.962C216.929 206.291 216.552 205.844 216.239 205.633C215.926 205.41 215.709 205.39 215.702 205.416C215.632 205.493 216.488 205.838 216.724 207.058C216.833 207.633 216.769 208.406 216.29 208.987C215.83 209.575 214.904 209.786 214.067 209.505C213.223 209.23 212.604 208.521 212.578 207.767C212.533 207.02 212.942 206.355 213.37 205.959C214.284 205.116 215.178 205.346 215.172 205.237H215.159Z" fill="#455A64"/>
<path d="M172.622 218.232C172.622 218.271 172.948 218.309 173.555 218.334C174.155 218.373 175.03 218.354 176.104 218.258C178.25 218.072 181.202 217.421 184.192 216.015C187.182 214.597 189.559 212.725 191.067 211.192C191.82 210.425 192.395 209.767 192.747 209.275C193.105 208.789 193.29 208.515 193.258 208.489C193.181 208.425 192.351 209.46 190.785 210.898C189.233 212.335 186.869 214.111 183.949 215.498C181.023 216.871 178.155 217.568 176.053 217.855C173.951 218.149 172.628 218.13 172.622 218.232Z" fill="#455A64"/>
<path d="M250.496 192.459C249.001 189.048 249.276 188.734 249.276 188.734L245.034 151.596L240.957 115.467L237.654 88.729L218.558 84.6401C218.558 84.6401 216.36 90.7287 207.128 90.914C196.497 91.1249 190.402 81.6182 190.402 81.6182L159.87 88.1732L171.35 166.923L172.724 188.134C172.724 188.134 170.443 191.565 170.443 195.251C170.443 198.938 170.296 201.385 170.296 201.385C198.637 209.173 226.761 215.913 252.636 208.374C252.636 208.374 251.991 195.858 250.496 192.453V192.459Z" fill="#455A64"/>
<path d="M230.684 87.3425C230.684 87.3425 241.692 88.5692 245.596 92.7156C249.499 96.862 261.983 117.37 261.983 117.37L243.852 142.172L235.45 130.71L230.684 87.3425Z" fill="#455A64"/>
<path d="M239.073 100.178C239.226 100.165 240.957 113.793 242.944 130.621C244.931 147.456 246.42 161.109 246.267 161.122C246.113 161.135 244.382 147.507 242.395 130.672C240.408 113.844 238.919 100.191 239.073 100.172V100.178Z" fill="#263238"/>
<path d="M159.863 88.1794L135.419 99.0278L144.261 123.778L167.83 127.51L159.863 88.1794Z" fill="#455A64"/>
<path d="M163.23 104.586C163.39 104.567 164.559 114.221 165.837 126.149C167.115 138.077 168.015 147.756 167.849 147.775C167.69 147.794 166.52 138.141 165.243 126.213C163.965 114.291 163.064 104.605 163.23 104.586Z" fill="#263238"/>
<g opacity="0.3">
<path d="M169.261 230.058C182.537 225.285 189.891 215.881 195.826 205.908C201.762 195.935 202.611 181.892 198.81 170.922C198.81 170.922 171.382 197.455 171.184 198.043C170.986 198.631 169.261 230.058 169.261 230.058Z" fill="black"/>
</g>
<g opacity="0.3">
<path d="M206.592 90.5753C206.266 93.2714 207.767 95.8653 209.614 97.8587C211.46 99.8456 213.696 101.468 215.376 103.602C217.299 106.03 218.398 108.995 219.465 111.901C221.701 117.971 223.931 124.047 226.167 130.116C228.09 135.342 230.039 140.626 233.093 145.29C236.14 149.954 240.44 154.011 245.743 155.717L241.718 121.51L220.475 87.3425L206.598 90.5817L206.592 90.5753Z" fill="black"/>
</g>
<path d="M228.608 90.8758C228.608 90.4478 228.946 74.6033 227.886 72.8783C226.825 71.1597 225.975 69.5433 225.758 67.9333C225.758 67.9333 226.34 66.9941 225.279 66.3999C224.225 65.8122 222.551 67.2497 222.513 69.7924C222.474 72.3352 222.768 76.6861 222.768 76.6861C222.768 76.6861 211.077 70.0544 207.876 69.8691C204.668 69.6838 199.864 69.0961 199.608 70.6422C199.353 72.1883 199.57 72.5588 201.244 73.1466C202.918 73.7344 205.576 74.1433 208.202 75.025C210.821 75.9066 212.022 76.5136 212.022 76.5136C212.022 76.5136 206.048 74.7566 204.739 76.5136C203.429 78.2705 203.608 79.855 204.445 80.7047C204.445 80.7047 202.662 81.4394 202.841 83.3944C203.02 85.3494 203.895 85.8286 203.895 85.8286C203.895 85.8286 202.145 87.1575 202.988 88.8505C203.825 90.5436 205.793 89.4767 207.652 91.3933C209.511 93.31 214.13 97.8078 215.919 98.8044C217.702 99.8011 221.784 100.204 221.784 100.204L228.601 90.8758H228.608Z" fill="#FFBF9D"/>
<path d="M228.608 90.8757C228.608 90.8757 228.576 90.9332 228.506 91.0354C228.422 91.1504 228.314 91.3038 228.173 91.5082C227.867 91.9299 227.432 92.5432 226.864 93.3354C225.701 94.9454 224.008 97.2838 221.861 100.248L221.829 100.287H221.778C220.973 100.197 220.13 100.076 219.254 99.916C218.379 99.7499 217.472 99.5455 216.565 99.2068C216.105 99.0407 215.664 98.7916 215.261 98.4977C214.846 98.2102 214.456 97.8907 214.054 97.5649C213.262 96.9068 212.463 96.1977 211.658 95.4502C210.853 94.7091 210.035 93.9296 209.205 93.1182C208.796 92.7093 208.374 92.2941 207.952 91.8788C207.537 91.4443 207.128 91.0291 206.604 90.7416C206.093 90.4413 205.505 90.3007 204.899 90.1666C204.311 90.0324 203.595 89.8918 203.154 89.336C202.72 88.8185 202.535 88.0838 202.701 87.4065C202.873 86.7293 203.295 86.1671 203.825 85.7199L203.844 85.9499C203.384 85.6304 203.154 85.164 202.976 84.6849C202.809 84.1993 202.72 83.6946 202.701 83.1643C202.682 82.6276 202.841 82.0846 203.148 81.6246C203.461 81.171 203.883 80.8132 204.394 80.5704L204.349 80.8068C203.602 80.0593 203.487 78.8646 203.832 77.9126C203.991 77.4271 204.24 76.9671 204.541 76.5518C204.675 76.341 204.892 76.1174 205.129 75.996C205.365 75.8618 205.62 75.7787 205.876 75.7149C206.911 75.4976 207.952 75.5871 208.987 75.7149C210.022 75.8618 211.045 76.079 212.067 76.3665L211.958 76.6476C210.425 75.9449 208.764 75.3443 207.071 74.8332C205.371 74.3285 203.595 73.9962 201.825 73.4915C201.193 73.2935 200.56 73.1082 199.973 72.7312C199.679 72.5396 199.436 72.201 199.391 71.8368C199.34 71.479 199.379 71.1468 199.423 70.821C199.449 70.674 199.462 70.4696 199.57 70.2971C199.672 70.131 199.819 70.0096 199.973 69.9137C200.279 69.7348 200.605 69.6518 200.931 69.5879C201.583 69.4665 202.228 69.4473 202.867 69.441C204.151 69.441 205.41 69.5432 206.655 69.6262C207.282 69.6773 207.889 69.6837 208.527 69.8051C208.834 69.8754 209.134 69.9648 209.435 70.0479L210.31 70.3546C212.61 71.2298 214.763 72.2904 216.839 73.3382C218.916 74.3987 220.909 75.4721 222.826 76.5518L222.621 76.6796C222.481 74.1687 222.327 71.7665 222.391 69.441C222.481 68.2846 222.922 67.0898 223.886 66.419C224.129 66.2593 224.41 66.1507 224.711 66.1379C225.011 66.1187 225.311 66.2465 225.535 66.419C225.765 66.5915 225.956 66.8471 226.001 67.1409C226.052 67.4348 225.982 67.7223 225.841 67.9779L225.861 67.9012C226.11 69.671 226.998 71.1979 227.822 72.5843C227.924 72.7504 228.046 72.9421 228.103 73.1465C228.173 73.3446 228.205 73.5426 228.25 73.7407C228.32 74.1368 228.371 74.5265 228.41 74.9099C228.493 75.6765 228.537 76.424 228.576 77.1396C228.716 80.021 228.71 82.5063 228.71 84.5379C228.704 86.5696 228.678 88.154 228.652 89.2274C228.64 89.7577 228.627 90.1602 228.621 90.4477C228.608 90.7224 228.595 90.8629 228.595 90.8629C228.595 90.8629 228.582 90.7224 228.582 90.4477C228.582 90.1602 228.582 89.7513 228.582 89.2274C228.582 88.1413 228.582 86.5632 228.582 84.5443C228.563 82.5126 228.544 80.0274 228.391 77.1587C228.346 76.4432 228.295 75.7021 228.212 74.9418C228.173 74.5585 228.116 74.1751 228.046 73.7918C227.962 73.3957 227.886 73.0443 227.643 72.7057C226.806 71.3129 225.905 69.7796 225.631 67.946V67.9076L225.65 67.8693C225.758 67.6712 225.816 67.4221 225.777 67.1921C225.739 66.9621 225.592 66.764 225.394 66.6171C225.004 66.2912 224.455 66.3423 224.027 66.6298C223.158 67.2304 222.73 68.3612 222.653 69.4665C222.596 71.7474 222.749 74.1687 222.902 76.6668L222.915 76.916L222.698 76.7946C220.788 75.7212 218.794 74.6543 216.718 73.6001C214.642 72.5523 212.489 71.4982 210.214 70.6357L209.352 70.3354C209.058 70.2587 208.764 70.1693 208.47 70.099C207.895 69.984 207.256 69.9712 206.636 69.9265C205.39 69.8435 204.132 69.7476 202.867 69.7476C202.234 69.7476 201.602 69.7732 200.989 69.8882C200.401 70.0096 199.711 70.2204 199.73 70.8657C199.685 71.1787 199.653 71.4982 199.698 71.7857C199.743 72.0796 199.902 72.3096 200.152 72.4757C200.663 72.8079 201.308 72.9996 201.921 73.1912C203.665 73.6832 205.448 74.0218 207.167 74.5329C208.879 75.0568 210.527 75.6446 212.099 76.3729L211.99 76.654C210.987 76.3729 209.971 76.1557 208.956 76.0087C207.946 75.8746 206.911 75.7915 205.953 75.996C205.48 76.111 205.033 76.3026 204.79 76.7115C204.509 77.1076 204.272 77.5421 204.119 77.9957C203.8 78.8901 203.908 79.9443 204.56 80.596L204.707 80.7429L204.515 80.8324C204.074 81.0368 203.665 81.3754 203.391 81.7779C203.116 82.1868 202.975 82.666 202.988 83.1515C203.001 83.6371 203.09 84.1354 203.244 84.5827C203.397 85.0235 203.646 85.4707 203.979 85.7007L204.138 85.8093L203.991 85.9307C203.512 86.3268 203.11 86.8699 202.963 87.4577C202.816 88.0454 202.982 88.6971 203.359 89.1507C203.729 89.6235 204.362 89.7641 204.956 89.8982C205.563 90.0324 206.189 90.1857 206.732 90.5052C207.282 90.8054 207.729 91.2654 208.131 91.6871C208.553 92.1088 208.968 92.5241 209.377 92.9329C210.201 93.7443 211.013 94.5238 211.818 95.2713C212.623 96.0188 213.409 96.7279 214.194 97.386C214.993 98.0249 215.753 98.6893 216.641 99.0088C217.529 99.3474 218.43 99.5582 219.293 99.7243C220.162 99.8905 220.999 100.018 221.797 100.108L221.721 100.14C223.893 97.2007 225.605 94.888 226.781 93.2907C227.368 92.5049 227.816 91.9043 228.129 91.4827C228.282 91.2846 228.397 91.1313 228.48 91.0227C228.563 90.9204 228.608 90.8693 228.608 90.8693V90.8757Z" fill="#FF9A6C"/>
<path d="M266.488 127.867C265.318 125.638 262.68 120.987 261.408 118.144L253.052 121.178C253.052 121.178 229.381 89.2083 228.627 89.2083C227.873 89.2083 217.593 98.7405 217.593 98.7405C218.047 99.1941 239.36 148.037 247.519 153.327C255.678 158.617 261.766 161.978 266.149 154.42C270.532 146.862 271.624 137.694 266.488 127.867Z" fill="#FFBF9D"/>
<path d="M263.76 135.528C263.76 135.528 263.6 135.317 263.37 134.908C263.14 134.499 262.795 133.911 262.36 133.196C261.491 131.758 260.201 129.822 258.642 127.791C257.077 125.759 255.563 123.996 254.457 122.724C253.94 122.124 253.499 121.619 253.148 121.217C252.841 120.859 252.681 120.654 252.694 120.642C252.707 120.629 252.898 120.801 253.237 121.14C253.569 121.472 254.042 121.964 254.617 122.584C255.761 123.817 257.313 125.561 258.878 127.605C260.45 129.65 261.715 131.611 262.539 133.087C262.955 133.822 263.268 134.429 263.472 134.857C263.676 135.285 263.779 135.521 263.76 135.534V135.528Z" fill="#FF9A6C"/>
<path d="M215.613 64.3298C215.402 64.4895 214.52 63.5759 213.121 63.0903C211.735 62.5664 210.476 62.6942 210.412 62.4387C210.387 62.3237 210.687 62.1192 211.243 62.017C211.799 61.9084 212.61 61.9339 213.428 62.2342C214.245 62.5345 214.884 63.0392 215.242 63.4737C215.6 63.9145 215.702 64.2659 215.606 64.3362L215.613 64.3298Z" fill="#263238"/>
<path d="M236.977 192.242C236.977 192.242 236.881 192.312 236.683 192.414C236.485 192.51 236.198 192.683 235.808 192.836C235.029 193.168 233.859 193.552 232.358 193.762C230.857 193.973 229.042 193.992 227.055 193.737C225.068 193.488 222.928 192.983 220.724 192.325C216.322 190.977 212.431 189.507 209.639 188.364C208.246 187.795 207.128 187.303 206.362 186.958C206.004 186.792 205.716 186.658 205.48 186.549C205.282 186.454 205.18 186.396 205.18 186.39C205.18 186.377 205.295 186.415 205.499 186.498C205.735 186.594 206.036 186.709 206.4 186.856C207.218 187.182 208.342 187.629 209.709 188.172C212.514 189.258 216.411 190.702 220.8 192.037C222.992 192.695 225.119 193.2 227.081 193.469C229.042 193.737 230.837 193.737 232.32 193.558C233.802 193.379 234.971 193.028 235.757 192.734C236.536 192.427 236.958 192.223 236.971 192.248L236.977 192.242Z" fill="#263238"/>
<path d="M179.17 131.285C168.501 124.098 155.813 121.53 147.494 121.523C139.706 121.523 128.238 122.737 117.856 128.583C111.41 132.212 106.267 137.176 102.561 143.335C98.1783 150.631 95.8016 159.652 95.5013 170.162C95.4566 171.74 96.038 173.229 97.1369 174.366C98.2421 175.503 99.7244 176.136 101.315 176.136L121.741 176.148C124.622 176.148 127.101 174.002 127.51 171.152C128.417 164.744 132.231 153.966 147.513 153.71C159.167 153.525 163.958 161.952 165.479 165.587C167.958 171.504 167.325 178.519 163.779 184.345C158.336 193.303 148.338 194.67 142.862 194.683C136.563 194.702 131.439 199.813 131.432 206.074L131.42 228.052C131.42 231.259 134.026 233.872 137.24 233.878L157.141 233.891C160.349 233.891 162.962 231.285 162.968 228.071V223.452C162.968 223.343 163.038 223.247 163.147 223.209C167.658 221.631 176.398 217.817 184.275 209.99C194.331 200.004 199.436 187.118 199.442 171.676C199.455 149.577 188.428 137.508 179.17 131.273V131.285Z" fill="#F48C00"/>
<path d="M148.178 239.43H146.434C138.109 239.424 131.337 246.19 131.33 254.515C131.33 262.839 138.09 269.612 146.414 269.618H148.159C156.483 269.624 163.256 262.859 163.262 254.534C163.262 246.209 156.502 239.437 148.178 239.43Z" fill="#F48C00"/>
<g opacity="0.3">
<path d="M198.676 157.569C198.407 155.32 197.82 153.167 196.995 151.097C193.009 141.156 183.662 134.378 173.018 133.17L121.657 127.331C127.241 133.036 134.531 134.173 142.262 136.179C149.992 138.185 158.311 141.188 166.124 142.849C168.629 143.379 171.223 144.05 173.171 145.711C175.075 147.334 176.136 149.704 177.139 151.998C178.621 155.391 180.11 158.79 181.592 162.182C183.285 166.06 185.54 170.436 190.108 170.686C191.948 170.788 193.756 170.098 195.155 168.897C198.458 166.06 199.161 161.645 198.676 157.582V157.569Z" fill="black"/>
</g>
<path d="M197.941 143.814C197.545 143.118 189.738 133.573 185.86 129.873C183.355 127.484 179.579 125.836 177.209 124.967C177.209 124.967 138.128 110.854 135.419 109.48L117.869 127.439C123.977 129.139 165.466 139.124 175.701 141.373C177.49 143.463 179.292 145.175 179.292 145.175L182.269 152.164C182.269 152.164 182.614 154.707 182.397 157.435C182.18 160.163 184.397 159.103 184.397 159.103C184.397 159.103 184.294 160.796 184.435 163.243C184.435 163.268 184.435 163.294 184.435 163.313C184.582 165.14 187.208 165.364 187.763 163.62L189.782 157.32C189.782 157.32 189.52 163.057 189.412 166.245C189.393 166.827 189.495 167.3 189.674 167.689C190.447 169.382 192.964 169.063 193.392 167.255L195.756 157.288L194.989 151.18L196.97 156.758C196.97 156.758 197.519 159.741 197.404 163.926C197.36 165.6 197.928 166.316 198.618 166.565C199.781 166.986 201.008 166.06 201.11 164.827L201.864 155.589C201.864 155.589 198.337 144.51 197.941 143.814Z" fill="#FFBF9D"/>
<path d="M132.896 108.777C132.915 108.707 134.02 108.879 135.771 109.365C137.521 109.844 139.891 110.662 142.453 111.678C145.015 112.7 147.309 113.678 148.97 114.387C150.631 115.096 151.653 115.537 151.622 115.62C151.596 115.696 150.516 115.39 148.817 114.776C147.111 114.169 144.792 113.249 142.236 112.227C139.681 111.211 137.355 110.343 135.649 109.761C133.95 109.18 132.876 108.86 132.902 108.771L132.896 108.777Z" fill="#FF9A6C"/>
<rect x="1" y="88" width="300" height="186" fill="url(#paint0_linear_52_642)"/>
</g>
<defs>
<linearGradient id="paint0_linear_52_642" x1="142" y1="195.658" x2="142" y2="266.924" gradientUnits="userSpaceOnUse">
<stop stop-color="#3FA2F7" stop-opacity="0"/>
<stop offset="1" stop-color="#03A2FF"/>
</linearGradient>
<clipPath id="clip0_52_642">
<rect width="301.984" height="280" fill="white"/>
</clipPath>
</defs>
</svg>
