<svg width="270" height="250" viewBox="0 0 270 250" fill="none" xmlns="http://www.w3.org/2000/svg">
<mask id="mask0_54_973" style="mask-type:luminance" maskUnits="userSpaceOnUse" x="0" y="0" width="270" height="250">
<path d="M269.749 0H0V250H269.749V0Z" fill="white"/>
</mask>
<g mask="url(#mask0_54_973)">
<path d="M258.224 121.765L242.121 46.0784C242.097 45.9532 242.058 45.828 242.035 45.7028C237.919 27.2292 219.68 15.4768 201.12 19.4204L198.961 19.882L198.444 18.6614C196.911 15.0308 192.842 13.2625 189.172 14.5379C189.016 14.5927 188.867 14.6396 188.711 14.7022C185.401 16.095 183.633 19.6082 184.313 22.9962L179.713 23.9742L179.165 22.6832C177.631 19.0526 173.563 17.2843 169.893 18.5597C169.736 18.6144 169.588 18.6614 169.431 18.724C166.098 20.1324 164.33 23.6847 165.05 27.0962L160.222 28.1212L159.643 26.7519C158.109 23.1213 154.041 21.353 150.371 22.6284C150.214 22.6832 150.066 22.7301 149.909 22.7927C146.553 24.209 144.784 27.8082 145.543 31.2432L140.723 32.2682L140.113 30.8285C138.579 27.1979 134.511 25.4296 130.841 26.705C130.684 26.7597 130.536 26.8067 130.379 26.8693C126.999 28.2933 125.231 31.9317 126.037 35.3901L121.233 36.4151L120.591 34.8972C119.057 31.2666 114.989 29.4983 111.319 30.7737C111.162 30.8285 111.014 30.8754 110.857 30.938C107.446 32.3777 105.685 36.0552 106.538 39.5371L101.742 40.5543L101.069 38.9581C99.5352 35.3275 95.4665 33.5592 91.7968 34.8346C91.6403 34.8894 91.4916 34.9363 91.3352 34.9989C87.9002 36.4464 86.1319 40.1709 87.0317 43.6762L82.2509 44.6934L81.5467 43.0268C80.0131 39.3963 75.9444 37.6279 72.2747 38.9033C72.1182 38.9581 71.9696 39.005 71.8131 39.0676C68.3547 40.5308 66.5863 44.3022 67.5331 47.8232L65.1466 48.3318C46.587 52.2832 34.7172 70.436 38.473 88.9878C38.4964 89.113 38.5199 89.2382 38.5434 89.3712L54.6462 165.057C59.1374 186.16 77.9084 200.049 96.5776 196.074L232.551 167.147C251.221 163.172 262.715 142.852 258.224 121.749V121.765Z" fill="#BBD0DB"/>
<path d="M195.354 15.3986L59.38 44.3258C40.8203 48.2771 28.9506 66.4299 32.7064 84.9818L236.268 41.6811C232.152 23.2075 213.914 11.4551 195.354 15.3986Z" fill="#F48F00"/>
<path d="M84.3793 192.341C67.9088 192.341 53.1439 179.141 49.2787 160.965L33.1837 85.2946L235.963 42.1582L252.058 117.829C256.494 138.681 245.118 158.829 226.699 162.749L90.7249 191.676C88.6358 192.122 86.5075 192.349 84.3793 192.349V192.341Z" fill="white"/>
<path d="M235.65 42.6433L251.659 117.915C256.048 138.548 244.812 158.477 226.613 162.35L90.6389 191.277C88.581 191.715 86.4763 191.934 84.3793 191.934C68.0966 191.934 53.5039 178.875 49.6777 160.879L33.6688 85.6076L235.65 42.6355M236.268 41.6731L32.7064 84.9738C32.7299 85.099 32.7534 85.2242 32.7768 85.3572L48.8796 161.043C52.8545 179.713 68.0105 192.74 84.3793 192.74C86.5076 192.74 88.6593 192.521 90.811 192.06L226.785 163.133C245.454 159.158 256.948 138.837 252.457 117.735L236.354 42.0487C236.331 41.9235 236.292 41.7983 236.268 41.6731Z" fill="#BBD0DB"/>
<path d="M81.7973 81.1243C84.0585 81.1243 86.0381 82.7283 86.5076 84.9426L88.1507 92.6576C88.7063 95.2631 87.0397 97.8296 84.4341 98.3773L76.7192 100.02C76.3827 100.091 76.0463 100.13 75.7098 100.13C73.4485 100.13 71.4689 98.5259 70.9995 96.3116L69.3563 88.5967C69.0903 87.3369 69.325 86.0459 70.0292 84.9661C70.7334 83.8863 71.8132 83.143 73.0729 82.877L80.7879 81.2338C81.1243 81.1634 81.4608 81.1243 81.7973 81.1243ZM81.7973 80.3105C81.406 80.3105 81.0148 80.3497 80.6158 80.4357L72.9008 82.0789C69.8571 82.7283 67.9088 85.7173 68.5582 88.7688L70.2014 96.4837C70.7647 99.1362 73.1043 100.952 75.7098 100.952C76.101 100.952 76.4922 100.912 76.8913 100.826L84.6062 99.1832C87.65 98.5338 89.5983 95.5448 88.9488 92.4933L87.3057 84.7783C86.7423 82.1258 84.4028 80.3105 81.7973 80.3105Z" fill="#BBD0DB"/>
<path d="M105.693 76.0384C107.954 76.0384 109.934 77.6424 110.403 79.8567L112.047 87.5716C112.602 90.1772 110.936 92.7436 108.33 93.2913L100.615 94.9345C100.279 95.0049 99.9421 95.044 99.6057 95.044C97.3444 95.044 95.3648 93.44 94.8953 91.2257L93.2522 83.5107C92.9862 82.251 93.2209 80.96 93.9251 79.8802C94.6293 78.8004 95.7091 78.0571 96.9688 77.791L104.684 76.1479C105.02 76.0775 105.357 76.0384 105.693 76.0384ZM105.693 75.2246C105.302 75.2246 104.911 75.2637 104.512 75.3498L96.7967 76.9929C93.753 77.6424 91.8047 80.6313 92.4541 83.6829L94.0972 91.3978C94.6606 94.0503 97.0001 95.8656 99.6057 95.8656C99.9969 95.8656 100.388 95.8265 100.787 95.7404L108.502 94.0973C111.546 93.4478 113.494 90.4589 112.845 87.4073L111.202 79.6924C110.638 77.0399 108.299 75.2246 105.693 75.2246Z" fill="#BBD0DB"/>
<path d="M129.597 70.9605C131.858 70.9605 133.838 72.5645 134.307 74.7788L135.95 82.4938C136.216 83.7535 135.982 85.0445 135.277 86.1243C134.573 87.2041 133.494 87.9474 132.234 88.2135L124.519 89.8566C124.182 89.927 123.846 89.9661 123.509 89.9661C121.248 89.9661 119.269 88.3621 118.799 86.1478L117.156 78.4329C116.6 75.8273 118.267 73.2609 120.873 72.7132L128.588 71.07C128.924 70.9996 129.26 70.9605 129.597 70.9605ZM129.597 70.1467C129.206 70.1467 128.814 70.1859 128.415 70.2719L120.701 71.9151C117.657 72.5645 115.708 75.5534 116.358 78.605L118.001 86.3199C118.564 88.9724 120.904 90.7877 123.509 90.7877C123.901 90.7877 124.292 90.7486 124.691 90.6625L132.406 89.0194C135.45 88.37 137.398 85.381 136.749 82.3295L135.105 74.6145C134.542 71.962 132.202 70.1467 129.597 70.1467Z" fill="#BBD0DB"/>
<path d="M153.493 65.8745C155.754 65.8745 157.734 67.4786 158.203 69.6929L159.846 77.4078C160.112 78.6676 159.878 79.9586 159.173 81.0384C158.469 82.1182 157.39 82.8615 156.13 83.1275L148.415 84.7707C148.078 84.8411 147.742 84.8802 147.405 84.8802C145.144 84.8802 143.165 83.2762 142.695 81.0619L141.052 73.3469C140.786 72.0872 141.021 70.7961 141.725 69.7164C142.429 68.6366 143.509 67.8933 144.769 67.6272L152.484 65.9841C152.82 65.9137 153.156 65.8745 153.493 65.8745ZM153.493 65.0608C153.102 65.0608 152.71 65.0999 152.311 65.186L144.596 66.8291C141.553 67.4786 139.604 70.4675 140.254 73.5191L141.897 81.234C142.46 83.8865 144.8 85.7018 147.405 85.7018C147.797 85.7018 148.188 85.6627 148.587 85.5766L156.302 83.9334C159.346 83.284 161.294 80.2951 160.644 77.2435L159.001 69.5286C158.438 66.8761 156.098 65.0608 153.493 65.0608Z" fill="#BBD0DB"/>
<path d="M177.389 60.7886C179.65 60.7886 181.63 62.3926 182.099 64.6069L183.742 72.3219C184.008 73.5816 183.774 74.8727 183.069 75.9524C182.365 77.0322 181.285 77.7756 180.026 78.0416L172.311 79.6847C171.974 79.7551 171.638 79.7943 171.301 79.7943C169.04 79.7943 167.06 78.1902 166.591 75.9759L164.948 68.261C164.682 67.0012 164.917 65.7102 165.621 64.6304C166.325 63.5506 167.405 62.8073 168.665 62.5413L176.379 60.8981C176.716 60.8277 177.052 60.7886 177.389 60.7886ZM177.389 59.9749C176.998 59.9749 176.606 60.014 176.207 60.1L168.492 61.7432C165.449 62.3926 163.5 65.3816 164.15 68.4331L165.793 76.1481C166.356 78.8006 168.696 80.6158 171.301 80.6158C171.693 80.6158 172.084 80.5767 172.483 80.4906L180.198 78.8475C183.242 78.1981 185.19 75.2091 184.54 72.1576L182.897 64.4426C182.334 61.7901 179.994 59.9749 177.389 59.9749Z" fill="#BBD0DB"/>
<path d="M201.293 55.7027C203.554 55.7027 205.533 57.3067 206.003 59.521L207.646 67.2359C208.202 69.8415 206.535 72.4079 203.929 72.9557L196.215 74.5988C195.878 74.6692 195.542 74.7083 195.205 74.7083C192.944 74.7083 190.964 73.1043 190.495 70.89L188.852 63.1751C188.586 61.9153 188.82 60.6243 189.525 59.5445C190.229 58.4647 191.309 57.7214 192.568 57.4553L200.283 55.8122C200.62 55.7418 200.956 55.7027 201.293 55.7027ZM201.293 54.8889C200.901 54.8889 200.51 54.928 200.111 55.0141L192.396 56.6573C189.352 57.3067 187.404 60.2956 188.054 63.3472L189.697 71.0621C190.26 73.7146 192.6 75.5299 195.205 75.5299C195.596 75.5299 195.988 75.4908 196.387 75.4047L204.102 73.7616C207.145 73.1121 209.094 70.1232 208.444 67.0716L206.801 59.3567C206.238 56.7042 203.898 54.8889 201.293 54.8889Z" fill="#BBD0DB"/>
<path d="M225.189 50.6245C227.45 50.6245 229.429 52.2286 229.899 54.4429L231.542 62.1578C231.808 63.4176 231.573 64.7086 230.869 65.7884C230.165 66.8682 229.085 67.6115 227.825 67.8775L220.111 69.5206C219.774 69.5911 219.438 69.6302 219.101 69.6302C216.84 69.6302 214.86 68.0262 214.391 65.8119L212.748 58.0969C212.192 55.4914 213.859 52.9249 216.464 52.3772L224.179 50.7341C224.516 50.6637 224.852 50.6245 225.189 50.6245ZM225.189 49.8108C224.797 49.8108 224.406 49.8499 224.007 49.936L216.292 51.5791C213.248 52.2286 211.3 55.2175 211.95 58.2691L213.593 65.984C214.156 68.6365 216.496 70.4518 219.101 70.4518C219.492 70.4518 219.884 70.4126 220.283 70.3266L227.998 68.6834C231.041 68.034 232.99 65.045 232.34 61.9935L230.697 54.2786C230.134 51.6261 227.794 49.8108 225.189 49.8108Z" fill="#BBD0DB"/>
<path d="M57.9013 86.2102C60.1625 86.2102 62.1421 87.8142 62.6116 90.0286L64.2547 97.7435C64.5208 99.0033 64.286 100.294 63.5818 101.374C62.8776 102.454 61.7978 103.197 60.5381 103.463L52.8232 105.106C52.4867 105.177 52.1503 105.216 51.8138 105.216C49.5525 105.216 47.5729 103.612 47.1035 101.398L45.4603 93.6826C44.9048 91.0771 46.5714 88.5106 49.177 87.9629L56.8919 86.3198C57.2283 86.2493 57.5648 86.2102 57.9013 86.2102ZM57.9013 85.3965C57.51 85.3965 57.1188 85.4356 56.7198 85.5217L49.0048 87.1648C45.9611 87.8142 44.0128 90.8032 44.6622 93.8547L46.3054 101.57C46.8687 104.222 49.2083 106.037 51.8138 106.037C52.205 106.037 52.5962 105.998 52.9953 105.912L60.7102 104.269C63.754 103.62 65.7023 100.631 65.0528 97.5792L63.4097 89.8643C62.8463 87.2118 60.5068 85.3965 57.9013 85.3965Z" fill="#BBD0DB"/>
<path d="M86.797 104.621C89.0583 104.621 91.0378 106.225 91.5073 108.439L93.1505 116.154C93.4165 117.414 93.1818 118.705 92.4776 119.785C91.7734 120.865 90.6936 121.608 89.4338 121.874L81.7189 123.517C81.3825 123.588 81.046 123.627 80.7095 123.627C78.4483 123.627 76.4687 122.023 75.9992 119.808L74.3561 112.093C74.09 110.834 74.3248 109.543 75.029 108.463C75.7332 107.383 76.813 106.64 78.0727 106.374L85.7876 104.731C86.1241 104.66 86.4605 104.621 86.797 104.621ZM86.797 103.807C86.4058 103.807 86.0145 103.846 85.6155 103.933L77.9006 105.576C74.8568 106.225 72.9085 109.214 73.558 112.266L75.2011 119.981C75.7645 122.633 78.104 124.448 80.7095 124.448C81.1008 124.448 81.492 124.409 81.891 124.323L89.606 122.68C92.6497 122.031 94.598 119.042 93.9486 115.99L92.3054 108.275C91.7421 105.623 89.4025 103.807 86.797 103.807Z" fill="#BBD0DB"/>
<path d="M110.693 99.5352C112.954 99.5352 114.934 101.139 115.403 103.354L117.046 111.068C117.312 112.328 117.078 113.619 116.373 114.699C115.669 115.779 114.589 116.522 113.33 116.788L105.615 118.431C105.278 118.502 104.942 118.541 104.605 118.541C102.344 118.541 100.365 116.937 99.8951 114.723L98.252 107.008C97.9859 105.748 98.2207 104.457 98.9249 103.377C99.6291 102.297 100.709 101.554 101.969 101.288L109.684 99.6447C110.02 99.5743 110.356 99.5352 110.693 99.5352ZM110.693 98.7214C110.302 98.7214 109.91 98.7606 109.511 98.8466L101.796 100.49C98.7527 101.139 96.8044 104.128 97.4539 107.18L99.097 114.895C99.6604 117.547 102 119.362 104.605 119.362C104.997 119.362 105.388 119.323 105.787 119.237L113.502 117.594C116.546 116.945 118.494 113.956 117.844 110.904L116.201 103.189C115.638 100.537 113.298 98.7214 110.693 98.7214Z" fill="#BBD0DB"/>
<path d="M134.589 94.4492C136.85 94.4492 138.83 96.0533 139.299 98.2676L140.942 105.983C141.498 108.588 139.831 111.155 137.226 111.702L129.511 113.345C129.174 113.416 128.838 113.455 128.501 113.455C126.24 113.455 124.261 111.851 123.791 109.637L122.148 101.922C121.592 99.3161 123.259 96.7496 125.865 96.2019L133.58 94.5588C133.916 94.4884 134.252 94.4492 134.589 94.4492ZM134.589 93.6355C134.198 93.6355 133.806 93.6746 133.407 93.7607L125.692 95.4038C122.649 96.0533 120.7 99.0422 121.35 102.094L122.993 109.809C123.556 112.461 125.896 114.276 128.501 114.276C128.893 114.276 129.284 114.237 129.683 114.151L137.398 112.508C140.442 111.859 142.39 108.87 141.74 105.818L140.097 98.1033C139.534 95.4508 137.194 93.6355 134.589 93.6355Z" fill="#BBD0DB"/>
<path d="M158.493 89.3635C160.754 89.3635 162.734 90.9676 163.203 93.1819L164.846 100.897C165.112 102.157 164.877 103.448 164.173 104.527C163.469 105.607 162.389 106.35 161.13 106.617L153.415 108.26C153.078 108.33 152.742 108.369 152.405 108.369C150.144 108.369 148.164 106.765 147.695 104.551L146.052 96.8359C145.786 95.5762 146.02 94.2851 146.725 93.2054C147.429 92.1256 148.509 91.3823 149.768 91.1162L157.483 89.4731C157.82 89.4027 158.156 89.3635 158.493 89.3635ZM158.493 88.5498C158.101 88.5498 157.71 88.5889 157.311 88.675L149.596 90.3181C146.553 90.9676 144.604 93.9565 145.254 97.0081L146.897 104.723C147.46 107.376 149.8 109.191 152.405 109.191C152.796 109.191 153.188 109.152 153.587 109.066L161.302 107.422C164.345 106.773 166.294 103.784 165.644 100.733L164.001 93.0176C163.438 90.3651 161.098 88.5498 158.493 88.5498Z" fill="#BBD0DB"/>
<path d="M182.389 84.2854C184.65 84.2854 186.63 85.8894 187.099 88.1038L188.742 95.8187C189.298 98.4243 187.631 100.991 185.026 101.538L177.311 103.182C176.974 103.252 176.638 103.291 176.301 103.291C174.04 103.291 172.06 101.687 171.591 99.4728L169.948 91.7578C169.682 90.4981 169.916 89.207 170.621 88.1273C171.325 87.0475 172.405 86.3041 173.664 86.0381L181.379 84.395C181.716 84.3246 182.052 84.2854 182.389 84.2854ZM182.389 83.4717C181.997 83.4717 181.606 83.5108 181.207 83.5969L173.492 85.24C170.449 85.8895 168.5 88.8784 169.15 91.93L170.793 99.6449C171.356 102.297 173.696 104.113 176.301 104.113C176.692 104.113 177.084 104.074 177.483 103.987L185.198 102.344C188.241 101.695 190.19 98.706 189.54 95.6544L187.897 87.9395C187.334 85.287 184.994 83.4717 182.389 83.4717Z" fill="#BBD0DB"/>
<path d="M205.111 78.5109L197.396 80.154C194.352 80.8035 192.404 83.7924 193.053 86.844L194.697 94.5589C194.908 95.5448 195.362 96.4133 195.988 97.1175L206.113 78.4092C205.784 78.417 205.447 78.4561 205.111 78.5266V78.5109Z" fill="#7A6551"/>
<path d="M206.59 79.2151C208.718 79.3482 210.549 80.913 210.995 83.0178L212.638 90.7328C213.194 93.3383 211.527 95.9048 208.922 96.4525L201.207 98.0956C200.878 98.166 200.534 98.2052 200.197 98.2052C199.008 98.2052 197.858 97.7592 196.974 96.9689L206.582 79.223M206.277 78.4014C206.222 78.4014 206.16 78.4014 206.105 78.4014L195.98 97.1097C197.036 98.2991 198.562 99.0189 200.205 99.0189C200.596 99.0189 200.988 98.9798 201.379 98.8937L209.094 97.2506C212.137 96.6011 214.086 93.6122 213.436 90.5606L211.793 82.8457C211.23 80.1932 208.89 78.3857 206.285 78.3857L206.277 78.4014Z" fill="#BBD0DB"/>
<path d="M230.188 74.1136C232.45 74.1136 234.429 75.7176 234.899 77.9319L236.542 85.6468C236.808 86.9066 236.573 88.1976 235.869 89.2774C235.165 90.3572 234.085 91.1005 232.825 91.3665L225.11 93.0097C224.774 93.0801 224.437 93.1192 224.101 93.1192C221.84 93.1192 219.86 91.5152 219.391 89.3009L217.748 81.5859C217.481 80.3262 217.716 79.0352 218.42 77.9554C219.125 76.8756 220.204 76.1323 221.464 75.8662L229.179 74.2231C229.516 74.1527 229.852 74.1136 230.188 74.1136ZM230.188 73.2998C229.797 73.2998 229.406 73.3389 229.007 73.425L221.292 75.0681C218.248 75.7176 216.3 78.7065 216.949 81.7581L218.593 89.473C219.156 92.1255 221.495 93.9408 224.101 93.9408C224.492 93.9408 224.883 93.9017 225.283 93.8156L232.997 92.1725C236.041 91.523 237.989 88.5341 237.34 85.4825L235.697 77.7676C235.134 75.1151 232.794 73.2998 230.188 73.2998Z" fill="#BBD0DB"/>
<path d="M62.8932 109.699C65.1545 109.699 67.1341 111.303 67.6035 113.518L69.2467 121.233C69.8022 123.838 68.1356 126.405 65.53 126.952L57.8151 128.595C57.4786 128.666 57.1422 128.705 56.8058 128.705C54.5445 128.705 52.5649 127.101 52.0954 124.887L50.4523 117.172C49.8967 114.566 51.5633 112 54.1689 111.452L61.8838 109.809C62.2203 109.738 62.5568 109.699 62.8932 109.699ZM62.8932 108.885C62.502 108.885 62.1107 108.925 61.7117 109.011L53.9968 110.654C50.953 111.303 49.0047 114.292 49.6542 117.344L51.2973 125.059C51.8607 127.711 54.2002 129.526 56.8058 129.526C57.197 129.526 57.5882 129.487 57.9872 129.401L65.7022 127.758C68.7459 127.109 70.6942 124.12 70.0448 121.068L68.4016 113.353C67.8383 110.701 65.4988 108.885 62.8932 108.885Z" fill="#BBD0DB"/>
<path d="M90.9205 128.298C93.1818 128.298 95.1614 129.902 95.6309 132.116L97.274 139.831C97.8296 142.437 96.1629 145.003 93.5574 145.551L85.8424 147.194C85.506 147.265 85.1695 147.304 84.8331 147.304C82.5718 147.304 80.5922 145.7 80.1227 143.485L78.4796 135.77C77.9241 133.165 79.5907 130.599 82.1962 130.051L89.9112 128.408C90.2476 128.337 90.5841 128.298 90.9205 128.298ZM90.9205 127.484C90.5293 127.484 90.1381 127.524 89.739 127.61L82.0241 129.253C78.9804 129.902 77.0321 132.891 77.6815 135.943L79.3247 143.658C79.888 146.31 82.2275 148.125 84.8331 148.125C85.2243 148.125 85.6155 148.086 86.0146 148L93.7295 146.357C96.7733 145.708 98.7215 142.719 98.0721 139.667L96.429 131.952C95.8656 129.3 93.5261 127.484 90.9205 127.484Z" fill="#BBD0DB"/>
<path d="M114.817 123.212C117.078 123.212 119.057 124.816 119.527 127.031L121.17 134.745C121.436 136.005 121.201 137.296 120.497 138.376C119.793 139.456 118.713 140.199 117.453 140.465L109.738 142.108C109.402 142.179 109.066 142.218 108.729 142.218C106.468 142.218 104.488 140.614 104.019 138.399L102.376 130.685C102.11 129.425 102.344 128.134 103.048 127.054C103.753 125.974 104.832 125.231 106.092 124.965L113.807 123.322C114.144 123.251 114.48 123.212 114.817 123.212ZM114.817 122.398C114.425 122.398 114.034 122.438 113.635 122.524L105.92 124.167C102.876 124.816 100.928 127.805 101.578 130.857L103.221 138.572C103.784 141.224 106.124 143.039 108.729 143.039C109.12 143.039 109.512 143 109.911 142.914L117.626 141.271C120.669 140.622 122.618 137.633 121.968 134.581L120.325 126.866C119.762 124.214 117.422 122.398 114.817 122.398Z" fill="#BBD0DB"/>
<path d="M138.712 118.134C140.974 118.134 142.953 119.738 143.423 121.953L145.066 129.668C145.332 130.927 145.097 132.218 144.393 133.298C143.689 134.378 142.609 135.121 141.349 135.387L133.634 137.03C133.298 137.101 132.961 137.14 132.625 137.14C130.364 137.14 128.384 135.536 127.915 133.322L126.271 125.607C126.005 124.347 126.24 123.056 126.944 121.976C127.649 120.896 128.728 120.153 129.988 119.887L137.703 118.244C138.04 118.173 138.376 118.134 138.712 118.134ZM138.712 117.321C138.321 117.321 137.93 117.36 137.531 117.446L129.816 119.089C126.772 119.738 124.824 122.727 125.473 125.779L127.117 133.494C127.68 136.146 130.019 137.962 132.625 137.962C133.016 137.962 133.407 137.922 133.806 137.836L141.521 136.193C144.565 135.544 146.513 132.555 145.864 129.503L144.221 121.788C143.657 119.136 141.318 117.321 138.712 117.321Z" fill="#BBD0DB"/>
<path d="M162.616 113.048C164.878 113.048 166.857 114.652 167.327 116.867L168.97 124.582C169.236 125.841 169.001 127.132 168.297 128.212C167.593 129.292 166.513 130.035 165.253 130.301L157.538 131.944C157.202 132.015 156.865 132.054 156.529 132.054C154.268 132.054 152.288 130.45 151.818 128.236L150.175 120.521C149.62 117.915 151.286 115.349 153.892 114.801L161.607 113.158C161.943 113.088 162.28 113.048 162.616 113.048ZM162.616 112.235C162.225 112.235 161.834 112.274 161.435 112.36L153.72 114.003C150.676 114.652 148.728 117.641 149.377 120.693L151.02 128.408C151.584 131.06 153.923 132.876 156.529 132.876C156.92 132.876 157.311 132.836 157.71 132.75L165.425 131.107C168.469 130.458 170.417 127.469 169.768 124.417L168.125 116.702C167.561 114.05 165.222 112.235 162.616 112.235Z" fill="#BBD0DB"/>
<path d="M185.343 107.269L177.621 108.912C174.578 109.559 172.636 112.551 173.283 115.595L174.926 123.317C175.573 126.36 178.565 128.302 181.609 127.655L189.331 126.012C192.374 125.364 194.316 122.373 193.669 119.329L192.026 111.607C191.379 108.564 188.387 106.622 185.343 107.269Z" fill="url(#paint0_linear_54_973)"/>
<path d="M210.416 102.876C212.677 102.876 214.657 104.481 215.126 106.695L216.769 114.41C217.036 115.67 216.801 116.961 216.097 118.04C215.392 119.12 214.313 119.863 213.053 120.129L205.338 121.773C205.001 121.843 204.665 121.882 204.329 121.882C202.067 121.882 200.088 120.278 199.618 118.064L197.975 110.349C197.709 109.089 197.944 107.798 198.648 106.718C199.352 105.639 200.432 104.895 201.692 104.629L209.407 102.986C209.743 102.916 210.08 102.876 210.416 102.876ZM210.416 102.063C210.025 102.063 209.634 102.102 209.235 102.188L201.52 103.831C198.476 104.481 196.528 107.469 197.177 110.521L198.82 118.236C199.383 120.888 201.723 122.704 204.329 122.704C204.72 122.704 205.111 122.665 205.51 122.579L213.225 120.935C216.269 120.286 218.217 117.297 217.568 114.245L215.924 106.531C215.361 103.878 213.022 102.063 210.416 102.063Z" fill="#BBD0DB"/>
<path d="M234.312 97.7984C236.573 97.7984 238.553 99.4024 239.022 101.617L240.665 109.332C240.931 110.591 240.697 111.882 239.992 112.962C239.288 114.042 238.209 114.785 236.949 115.051L229.234 116.694C228.897 116.765 228.561 116.804 228.224 116.804C225.963 116.804 223.984 115.2 223.514 112.986L221.871 105.271C221.315 102.665 222.982 100.099 225.588 99.551L233.303 97.9079C233.639 97.8375 233.975 97.7984 234.312 97.7984ZM234.312 96.9846C233.921 96.9846 233.529 97.0237 233.13 97.1098L225.415 98.7529C222.372 99.4024 220.423 102.391 221.073 105.443L222.716 113.158C223.279 115.81 225.619 117.626 228.224 117.626C228.616 117.626 229.007 117.586 229.406 117.5L237.121 115.857C240.165 115.208 242.113 112.219 241.463 109.167L239.82 101.452C239.257 98.7999 236.917 96.9846 234.312 96.9846Z" fill="#BBD0DB"/>
<path d="M67.0167 133.384C69.278 133.384 71.2576 134.988 71.7271 137.202L73.3702 144.917C73.6362 146.177 73.4015 147.468 72.6973 148.548C71.9931 149.628 70.9133 150.371 69.6536 150.637L61.9387 152.28C61.6022 152.351 61.2657 152.39 60.9293 152.39C58.668 152.39 56.6884 150.786 56.219 148.571L54.5758 140.856C54.3098 139.597 54.5445 138.306 55.2487 137.226C55.9529 136.146 57.0327 135.403 58.2924 135.137L66.0074 133.494C66.3438 133.423 66.6803 133.384 67.0167 133.384ZM67.0167 132.57C66.6255 132.57 66.2343 132.609 65.8352 132.696L58.1203 134.339C55.0766 134.988 53.1283 137.977 53.7777 141.029L55.4209 148.744C55.9842 151.396 58.3237 153.211 60.9293 153.211C61.3205 153.211 61.7117 153.172 62.1108 153.086L69.8257 151.443C72.8694 150.794 74.8178 147.805 74.1683 144.753L72.5252 137.038C71.9618 134.386 69.6223 132.57 67.0167 132.57Z" fill="#BBD0DB"/>
<path d="M95.9204 151.795C98.1817 151.795 100.161 153.399 100.631 155.613L102.274 163.328C102.829 165.934 101.163 168.5 98.5573 169.048L90.8423 170.691C90.5059 170.761 90.1694 170.801 89.833 170.801C87.5717 170.801 85.5921 169.197 85.1227 166.982L83.4795 159.267C83.2135 158.008 83.4482 156.717 84.1524 155.637C84.8566 154.557 85.9364 153.814 87.1961 153.548L94.9111 151.904C95.2475 151.834 95.584 151.795 95.9204 151.795ZM95.9204 150.981C95.5292 150.981 95.138 151.02 94.7389 151.106L87.024 152.75C83.9803 153.399 82.032 156.388 82.6814 159.439L84.3245 167.154C84.8879 169.807 87.2274 171.622 89.833 171.622C90.2242 171.622 90.6154 171.583 91.0145 171.497L98.7294 169.854C101.773 169.204 103.721 166.215 103.072 163.164L101.429 155.449C100.866 152.796 98.526 150.981 95.9204 150.981Z" fill="#BBD0DB"/>
<path d="M119.816 146.709C122.078 146.709 124.057 148.313 124.527 150.527L126.17 158.242C126.436 159.502 126.201 160.793 125.497 161.873C124.793 162.953 123.713 163.696 122.453 163.962L114.738 165.605C114.402 165.676 114.065 165.715 113.729 165.715C111.468 165.715 109.488 164.111 109.019 161.896L107.375 154.181C107.109 152.922 107.344 151.631 108.048 150.551C108.752 149.471 109.832 148.728 111.092 148.462L118.807 146.819C119.143 146.748 119.48 146.709 119.816 146.709ZM119.816 145.895C119.425 145.895 119.034 145.934 118.635 146.02L110.92 147.664C107.876 148.313 105.928 151.302 106.577 154.354L108.22 162.068C108.784 164.721 111.123 166.536 113.729 166.536C114.12 166.536 114.511 166.497 114.91 166.411L122.625 164.768C125.669 164.118 127.617 161.13 126.968 158.078L125.325 150.363C124.761 147.711 122.422 145.895 119.816 145.895Z" fill="#BBD0DB"/>
<path d="M143.712 141.623C145.974 141.623 147.953 143.227 148.423 145.442L150.066 153.157C150.332 154.416 150.097 155.707 149.393 156.787C148.689 157.867 147.609 158.61 146.349 158.876L138.634 160.519C138.298 160.59 137.961 160.629 137.625 160.629C135.364 160.629 133.384 159.025 132.914 156.811L131.271 149.096C131.005 147.836 131.24 146.545 131.944 145.465C132.648 144.385 133.728 143.642 134.988 143.376L142.703 141.733C143.039 141.662 143.376 141.623 143.712 141.623ZM143.712 140.81C143.321 140.81 142.93 140.849 142.531 140.935L134.816 142.578C131.772 143.227 129.824 146.216 130.473 149.268L132.116 156.983C132.68 159.635 135.019 161.451 137.625 161.451C138.016 161.451 138.407 161.411 138.806 161.325L146.521 159.682C149.565 159.033 151.513 156.044 150.864 152.992L149.221 145.277C148.657 142.625 146.318 140.81 143.712 140.81Z" fill="#BBD0DB"/>
<path d="M166.438 135.843L158.731 137.482C155.684 138.13 153.739 141.126 154.387 144.174L156.027 151.881C156.675 154.928 159.671 156.873 162.718 156.225L170.425 154.585C173.473 153.937 175.418 150.941 174.769 147.893L173.13 140.187C172.481 137.139 169.485 135.194 166.438 135.843Z" fill="url(#paint1_linear_54_973)"/>
<path d="M190.335 130.77L182.628 132.41C179.58 133.058 177.636 136.054 178.284 139.101L179.923 146.808C180.572 149.856 183.568 151.801 186.615 151.152L194.322 149.513C197.37 148.864 199.314 145.868 198.666 142.821L197.027 135.114C196.378 132.067 193.382 130.122 190.335 130.77Z" fill="url(#paint2_linear_54_973)"/>
<path d="M214.23 125.682L206.523 127.322C203.476 127.97 201.531 130.966 202.179 134.014L203.819 141.72C204.467 144.768 207.463 146.713 210.51 146.064L218.217 144.425C221.265 143.777 223.21 140.781 222.561 137.733L220.922 130.026C220.273 126.979 217.277 125.034 214.23 125.682Z" fill="url(#paint3_linear_54_973)"/>
<path d="M239.312 121.287C241.573 121.287 243.553 122.891 244.022 125.106L245.665 132.821C245.931 134.08 245.697 135.371 244.992 136.451C244.288 137.531 243.208 138.274 241.949 138.54L234.234 140.184C233.897 140.254 233.561 140.293 233.224 140.293C230.963 140.293 228.984 138.689 228.514 136.475L226.871 128.76C226.605 127.5 226.84 126.209 227.544 125.129C228.248 124.049 229.328 123.306 230.588 123.04L238.303 121.397C238.639 121.327 238.975 121.287 239.312 121.287ZM239.312 120.474C238.921 120.474 238.529 120.513 238.13 120.599L230.415 122.242C227.372 122.891 225.423 125.88 226.073 128.932L227.716 136.647C228.279 139.299 230.619 141.115 233.224 141.115C233.616 141.115 234.007 141.075 234.406 140.989L242.121 139.346C245.165 138.697 247.113 135.708 246.463 132.656L244.82 124.941C244.257 122.289 241.917 120.474 239.312 120.474Z" fill="#BBD0DB"/>
<path d="M72.0166 156.881C74.2779 156.881 76.2575 158.485 76.7269 160.699L78.3701 168.414C78.6361 169.674 78.4014 170.965 77.6972 172.045C76.993 173.124 75.9132 173.868 74.6535 174.134L66.9385 175.777C66.6021 175.847 66.2656 175.887 65.9292 175.887C63.6679 175.887 61.6883 174.283 61.2188 172.068L59.5757 164.353C59.0201 161.748 60.6867 159.181 63.2923 158.634L71.0073 156.99C71.3437 156.92 71.6802 156.881 72.0166 156.881ZM72.0166 156.067C71.6254 156.067 71.2342 156.106 70.8351 156.192L63.1202 157.835C60.0764 158.485 58.1282 161.474 58.7776 164.525L60.4207 172.24C60.9841 174.893 63.3236 176.708 65.9292 176.708C66.3204 176.708 66.7116 176.669 67.1107 176.583L74.8256 174.94C77.8693 174.29 79.8176 171.301 79.1682 168.25L77.525 160.535C76.9617 157.882 74.6222 156.067 72.0166 156.067Z" fill="#BBD0DB"/>
<path d="M269.749 43.8093L213.64 74.5048L213.483 74.7708L221.433 89.0035H221.738L269.749 62.8306" fill="#EAAF65"/>
<path d="M210.111 88.8705L221.433 89.0035L213.483 74.7708L207.654 84.4809L210.111 88.8705Z" fill="#F8D1C6"/>
<path d="M205.064 88.8079L210.111 88.8705L207.654 84.481L205.064 88.8079Z" fill="#7A6551"/>
<path d="M75.7802 39.0208C74.2466 35.3902 70.1779 33.6219 66.5082 34.8973C68.613 35.4841 70.4439 36.9864 71.3593 39.1616L76.4687 51.2817C78.0649 55.061 76.2888 59.4192 72.5095 61.0154C72.3609 61.078 72.2044 61.1328 72.0479 61.1797C73.605 61.6179 75.3186 61.5475 76.9304 60.8746C80.7096 59.2784 82.4858 54.9201 80.8896 51.1409L75.7724 39.0208H75.7802Z" fill="#A89685"/>
<path d="M95.3023 34.9519C93.7687 31.3214 89.7 29.553 86.0303 30.8284C88.1351 31.4153 89.966 32.9176 90.8815 35.0928L95.9908 47.2129C97.587 50.9921 95.8109 55.3503 92.0317 56.9465C91.883 57.0091 91.7265 57.0639 91.57 57.1109C93.1271 57.549 94.8406 57.4786 96.4525 56.8057C100.232 55.2095 102.008 50.8513 100.412 47.072L95.2945 34.9519H95.3023Z" fill="#A89685"/>
<path d="M114.824 30.8755C113.291 27.2449 109.222 25.4766 105.552 26.752C107.657 27.3388 109.488 28.8411 110.404 31.0163L115.513 43.1365C117.109 46.9157 115.333 51.2739 111.554 52.8701C111.405 52.9327 111.249 52.9875 111.092 53.0344C112.649 53.4726 114.363 53.4022 115.975 52.7293C119.754 51.1331 121.53 46.7748 119.934 42.9956L114.824 30.8755Z" fill="#A89685"/>
<path d="M134.346 26.8066C132.813 23.1761 128.744 21.4078 125.074 22.6832C127.179 23.27 129.01 24.7723 129.926 26.9475L135.043 39.0676C136.639 42.8468 134.863 47.2051 131.084 48.8013C130.935 48.8639 130.779 48.9186 130.622 48.9656C132.179 49.4038 133.893 49.3333 135.504 48.6604C139.284 47.0642 141.06 42.706 139.464 38.9268L134.354 26.8066H134.346Z" fill="#A89685"/>
<path d="M153.868 22.7381C152.335 19.1075 148.266 17.3392 144.596 18.6145C146.701 19.2014 148.532 20.7037 149.448 22.8789L154.557 34.999C156.153 38.7782 154.377 43.1365 150.598 44.7327C150.449 44.7953 150.293 44.85 150.136 44.897C151.693 45.3352 153.407 45.2647 155.019 44.5918C158.798 42.9956 160.574 38.6374 158.978 34.8582L153.868 22.7381Z" fill="#A89685"/>
<path d="M173.391 18.6614C171.857 15.0308 167.788 13.2625 164.119 14.5379C166.223 15.1247 168.054 16.627 168.97 18.8022L174.087 30.9224C175.683 34.7016 173.907 39.0598 170.128 40.656C169.979 40.7186 169.823 40.7734 169.666 40.8203C171.223 41.2585 172.937 41.1881 174.549 40.5152C178.328 38.919 180.104 34.5607 178.508 30.7815L173.391 18.6614Z" fill="#A89685"/>
<path d="M197.787 26.7598L192.678 14.6397C191.144 11.0091 187.076 9.24077 183.406 10.5162C185.511 11.103 187.342 12.6053 188.257 14.7805L193.367 26.9006C194.963 30.6799 193.187 35.0381 189.407 36.6343C189.259 36.6969 189.102 36.7516 188.946 36.7986C190.503 37.2368 192.216 37.1663 193.828 36.4934C197.607 34.8972 199.384 30.539 197.787 26.7598Z" fill="#A89685"/>
<path d="M76.4765 51.2817L71.3672 39.1616C70.4517 36.9864 68.6208 35.4841 66.516 34.8972C66.3595 34.952 66.2108 34.9989 66.0543 35.0615C62.2751 36.6577 60.4989 41.016 62.0951 44.7952L67.2124 56.9153C68.1278 59.0905 69.9588 60.5928 72.0635 61.1797C72.22 61.1249 72.3687 61.0779 72.5252 61.0153C76.3044 59.4191 78.0806 55.0609 76.4844 51.2817H76.4765Z" fill="#BBD0DB"/>
<path d="M92.0395 56.9387C95.8187 55.3425 97.5948 50.9842 95.9986 47.205L90.8893 35.0849C89.9738 32.9097 88.1428 31.4074 86.0381 30.8206C85.8816 30.8753 85.7329 30.9223 85.5764 30.9849C81.7972 32.5811 80.021 36.9393 81.6172 40.7185L86.7266 52.8386C87.6421 55.0139 89.473 56.5161 91.5778 57.103C91.7343 57.0482 91.883 57.0013 92.0395 56.9387Z" fill="#BBD0DB"/>
<path d="M115.521 43.1364L110.411 31.0163C109.496 28.8411 107.665 27.3388 105.56 26.752C105.404 26.8067 105.255 26.8537 105.099 26.9163C101.319 28.5125 99.5431 32.8707 101.139 36.6499L106.249 48.77C107.164 50.9452 108.995 52.4475 111.1 53.0344C111.256 52.9796 111.405 52.9327 111.562 52.8701C115.341 51.2739 117.117 46.9156 115.521 43.1364Z" fill="#BBD0DB"/>
<path d="M131.084 48.8012C134.863 47.205 136.639 42.8468 135.043 39.0676L129.926 26.9474C129.01 24.7722 127.179 23.2699 125.074 22.6831C124.918 22.7379 124.769 22.7848 124.613 22.8474C120.834 24.4436 119.057 28.8018 120.654 32.5811L125.763 44.7012C126.678 46.8764 128.509 48.3787 130.614 48.9655C130.771 48.9108 130.919 48.8638 131.076 48.8012H131.084Z" fill="#BBD0DB"/>
<path d="M154.565 34.999L149.456 22.8789C148.54 20.7036 146.709 19.2013 144.604 18.6145C144.448 18.6693 144.299 18.7162 144.143 18.7788C140.363 20.375 138.587 24.7333 140.184 28.5125L145.301 40.6326C146.216 42.8078 148.047 44.3101 150.152 44.8969C150.308 44.8422 150.457 44.7952 150.614 44.7326C154.393 43.1364 156.169 38.7782 154.573 34.999H154.565Z" fill="#BBD0DB"/>
<path d="M174.087 30.9223L168.97 18.8022C168.054 16.627 166.223 15.1247 164.119 14.5378C163.962 14.5926 163.813 14.6396 163.657 14.7021C159.878 16.2983 158.101 20.6566 159.698 24.4358L164.815 36.5559C165.73 38.7311 167.561 40.2334 169.666 40.8203C169.823 40.7655 169.971 40.7185 170.128 40.656C173.907 39.0598 175.683 34.7015 174.087 30.9223Z" fill="#BBD0DB"/>
<path d="M193.374 26.9006L188.265 14.7805C187.349 12.6052 185.519 11.1029 183.414 10.5161C183.257 10.5709 183.109 10.6178 182.952 10.6804C179.173 12.2766 177.397 16.6349 178.993 20.4141L184.102 32.5342C185.018 34.7094 186.849 36.2117 188.954 36.7985C189.11 36.7438 189.259 36.6968 189.415 36.6342C193.194 35.038 194.971 30.6798 193.374 26.9006Z" fill="#BBD0DB"/>
<path d="M199.72 202.709C225.173 202.709 245.806 182.075 245.806 156.623C245.806 131.17 225.173 110.536 199.72 110.536C174.267 110.536 153.634 131.17 153.634 156.623C153.634 182.075 174.267 202.709 199.72 202.709Z" fill="white"/>
<path d="M249.954 177.482C263.259 151.617 253.076 119.863 227.21 106.558C201.345 93.2535 169.591 103.436 156.286 129.302C142.982 155.168 153.164 186.922 179.03 200.226C204.896 213.531 236.65 203.348 249.954 177.482Z" fill="#F48F00"/>
<path d="M230.168 186.549C248.465 171.61 251.188 144.668 236.249 126.371C221.311 108.075 194.368 105.352 176.072 120.291C157.775 135.229 155.052 162.171 169.991 180.468C184.929 198.765 211.872 201.487 230.168 186.549Z" fill="white"/>
<path d="M202.811 152.57C201.981 152.499 201.363 151.764 201.434 150.934L203.577 126.139C203.648 125.309 204.383 124.691 205.213 124.762C206.042 124.832 206.66 125.567 206.59 126.397L204.446 151.193C204.376 152.022 203.64 152.64 202.811 152.57Z" fill="#EAAF65"/>
<path d="M221.222 167.194C220.987 167.17 220.752 167.1 220.541 166.959L205.111 157.108C204.407 156.662 204.203 155.723 204.649 155.019C205.095 154.315 206.034 154.111 206.738 154.557L222.168 164.408C222.873 164.854 223.076 165.793 222.63 166.497C222.317 166.99 221.769 167.233 221.229 167.186L221.222 167.194Z" fill="#EAAF65"/>
<path d="M208.311 153.837C208.045 156.912 205.338 159.197 202.255 158.931C199.18 158.665 196.895 155.958 197.161 152.875C197.427 149.8 200.135 147.515 203.217 147.781C206.292 148.047 208.577 150.754 208.311 153.837Z" fill="#7A6551"/>
<path d="M206.034 120.489C205.471 120.442 205.049 119.942 205.103 119.378L205.369 116.327C205.416 115.763 205.917 115.341 206.48 115.396C207.044 115.443 207.466 115.943 207.412 116.507L207.145 119.558C207.099 120.122 206.598 120.544 206.034 120.489Z" fill="#D1DFE0"/>
<path d="M200.096 189.095C199.532 189.048 199.11 188.547 199.164 187.984L199.415 185.104C199.462 184.541 199.963 184.118 200.526 184.173C201.089 184.22 201.512 184.721 201.457 185.284L201.207 188.163C201.16 188.727 200.659 189.149 200.096 189.095Z" fill="#D1DFE0"/>
<path d="M239.022 156.365L236.229 156.122C235.666 156.075 235.243 155.574 235.298 155.011C235.353 154.448 235.846 154.025 236.409 154.08L239.202 154.323C239.766 154.369 240.188 154.87 240.133 155.434C240.086 155.997 239.586 156.42 239.022 156.365Z" fill="#D1DFE0"/>
<path d="M171.208 150.496L167.374 150.168C166.81 150.121 166.388 149.62 166.442 149.057C166.489 148.493 166.99 148.071 167.554 148.126L171.387 148.454C171.951 148.501 172.373 149.002 172.319 149.565C172.272 150.129 171.771 150.551 171.208 150.496Z" fill="#D1DFE0"/>
<path d="M218.608 185.753C218.256 185.722 217.928 185.511 217.771 185.174L216.457 182.405C216.214 181.896 216.433 181.278 216.942 181.035C217.45 180.793 218.068 181.012 218.311 181.52L219.625 184.29C219.868 184.799 219.649 185.417 219.14 185.659C218.968 185.738 218.788 185.769 218.616 185.753H218.608Z" fill="#D1DFE0"/>
<path d="M188.985 123.306C188.633 123.275 188.304 123.064 188.148 122.727L186.95 120.192C186.708 119.684 186.927 119.065 187.436 118.823C187.944 118.58 188.562 118.799 188.805 119.308L190.002 121.843C190.245 122.352 190.025 122.97 189.517 123.212C189.345 123.291 189.165 123.322 188.993 123.306H188.985Z" fill="#D1DFE0"/>
<path d="M182.428 182.623C182.256 182.608 182.076 182.545 181.927 182.436C181.465 182.107 181.356 181.465 181.685 181.004L183.602 178.289C183.93 177.827 184.572 177.717 185.033 178.046C185.495 178.375 185.605 179.016 185.276 179.478L183.359 182.193C183.14 182.498 182.78 182.655 182.436 182.623H182.428Z" fill="#D1DFE0"/>
<path d="M222.341 126.193C222.168 126.178 221.988 126.115 221.84 126.006C221.378 125.677 221.269 125.035 221.597 124.574L223.217 122.281C223.546 121.819 224.187 121.71 224.649 122.039C225.11 122.367 225.22 123.009 224.891 123.47L223.272 125.755C223.053 126.06 222.693 126.217 222.341 126.186V126.193Z" fill="#D1DFE0"/>
<path d="M171.513 170.269C171.176 170.237 170.863 170.05 170.699 169.729C170.433 169.228 170.621 168.61 171.121 168.336L174.15 166.709C174.65 166.443 175.268 166.63 175.542 167.123C175.808 167.624 175.621 168.242 175.128 168.516L172.1 170.144C171.92 170.237 171.716 170.277 171.528 170.261L171.513 170.269Z" fill="#D1DFE0"/>
<path d="M232.638 137.461C232.301 137.429 231.988 137.242 231.824 136.921C231.558 136.42 231.746 135.802 232.238 135.528L234.484 134.323C234.985 134.057 235.603 134.245 235.877 134.738C236.143 135.239 235.955 135.857 235.462 136.131L233.217 137.336C233.037 137.429 232.833 137.469 232.645 137.453L232.638 137.461Z" fill="#D1DFE0"/>
<path d="M231.487 175.464C231.3 175.449 231.104 175.378 230.947 175.253L228.741 173.524C228.295 173.172 228.217 172.53 228.569 172.084C228.921 171.638 229.563 171.56 230.009 171.912L232.215 173.641C232.661 173.993 232.739 174.635 232.387 175.081C232.168 175.363 231.824 175.496 231.487 175.472V175.464Z" fill="#D1DFE0"/>
<path d="M177.522 133.118C177.334 133.102 177.139 133.032 176.982 132.907L174.369 130.857C173.923 130.505 173.844 129.863 174.197 129.417C174.549 128.971 175.19 128.893 175.636 129.245L178.25 131.295C178.696 131.647 178.774 132.289 178.422 132.735C178.203 133.016 177.858 133.149 177.522 133.126V133.118Z" fill="#D1DFE0"/>
<path d="M93.5495 199.188C91.3195 205.831 92.7279 213.499 98.4789 217.896C100.709 219.594 103.901 221.151 106.788 220.736C109.042 220.416 110.81 218.475 109.934 216.159C109.034 213.78 106.382 213.522 104.3 214.446C101.499 215.697 99.6135 218.616 99.097 221.581C98.1111 227.278 102.892 232.207 108.682 230.994C110.81 230.548 113.901 228.686 112.845 226.065C111.726 223.295 108.205 224.187 106.249 225.353C101.57 228.154 98.7528 234.805 101.077 239.969C103.4 245.133 110.638 247.293 115.388 244.108C117.031 243.005 118.65 240.509 116.757 238.819C115.004 237.262 112.461 238.201 111.147 239.805C106.992 244.867 109.879 253.56 114.981 256.76C117.665 258.443 120.99 259.006 124.096 258.435C126.631 257.965 129.605 256.314 129.597 253.365C129.597 251.088 127.422 250.094 125.426 250.704C122.774 251.518 121.694 254.546 121.733 257.081C121.843 263.591 127.883 267.973 134.119 266.4C136.709 265.743 139.8 263.928 140.277 261.04C140.661 258.724 138.658 257.355 136.529 257.887C133.752 258.576 132.672 261.588 132.68 264.186C132.695 267.3 134.002 270.438 136.224 272.621C138.501 274.858 141.686 275.946 144.855 275.821C147.812 275.703 151.607 274.577 153.062 271.736C154.087 269.733 153.54 266.971 151.02 266.643C148.235 266.275 146.208 268.818 145.301 271.134C143.321 276.228 145.488 282.753 150.629 285.03C152.937 286.047 156.286 286.235 157.992 284.029C159.291 282.346 158.978 279.717 157.272 278.426C154.909 276.635 151.591 277.894 149.604 279.623C147.249 281.666 145.168 284.835 144.878 287.988C144.659 290.413 145.84 293.348 148.516 293.77C150.559 294.091 153.023 292.722 153.329 290.562C153.626 288.434 151.771 286.65 149.698 287.174C149.213 287.299 149.424 288.043 149.901 287.917C152.468 287.268 153.203 290.492 151.764 291.955C151.075 292.651 150.05 293.058 149.072 293.042C145.825 292.98 145.246 289.005 145.927 286.579C146.967 282.886 151.873 276.251 156.443 278.794C159.346 280.414 157.867 284.287 155.042 284.882C152.906 285.335 150.566 284.428 148.939 283.074C146.099 280.711 144.808 276.728 145.52 273.137C145.934 271.04 147.061 268.575 149.142 267.699C151.02 266.917 153.156 268.098 152.734 270.336C152.46 271.807 151.31 272.887 150.074 273.614C145.958 276.032 140.168 275.398 136.756 272.073C133.9 269.28 131.67 262.903 134.988 259.608C135.958 258.646 137.523 258.137 138.689 258.99C140.207 260.094 139.362 261.956 138.345 263.129C136.717 265.007 134.026 265.923 131.592 265.978C126.983 266.079 123.212 262.73 122.602 258.184C122.304 255.994 122.727 253.255 124.699 251.925C125.771 251.205 127.672 250.853 128.533 252.207C129.487 253.717 128.157 255.696 126.952 256.541C123.212 259.147 117.25 257.934 114.01 255.094C110.638 252.144 109.206 246.941 110.552 242.653C111.194 240.587 113.478 237.575 115.959 239.187C117.711 240.321 116.381 242.41 115.184 243.294C114.206 244.022 113.048 244.445 111.851 244.656C108.103 245.321 103.98 243.631 102.102 240.251C100.2 236.824 101.077 232.473 103.189 229.359C104.308 227.708 105.834 226.315 107.673 225.509C109.198 224.844 113.604 224.735 112.015 228.076C111.421 229.32 109.754 229.993 108.502 230.243C103.307 231.284 99.0188 226.918 99.8717 221.777C100.271 219.375 101.624 217.012 103.69 215.666C104.778 214.962 106.327 214.359 107.634 214.821C109.707 215.549 109.997 218.475 108.056 219.555C105.881 220.76 102.782 219.539 100.803 218.46C98.8153 217.372 97.1018 215.823 95.8342 213.953C92.9157 209.657 92.7044 204.195 94.3241 199.383C94.4806 198.914 93.7373 198.711 93.5808 199.18L93.5495 199.188Z" fill="#BBD0DB"/>
<path d="M85.2242 213.796C76.9224 215.651 68.2216 215.611 66.821 212.701C60.8431 200.307 60.4363 187.107 60.5615 181.716C60.6006 180.135 61.4769 178.57 62.9323 177.647C72.7755 171.442 83.5576 171.771 83.5576 171.771C82.7047 169.384 81.5467 166.716 80.2948 164.048C75.1619 153.156 68.5424 143.063 60.5849 134.026C58.6366 131.811 56.6492 129.691 54.7948 127.954C54.7948 127.954 50.8043 137.977 41.1959 144.542C39.7718 145.512 37.9878 145.692 36.5246 145.097C31.5248 143.063 19.5768 137.437 10.5865 127.023C8.47388 124.574 11.8932 116.577 16.9009 109.699C21.9085 102.822 29.7565 94.2772 41.9157 98.4711C54.075 102.665 74.5751 130.739 81.7189 141.623C88.8626 152.507 106.46 182.483 105.474 195.315C104.488 208.139 93.526 211.942 85.2242 213.796Z" fill="#F48F00"/>
<path d="M12.7852 124.488C22.2685 128.713 30.6719 134.957 37.4479 142.82C37.7766 143.204 38.3321 142.648 38.0035 142.265C31.1806 134.362 22.7145 128.063 13.1764 123.815C12.7226 123.611 12.3235 124.284 12.7852 124.488Z" fill="#F48F00"/>
<path d="M63.2845 180.143C68.0105 190.088 70.17 201.019 69.6145 212.012C69.591 212.513 70.3735 212.513 70.3969 212.012C70.9603 200.878 68.746 189.814 63.9652 179.744C63.7461 179.29 63.0732 179.689 63.2923 180.135L63.2845 180.143Z" fill="#F48F00"/>
<path d="M55.46 128.142C55.9999 127.117 56.3754 126.029 56.5711 124.887C56.6571 124.394 55.906 124.182 55.8199 124.675C55.6321 125.755 55.2878 126.772 54.7871 127.743C54.5523 128.189 55.2331 128.588 55.46 128.134V128.142Z" fill="#F48F00"/>
<path d="M83.7611 171.849C85.2008 171.826 86.617 171.935 88.0332 172.193C88.5262 172.279 88.7374 171.528 88.2445 171.442C86.7578 171.176 85.2712 171.043 83.7689 171.067C83.2681 171.067 83.2681 171.857 83.7689 171.849H83.7611Z" fill="#F48F00"/>
<path d="M38.5591 80.2713C44.6152 78.9802 50.6714 77.6892 56.7354 76.3982C57.2283 76.2964 57.017 75.5375 56.5241 75.647C50.4679 76.9381 44.4118 78.2291 38.3478 79.5201C37.8549 79.6219 38.0661 80.3808 38.5591 80.2713Z" fill="#F48F00"/>
<path d="M51.6885 75.1464C54.5601 74.6144 57.4238 74.0823 60.2954 73.5581C60.7883 73.4642 60.5771 72.713 60.0842 72.8069C57.2126 73.339 54.3488 73.8711 51.4772 74.3953C50.9843 74.4892 51.1955 75.2403 51.6885 75.1464Z" fill="#F48F00"/>
<path d="M206.856 28.09C208.859 27.6127 210.854 27.1432 212.857 26.6659C213.35 26.5485 213.139 25.7974 212.646 25.9147C210.643 26.392 208.648 26.8615 206.645 27.3388C206.152 27.4562 206.363 28.2073 206.856 28.09Z" fill="#F48F00"/>
<path d="M204.383 31.6891L210.173 30.2572C210.658 30.1399 210.455 29.3809 209.962 29.5061C208.029 29.9834 206.097 30.4607 204.172 30.938C203.687 31.0553 203.89 31.8143 204.383 31.6891Z" fill="#F48F00"/>
<path d="M208.671 43.8327C215.126 42.4556 221.581 41.0785 228.037 39.7014C228.53 39.5997 228.318 38.8407 227.825 38.9502C221.37 40.3273 214.915 41.7045 208.46 43.0816C207.967 43.1833 208.178 43.9423 208.671 43.8327Z" fill="#F48F00"/>
<rect x="-6" y="64" width="300" height="186" fill="url(#paint4_linear_54_973)"/>
</g>
<defs>
<linearGradient id="paint0_linear_54_973" x1="223.271" y1="67.2183" x2="108.572" y2="212.018" gradientUnits="userSpaceOnUse">
<stop stop-color="white"/>
<stop offset="1" stop-color="#EAAF65"/>
</linearGradient>
<linearGradient id="paint1_linear_54_973" x1="225.57" y1="69.0346" x2="110.864" y2="213.835" gradientUnits="userSpaceOnUse">
<stop stop-color="white"/>
<stop offset="1" stop-color="#EAAF65"/>
</linearGradient>
<linearGradient id="paint2_linear_54_973" x1="237.778" y1="78.7085" x2="123.079" y2="223.508" gradientUnits="userSpaceOnUse">
<stop stop-color="white"/>
<stop offset="1" stop-color="#EAAF65"/>
</linearGradient>
<linearGradient id="paint3_linear_54_973" x1="249.994" y1="88.3747" x2="135.287" y2="233.175" gradientUnits="userSpaceOnUse">
<stop stop-color="white"/>
<stop offset="1" stop-color="#EAAF65"/>
</linearGradient>
<linearGradient id="paint4_linear_54_973" x1="135" y1="171.658" x2="135" y2="242.924" gradientUnits="userSpaceOnUse">
<stop stop-color="#3FA2F7" stop-opacity="0"/>
<stop offset="1" stop-color="#03A2FF"/>
</linearGradient>
</defs>
</svg>
