<svg width="4069" height="2088" viewBox="0 0 4069 2088" fill="none" xmlns="http://www.w3.org/2000/svg">
<path d="M2426.57 1784.93C2460.32 1716.32 2514.88 1659.52 2575.11 1613.41C2623.7 1576.23 2678.66 1540.01 2736.18 1518.63C2787.24 1499.64 2798.57 1544.24 2839.73 1559.48C2866.06 1569.21 2895.26 1554.29 2916 1535.38C2935.94 1517.11 2952.46 1494.14 2976.31 1480.42C2993.86 1470.29 3020.11 1465.26 3038.62 1476.11C3061.51 1489.59 3057.6 1522.62 3088.56 1526.37C3103 1528.12 3117.36 1522.94 3130.36 1516.56C3161.07 1501.48 3191.47 1487.6 3224.34 1477.94C3254.09 1469.25 3292.63 1466.3 3309.78 1492.14C3326.29 1516.88 3310.58 1550.54 3290.79 1572.64C3243.01 1626.01 3172.48 1654.81 3101.48 1664.22C3082.1 1666.78 3062.23 1668.21 3044.36 1676.03C3026.49 1683.93 3010.7 1700.12 3009.98 1719.67C3009.58 1730.2 3013.49 1740.41 3013.65 1750.94C3014.05 1780.14 2985.25 1801.92 2956.77 1808.46C2883.53 1825.21 2835.9 1760.91 2767.06 1751.02C2689.04 1739.85 2568.81 1752.06 2514.64 1817.71" fill="#00A2FF" fill-opacity="0.6"/>
<path opacity="0.5" d="M2555.25 1752.78C2630.72 1682.41 2730.84 1635.74 2835.5 1622.18C2900.76 1613.73 2966.9 1617.79 3032.39 1611.89C3097.89 1605.99 3165.78 1588.28 3213.01 1544.64" stroke="white" stroke-width="0.89" stroke-linecap="round" stroke-linejoin="round"/>
<path d="M2897.17 1462.47C2936.18 1439.89 2978.07 1408.54 2966.98 1360.75C2963.39 1345.04 2951.82 1330.76 2953.73 1314.8C2955.01 1304.27 2962.03 1295.49 2967.22 1286.16C2979.42 1264.06 2981.1 1236.46 2971.68 1213C2961.63 1187.8 2940.33 1168.89 2927.01 1145.19C2916.16 1125.89 2910.81 1103.47 2911.85 1081.37C2870.69 1085.68 2835.11 1111.69 2795.22 1122.94C2764.74 1131.55 2732.19 1131.39 2702.12 1141.21C2647.23 1159.24 2605.91 1212.77 2602.4 1270.44C2575.99 1268.37 2548.87 1280.34 2532.51 1301.16C2515.2 1323.34 2506.98 1353.41 2511.37 1381.25C2529.32 1497.25 2588.99 1589.47 2665.34 1675.47C2648.75 1656.72 2699.72 1598.65 2709.62 1587.32C2752.46 1538.09 2811.33 1509.69 2867.5 1478.9C2876.43 1473.95 2886.72 1468.61 2897.17 1462.55V1462.47Z" fill="#00A2FF" fill-opacity="0.6"/>
<g opacity="0.5">
<path d="M2674.6 1519.75C2664.86 1470.05 2677.87 1418.83 2693.82 1370.72C2709.3 1323.82 2727.89 1277.63 2754.61 1236.14C2781.42 1194.66 2816.92 1157.96 2860.64 1135.14" stroke="white" stroke-width="0.89" stroke-linecap="round" stroke-linejoin="round"/>
<path d="M2687.76 1181.97C2686.72 1227.21 2695.26 1280.74 2710.89 1323.18" stroke="white" stroke-width="0.89" stroke-linecap="round" stroke-linejoin="round"/>
<path d="M2717.83 1306.43C2765.94 1268.93 2842.68 1241.89 2903.63 1239.81" stroke="white" stroke-width="0.89" stroke-linecap="round" stroke-linejoin="round"/>
<path d="M2593.62 1326.29C2657.52 1346.63 2668.37 1436.86 2672.36 1462.39" stroke="white" stroke-width="0.89" stroke-linecap="round" stroke-linejoin="round"/>
<path d="M2683.85 1403.27C2727.81 1365.22 2803.52 1324.53 2854.73 1332.51" stroke="white" stroke-width="0.89" stroke-linecap="round" stroke-linejoin="round"/>
<path d="M2674.52 1515.12C2709.46 1468.53 2804.95 1411.57 2856.17 1419.55" stroke="white" stroke-width="0.89" stroke-linecap="round" stroke-linejoin="round"/>
<path d="M2790.03 1149.18C2777.51 1167.93 2775.83 1189.07 2778.62 1203.27" stroke="white" stroke-width="0.89" stroke-linecap="round" stroke-linejoin="round"/>
<path d="M2790.83 1189.31C2811.49 1176.23 2840.29 1170.96 2872.04 1175.91" stroke="white" stroke-width="0.89" stroke-linecap="round" stroke-linejoin="round"/>
</g>
<path d="M1786.76 1868.53C1734.03 1723.98 1598.73 1589.15 1465.5 1512.17C1433.03 1493.42 1385.56 1479.22 1370.72 1524.06C1361.15 1552.86 1327.56 1545.36 1308.42 1532.03C1284.64 1515.52 1270.76 1488.72 1250.58 1468.53C1234.38 1452.34 1213.72 1439.89 1191.07 1436.22C1168.41 1432.55 1143.76 1438.46 1127.16 1454.33C1114.56 1466.3 1106.98 1483.21 1093.02 1493.66C1069.65 1511.13 1035.58 1504.59 1010.69 1489.35C985.8 1474.12 966.175 1451.54 942.083 1435.03C917.99 1418.59 885.441 1408.86 859.753 1422.74C825.768 1441.17 822.657 1490.31 837.096 1526.21C846.031 1548.39 860.072 1580.54 877.065 1597.85C901.077 1622.5 936.099 1638.94 969.526 1645.48C994.177 1650.34 1019.63 1650.18 1044.12 1656.01C1052.97 1658.08 1063.1 1661.83 1064.86 1672.04C1067.41 1686.72 1049.22 1695.74 1038.61 1701.08C1020.26 1710.34 1002.07 1730.52 1010.61 1749.19C1015.96 1760.91 1029.76 1766.18 1042.44 1768.33C1080.65 1774.8 1118.47 1763.79 1154.69 1752.62C1176.71 1745.84 1196.01 1732.03 1218.67 1726.21C1230.4 1723.18 1260.47 1721.82 1257.28 1741.69C1256.24 1747.91 1251.86 1753.02 1247.07 1757.08C1242.28 1761.15 1236.94 1764.66 1232.95 1769.53C1215.56 1790.67 1232.79 1815.48 1255.61 1820.99C1273.16 1825.21 1291.43 1820.75 1308.98 1816.6C1423.7 1789.79 1544 1779.42 1659.44 1802.8C1684.01 1807.74 1710.89 1816.2 1723.26 1838.06" fill="#00A2FF" fill-opacity="0.6"/>
<path opacity="0.5" d="M1663.11 1777.43C1578.7 1699.33 1466.94 1647.79 1350.14 1633.19C1277.39 1624.1 1203.67 1628.88 1130.68 1622.58C1057.68 1616.28 981.892 1596.89 929.08 1548.47" stroke="white" stroke-width="0.89" stroke-linecap="round" stroke-linejoin="round"/>
<g style="mix-blend-mode:multiply" opacity="0.25">
<path d="M1689.27 1788.6C1689.27 1788.6 1488.64 1655.13 1431.99 1519.75C1470.29 1530.12 1495.02 1542.56 1521.9 1564.42C1550.86 1605.35 1619.87 1668.21 1666.7 1708.98C1673.4 1731.32 1680.82 1757.56 1689.27 1788.6Z" fill="#F0FFFC"/>
</g>
<path d="M1681.69 1742.8C1674.19 1695.66 1653.37 1648.91 1645.23 1600.96C1632.15 1524.13 1630.16 1446.91 1644.36 1370.56C1656.48 1305.55 1676.59 1237.42 1654.57 1171.6C1648.74 1154.13 1637.9 1135.22 1615.24 1135.38C1606.14 1135.38 1597.53 1139.21 1590.99 1145.04C1574.47 1159.71 1571.44 1180.78 1568.73 1200.88L1559.71 1268.13C1556.76 1289.99 1523.5 1292.62 1516.79 1271.32C1516.79 1271.16 1516.71 1271 1516.63 1270.76C1511.21 1252.89 1512.17 1233.99 1513.6 1215.56C1516.71 1175.43 1521.9 1134.98 1515.76 1095.02C1508.34 1046.67 1481.77 997.608 1430.08 979.419C1411.73 972.957 1391.46 972.159 1372.96 977.425C1321.18 992.183 1310.73 1041.01 1321.1 1081.85C1328.44 1110.57 1344.64 1136.66 1359.47 1162.91C1395.69 1226.89 1376.15 1287.76 1385.24 1359.32C1404.47 1510.89 1552.85 1657.44 1681.77 1742.64L1681.69 1742.8Z" fill="#00A2FF" fill-opacity="0.6"/>
<path opacity="0.5" d="M1398.33 1065.34C1506.74 1196.49 1467.57 1506.19 1656.48 1673.32" stroke="white" stroke-width="0.89" stroke-linecap="round" stroke-linejoin="round"/>
<path opacity="0.5" d="M1609.89 1219.39C1622.26 1285.68 1579.66 1360.11 1569.77 1401.36C1559.87 1442.6 1554.69 1512.89 1565.3 1554.29" stroke="white" stroke-width="0.89" stroke-linecap="round" stroke-linejoin="round"/>
<path d="M1298.61 1867.17C1293.9 1840.69 1219.87 1675.39 1134.19 1719.67C1083.29 1745.99 1092.46 1842.76 1171.92 1915.84C1156.28 1900.76 1138.33 1883.61 1117.03 1879.38C1105.55 1877.07 1091.43 1882.41 1082.81 1890.31C1075.15 1897.41 1072.92 1908.58 1072.52 1919.03C1071.24 1956.92 1091.03 1994.9 1122.78 2015.64C1105.23 2005.83 1089.99 1993.54 1069.89 1991.79C1063.34 1991.23 1052.33 1994.98 1049.3 2000.8C1046.03 2007.1 1046.27 2030.8 1084.96 2048.51C927.165 2018.59 917.991 2085.84 974.712 2085.84H1439.89" fill="#00A2FF" fill-opacity="0.08"/>
<path d="M1594.26 1735.94C1586.76 1693.5 1508.58 1426.73 1371.44 1497.57C1289.99 1539.69 1304.59 1694.62 1431.91 1811.65C1406.94 1787.48 1378.06 1760.11 1344 1753.33C1325.57 1749.66 1303.07 1758.12 1289.27 1770.88C1276.99 1782.21 1273.4 1800.08 1272.84 1816.84C1270.76 1877.55 1302.44 1938.34 1353.33 1971.44C1325.17 1955.73 1300.76 1936.02 1268.69 1933.23C1258.24 1932.35 1240.53 1938.33 1235.74 1947.59C1230.48 1957.72 1230.88 1995.61 1292.78 2023.94C1040.21 1975.99 1025.45 2083.69 1116.24 2083.69H1716.32" fill="#00A2FF" fill-opacity="0.15"/>
<path d="M2945.59 1867.17C2950.3 1840.69 3024.33 1675.39 3110.01 1719.67C3160.91 1745.99 3151.74 1842.76 3072.28 1915.84C3087.92 1900.76 3105.87 1883.61 3127.17 1879.38C3138.65 1877.07 3152.78 1882.41 3161.39 1890.31C3169.05 1897.41 3171.28 1908.58 3171.68 1919.03C3172.96 1956.92 3153.17 1994.9 3121.42 2015.64C3138.97 2005.83 3154.21 1993.54 3174.31 1991.79C3180.86 1991.23 3191.87 1994.98 3194.9 2000.8C3198.17 2007.1 3197.93 2030.8 3159.24 2048.51C3317.04 2018.59 3326.21 2085.84 3269.49 2085.84H2804.31" fill="#00A2FF" fill-opacity="0.08"/>
<path d="M2649.86 1735.94C2657.36 1693.5 2735.54 1426.73 2872.68 1497.57C2954.13 1539.69 2939.53 1694.62 2812.21 1811.65C2837.18 1787.48 2866.06 1760.11 2900.12 1753.33C2918.55 1749.66 2941.05 1758.12 2954.85 1770.88C2967.14 1782.21 2970.73 1800.08 2971.29 1816.84C2973.36 1877.55 2941.69 1938.34 2890.79 1971.44C2918.95 1955.73 2943.36 1936.02 2975.43 1933.23C2985.88 1932.35 3003.6 1938.33 3008.38 1947.59C3013.65 1957.72 3013.25 1995.61 2951.34 2023.94C3203.91 1975.99 3218.67 2083.69 3127.89 2083.69H2527.81" fill="#00A2FF" fill-opacity="0.15"/>
<path opacity="0.2" d="M2223.94 1189.55C2154.46 1170.41 2101.56 1111.45 2097.41 1039.49C2097.26 1035.98 2097.1 1032.55 2097.1 1029.12C2097.1 1028.16 2097.1 1027.05 2097.26 1026.01C2097.1 1025.05 2097.1 1023.94 2097.1 1022.9C2097.1 1019.47 2097.26 1016.04 2097.41 1012.53C2101.56 940.568 2154.46 881.613 2223.94 862.467C2485.69 790.03 2678.03 550.061 2678.03 265.258C2678.03 226.965 2674.6 189.47 2667.82 153.092C2666.7 146.869 2665.51 140.726 2664.15 134.663C2663.19 130.196 2662.23 125.728 2661.12 121.261C2661.12 121.021 2661.04 120.702 2660.96 120.463C2660.4 118.149 2659.84 115.836 2659.2 113.522C2658.17 109.055 2657.05 104.747 2655.77 100.359C2653.94 93.658 2652.02 87.0365 2649.95 80.415H2628.81C2629.53 82.569 2630.24 84.723 2630.8 86.877C2630.96 87.2759 2631.12 87.595 2631.2 87.9939C2632.4 91.7434 2633.51 95.4929 2634.55 99.2424C2635.27 101.715 2635.99 104.109 2636.55 106.582C2637.66 110.491 2638.7 114.32 2639.66 118.229C2640.3 120.702 2640.93 123.175 2641.41 125.569C2642.45 129.558 2643.33 133.467 2644.13 137.455C2644.44 138.812 2644.76 140.168 2645 141.524C2645.08 142.003 2645.24 142.561 2645.32 143.12C2646.28 147.667 2647.16 152.214 2647.95 156.761C2654.5 192.023 2657.85 228.481 2657.85 265.258C2657.85 533.866 2477.15 771.442 2218.6 843.001C2138.58 865.1 2081.78 932.67 2077.31 1011.41C2077.07 1015.24 2076.99 1019.07 2076.99 1022.9C2076.99 1023.94 2076.99 1025.05 2077.07 1026.01C2076.99 1027.05 2076.99 1028.16 2076.99 1029.12C2076.99 1032.95 2077.07 1036.78 2077.31 1040.61C2081.78 1119.35 2138.58 1187 2218.6 1209.02C2477.15 1280.58 2657.85 1518.23 2657.85 1786.76C2657.85 1823.54 2654.5 1860.08 2647.95 1895.34C2638.94 1945.6 2623.3 1994.5 2601.44 2040.93H1515.44C1493.58 1994.5 1477.95 1945.6 1468.85 1895.26C1462.31 1860.08 1459.04 1823.54 1459.04 1786.76C1459.04 1518.23 1639.74 1280.58 1898.29 1209.02C1978.31 1187 2035.03 1119.35 2039.58 1040.61C2039.82 1036.78 2039.9 1032.95 2039.9 1029.12C2039.9 1028.16 2039.9 1027.05 2039.82 1026.01C2039.9 1025.05 2039.9 1023.94 2039.9 1022.9C2039.9 1019.07 2039.82 1015.24 2039.58 1011.41C2035.03 932.67 1978.31 865.1 1898.29 843.001C1639.74 771.442 1459.04 533.866 1459.04 265.258C1459.04 228.481 1462.31 192.023 1468.85 156.761C1469.97 150.459 1471.25 144.236 1472.6 137.934C1472.6 137.775 1472.68 137.615 1472.68 137.455C1474.04 131.392 1475.4 125.329 1476.91 119.266C1476.99 118.947 1477.07 118.628 1477.15 118.229C1478.35 113.602 1479.54 108.895 1480.9 104.348C1480.98 103.949 1481.14 103.63 1481.22 103.231C1481.62 101.476 1482.18 99.6413 1482.73 97.8862C1483.61 94.5355 1484.65 91.2647 1485.69 87.9939C1485.77 87.595 1485.93 87.2759 1486.09 86.877C1486.64 84.723 1487.36 82.569 1488.08 80.415H1466.94C1464.86 87.0365 1462.95 93.658 1461.12 100.359C1459.84 104.747 1458.72 109.055 1457.68 113.522C1457.05 115.836 1456.49 118.149 1455.93 120.463C1455.85 120.702 1455.77 121.021 1455.77 121.261C1454.65 125.728 1453.7 130.196 1452.74 134.663C1451.38 140.726 1450.19 146.869 1449.07 153.092C1442.29 189.47 1438.86 226.965 1438.86 265.258C1438.86 550.061 1631.12 790.03 1892.95 862.467C1962.35 881.613 2015.32 940.568 2019.39 1012.53C2019.63 1016.04 2019.71 1019.47 2019.71 1022.9C2019.71 1023.94 2019.71 1025.05 2019.63 1026.01C2019.71 1027.05 2019.71 1028.16 2019.71 1029.12C2019.71 1032.55 2019.63 1035.98 2019.39 1039.49C2015.32 1111.45 1962.35 1170.41 1892.95 1189.55C1631.12 1262.07 1438.86 1501.96 1438.86 1786.76C1438.86 1825.05 1442.29 1862.55 1449.07 1898.93C1459.44 1956.21 1477.79 2010.61 1502.76 2061.11H2614.13C2639.1 2010.61 2657.45 1956.21 2667.82 1898.93C2674.6 1862.55 2678.03 1825.05 2678.03 1786.76C2678.03 1501.96 2485.69 1262.07 2223.94 1189.55Z" fill="#00A2FF"/>
<path d="M2657.84 1786.76C2657.84 1823.54 2654.49 1860.08 2647.95 1895.34C2638.94 1945.6 2623.3 1994.5 2601.44 2040.93H1515.44C1493.58 1994.5 1477.95 1945.6 1468.85 1895.26C1462.31 1860.08 1459.04 1823.54 1459.04 1786.76C1459.04 1518.23 1639.73 1280.58 1898.29 1209.02C1978.31 1187 2035.03 1119.35 2039.57 1040.61C2039.81 1036.78 2039.89 1032.95 2039.89 1029.12C2039.89 1028.16 2039.89 1027.05 2039.81 1026.01C2039.89 1025.05 2039.89 1023.94 2039.89 1022.9C2039.89 1019.07 2039.81 1015.24 2039.57 1011.41C2035.03 932.67 1978.31 865.1 1898.29 843.001C1639.73 771.442 1459.04 533.866 1459.04 265.258C1459.04 228.481 1462.31 192.023 1468.85 156.761C1469.97 150.459 1471.24 144.236 1472.6 137.934C1472.6 137.775 1472.68 137.615 1472.68 137.455C1473.96 131.392 1475.39 125.329 1476.91 119.266C1476.99 118.947 1477.07 118.628 1477.15 118.229C1478.42 113.203 1479.7 108.257 1481.22 103.231C1482.57 98.1255 1484.09 93.0198 1485.68 87.9939C1486.48 85.441 1487.28 82.8881 1488.08 80.415H2628.81C2629.6 82.8881 2630.4 85.441 2631.2 87.9939C2632.4 91.7434 2633.51 95.4929 2634.55 99.2424C2635.27 101.715 2635.99 104.109 2636.54 106.582C2637.66 110.491 2638.7 114.32 2639.66 118.229C2640.29 120.702 2640.93 123.175 2641.41 125.569C2642.45 129.558 2643.32 133.467 2644.12 137.455C2644.52 139.29 2644.92 141.205 2645.32 143.12C2646.28 147.667 2647.15 152.214 2647.95 156.761C2654.49 192.023 2657.84 228.481 2657.84 265.258C2657.84 533.866 2477.15 771.442 2218.59 843.001C2138.58 865.1 2081.78 932.67 2077.31 1011.41C2077.07 1015.24 2076.99 1019.07 2076.99 1022.9C2076.99 1023.94 2076.99 1025.05 2077.07 1026.01C2076.99 1027.05 2076.99 1028.16 2076.99 1029.12C2076.99 1032.95 2077.07 1036.78 2077.31 1040.61C2081.78 1119.35 2138.58 1187 2218.59 1209.02C2477.15 1280.58 2657.84 1518.23 2657.84 1786.76Z" fill="white"/>
<path opacity="0.5" d="M2657.84 1786.76C2657.84 1823.54 2654.49 1860.08 2647.95 1895.34C2638.94 1945.6 2623.3 1994.5 2601.44 2040.93H1515.44C1493.58 1994.5 1477.95 1945.6 1468.85 1895.26C1462.31 1860.08 1459.04 1823.54 1459.04 1786.76C1459.04 1518.23 1639.73 1280.58 1898.29 1209.02C1978.31 1187 2035.03 1119.35 2039.57 1040.61C2039.81 1036.78 2039.89 1032.95 2039.89 1029.12C2039.89 1028.16 2039.89 1027.05 2039.81 1026.01C2039.89 1025.05 2039.89 1023.94 2039.89 1022.9C2039.89 1019.07 2039.81 1015.24 2039.57 1011.41C2035.03 932.67 1978.31 865.1 1898.29 843.001C1639.73 771.442 1459.04 533.866 1459.04 265.258C1459.04 228.481 1462.31 192.023 1468.85 156.761C1469.97 150.459 1471.24 144.236 1472.6 137.934C1472.6 137.775 1472.68 137.615 1472.68 137.455C1473.96 131.392 1475.39 125.329 1476.91 119.266C1476.99 118.947 1477.07 118.628 1477.15 118.229C1478.42 113.203 1479.7 108.257 1481.22 103.231C1482.57 98.1255 1484.09 93.0198 1485.68 87.9939C1486.48 85.441 1487.28 82.8881 1488.08 80.415H2628.81C2629.6 82.8881 2630.4 85.441 2631.2 87.9939C2632.4 91.7434 2633.51 95.4929 2634.55 99.2424C2635.27 101.715 2635.99 104.109 2636.54 106.582C2637.66 110.491 2638.7 114.32 2639.66 118.229C2640.29 120.702 2640.93 123.175 2641.41 125.569C2642.45 129.558 2643.32 133.467 2644.12 137.455C2644.52 139.29 2644.92 141.205 2645.32 143.12C2646.28 147.667 2647.15 152.214 2647.95 156.761C2654.49 192.023 2657.84 228.481 2657.84 265.258C2657.84 533.866 2477.15 771.442 2218.59 843.001C2138.58 865.1 2081.78 932.67 2077.31 1011.41C2077.07 1015.24 2076.99 1019.07 2076.99 1022.9C2076.99 1023.94 2076.99 1025.05 2077.07 1026.01C2076.99 1027.05 2076.99 1028.16 2076.99 1029.12C2076.99 1032.95 2077.07 1036.78 2077.31 1040.61C2081.78 1119.35 2138.58 1187 2218.59 1209.02C2477.15 1280.58 2657.84 1518.23 2657.84 1786.76Z" fill="#D7ECFA"/>
<path d="M1564.1 618.35C1564.1 618.35 1658.64 773.276 1885.37 844.517C1943.44 861.589 1962.99 874.194 1996.41 904.988C2029.84 935.782 2041.25 989.95 2039.97 1032.79C2039.49 1065.98 2058.56 1551.34 2058.56 1611.81C2058.56 1668.85 2065.98 1626.57 2064.31 1614.36C2070.21 1270.84 2077.15 1018.19 2077.15 1018.19C2077.15 1018.19 2097.65 910.173 2129.48 895.335C2161.23 880.417 2276.59 826.886 2323.74 813.643C2370.89 800.4 2484.97 696.451 2484.97 696.451C2484.97 696.451 2629.84 489.829 2638.62 463.423C2647.47 436.937 2573.12 434.464 2573.12 434.464L1564.1 618.35Z" fill="#FF9A30"/>
<path d="M2110.61 629.003C2414.26 581.398 2652.44 491.959 2642.61 429.236C2632.78 366.512 2378.65 354.256 2075 401.86C1771.35 449.465 1533.16 538.904 1543 601.627C1552.83 664.351 1806.96 676.607 2110.61 629.003Z" fill="#FDCF33"/>
<g style="mix-blend-mode:screen" opacity="0.5">
<path d="M1895.34 766.974C1888.8 766.974 1882.18 765.937 1875.72 763.703C1832.4 748.785 1792.27 729.878 1756.37 707.381C1728.13 689.59 1719.59 652.255 1737.3 624.014C1755.09 595.773 1792.43 587.237 1820.67 604.947C1848.67 622.498 1880.34 637.416 1914.97 649.303C1946.56 660.153 1963.39 694.537 1952.54 726.128C1943.92 751.178 1920.47 766.974 1895.34 766.974Z" fill="white"/>
<path d="M1658.88 588.591C1638.86 588.591 1619.31 578.699 1607.82 560.59C1502.36 394.893 1529.56 208.854 1530.76 200.956C1535.86 167.928 1566.74 145.272 1599.69 150.378C1632.63 155.483 1655.21 186.197 1650.26 219.145C1649.95 221.618 1629.68 369.604 1709.86 495.651C1727.81 523.813 1719.51 561.228 1691.27 579.098C1681.22 585.48 1669.97 588.591 1658.88 588.591Z" fill="white"/>
</g>
<g style="mix-blend-mode:screen" opacity="0.5">
<path d="M1895.34 1278.42C1888.8 1278.42 1882.18 1279.46 1875.72 1281.69C1832.4 1296.61 1792.27 1315.52 1756.37 1338.02C1728.13 1355.81 1719.59 1393.14 1737.3 1421.38C1755.09 1449.62 1792.43 1458.16 1820.67 1440.45C1848.67 1422.9 1880.34 1407.98 1914.97 1396.09C1946.56 1385.24 1963.39 1350.86 1952.54 1319.27C1943.92 1294.22 1920.47 1278.42 1895.34 1278.42Z" fill="white"/>
<path d="M1658.88 1456.8C1638.86 1456.8 1619.31 1466.7 1607.82 1484.8C1502.36 1650.5 1529.56 1836.54 1530.76 1844.44C1535.86 1877.47 1566.74 1900.12 1599.69 1895.02C1632.63 1889.91 1655.21 1859.2 1650.26 1826.25C1649.95 1823.78 1629.68 1675.79 1709.86 1549.74C1727.81 1521.58 1719.51 1484.17 1691.27 1466.3C1681.22 1459.91 1669.97 1456.8 1658.88 1456.8Z" fill="white"/>
</g>
<path d="M2223.94 1189.55C2154.46 1170.41 2101.56 1111.45 2097.41 1039.49C2097.26 1035.98 2097.1 1032.55 2097.1 1029.12C2097.1 1028.16 2097.1 1027.05 2097.26 1026.01C2097.1 1025.05 2097.1 1023.94 2097.1 1022.9C2097.1 1019.47 2097.26 1016.04 2097.41 1012.53C2101.56 940.568 2154.46 881.613 2223.94 862.467C2485.69 790.03 2678.03 550.061 2678.03 265.258C2678.03 226.965 2674.6 189.47 2667.82 153.092C2666.7 146.869 2665.51 140.726 2664.15 134.663C2663.19 130.196 2662.23 125.728 2661.12 121.261C2661.12 121.021 2661.04 120.702 2660.96 120.463C2660.4 118.149 2659.84 115.836 2659.2 113.522C2658.17 109.055 2657.05 104.747 2655.77 100.359C2653.94 93.658 2652.02 87.0365 2649.95 80.415H2628.81C2629.53 82.4892 2630.16 84.723 2630.8 86.877C2630.96 87.2759 2631.12 87.595 2631.2 87.9939C2632.4 91.7434 2633.51 95.4929 2634.55 99.2424C2635.27 101.715 2635.99 104.109 2636.55 106.582C2637.66 110.491 2638.7 114.32 2639.66 118.229C2640.3 120.702 2640.93 123.175 2641.41 125.569C2642.45 129.558 2643.33 133.467 2644.13 137.455C2644.44 138.812 2644.68 140.168 2645 141.524C2645.08 142.003 2645.24 142.561 2645.32 143.12C2646.28 147.667 2647.16 152.214 2647.95 156.761C2654.5 192.023 2657.85 228.481 2657.85 265.258C2657.85 533.866 2477.15 771.442 2218.6 843.001C2138.58 865.1 2081.78 932.67 2077.31 1011.41C2077.07 1015.24 2076.99 1019.07 2076.99 1022.9C2076.99 1023.94 2076.99 1025.05 2077.07 1026.01C2076.99 1027.05 2076.99 1028.16 2076.99 1029.12C2076.99 1032.95 2077.07 1036.78 2077.31 1040.61C2081.78 1119.35 2138.58 1187 2218.6 1209.02C2477.15 1280.58 2657.85 1518.23 2657.85 1786.76C2657.85 1823.54 2654.5 1860.08 2647.95 1895.34C2638.94 1945.6 2623.3 1994.5 2601.44 2040.93H1515.44C1493.58 1994.5 1477.95 1945.6 1468.85 1895.26C1462.31 1860.08 1459.04 1823.54 1459.04 1786.76C1459.04 1518.23 1639.74 1280.58 1898.29 1209.02C1978.31 1187 2035.03 1119.35 2039.58 1040.61C2039.82 1036.78 2039.9 1032.95 2039.9 1029.12C2039.9 1028.16 2039.9 1027.05 2039.82 1026.01C2039.9 1025.05 2039.9 1023.94 2039.9 1022.9C2039.9 1019.07 2039.82 1015.24 2039.58 1011.41C2035.03 932.67 1978.31 865.1 1898.29 843.001C1639.74 771.442 1459.04 533.866 1459.04 265.258C1459.04 228.481 1462.31 192.023 1468.85 156.761C1469.97 150.459 1471.25 144.157 1472.6 137.934C1472.6 137.775 1472.68 137.615 1472.68 137.455C1474.04 131.392 1475.4 125.329 1476.91 119.266C1476.99 118.947 1477.07 118.628 1477.15 118.229C1478.35 113.602 1479.54 108.895 1480.9 104.348C1480.98 103.949 1481.14 103.63 1481.22 103.231C1481.7 101.476 1482.18 99.6413 1482.73 97.8862C1483.61 94.5355 1484.65 91.2647 1485.69 87.9939C1485.77 87.595 1485.93 87.2759 1486.09 86.877C1486.72 84.723 1487.36 82.4892 1488.08 80.415H1466.94C1464.86 87.0365 1462.95 93.658 1461.12 100.359C1459.84 104.747 1458.72 109.055 1457.68 113.522C1457.05 115.836 1456.49 118.149 1455.93 120.463C1455.85 120.702 1455.77 121.021 1455.77 121.261C1454.65 125.728 1453.7 130.196 1452.74 134.663C1451.38 140.726 1450.19 146.869 1449.07 153.092C1442.29 189.47 1438.86 226.965 1438.86 265.258C1438.86 550.061 1631.12 790.03 1892.95 862.467C1962.35 881.613 2015.32 940.568 2019.39 1012.53C2019.63 1016.04 2019.71 1019.47 2019.71 1022.9C2019.71 1023.94 2019.71 1025.05 2019.63 1026.01C2019.71 1027.05 2019.71 1028.16 2019.71 1029.12C2019.71 1032.55 2019.63 1035.98 2019.39 1039.49C2015.32 1111.45 1962.35 1170.41 1892.95 1189.55C1631.12 1262.07 1438.86 1501.96 1438.86 1786.76C1438.86 1825.05 1442.29 1862.55 1449.07 1898.93C1459.44 1956.21 1477.79 2010.61 1502.76 2061.11H2614.13C2639.1 2010.61 2657.45 1956.21 2667.82 1898.93C2674.6 1862.55 2678.03 1825.05 2678.03 1786.76C2678.03 1501.96 2485.69 1262.07 2223.94 1189.55Z" fill="#00A2FF" fill-opacity="0.08"/>
<path d="M2830.72 2028.16C2830.72 2060.55 2804.47 2086.8 2772.09 2086.8H1344.8C1312.41 2086.8 1286.16 2060.55 1286.16 2028.16C1286.16 1995.77 1312.41 1969.53 1344.8 1969.53H2772.09C2804.47 1969.53 2830.72 1995.77 2830.72 2028.16Z" fill="#00A2FF"/>
<path d="M2532.75 452.732C2533.71 457.12 2521.74 463.422 2506.11 466.773C2490.47 470.124 2476.99 469.166 2476.03 464.779C2475.08 460.391 2487.04 454.089 2502.68 450.738C2518.31 447.387 2531.8 448.345 2532.75 452.732Z" fill="#FF9A30"/>
<path d="M2496.78 503.629C2497.74 508.017 2490.4 513.362 2480.34 515.436C2470.37 517.51 2461.52 515.675 2460.56 511.288C2459.6 506.9 2466.94 501.555 2476.99 499.481C2486.97 497.327 2495.82 499.241 2496.78 503.629Z" fill="#FF9A30"/>
<path d="M2450.98 490.229C2451.94 494.616 2444.6 499.961 2434.55 502.036C2424.58 504.19 2415.72 502.275 2414.77 497.887C2413.81 493.5 2421.15 488.154 2431.2 486.08C2441.17 483.926 2450.03 485.841 2450.98 490.229Z" fill="#FF9A30"/>
<path d="M2134.91 530.833C2135.39 533.227 2131.48 536.099 2126.05 537.216C2120.63 538.332 2115.84 537.375 2115.36 534.982C2114.88 532.588 2118.79 529.716 2124.22 528.6C2129.64 527.483 2134.43 528.44 2134.91 530.833Z" fill="#FF9A30"/>
<path d="M2379.1 456.721C2379.58 459.114 2375.67 461.986 2370.25 463.103C2364.82 464.22 2360.04 463.262 2359.56 460.869C2359.08 458.476 2362.99 455.604 2368.41 454.487C2373.84 453.37 2378.63 454.327 2379.1 456.721Z" fill="#FF9A30"/>
<path d="M2290.63 541.924C2291.11 544.317 2287.2 547.189 2281.78 548.306C2276.35 549.423 2271.57 548.465 2271.09 546.072C2270.61 543.679 2274.52 540.807 2279.94 539.69C2285.37 538.573 2290.15 539.53 2290.63 541.924Z" fill="#FF9A30"/>
<path d="M2172.48 598.406C2172.96 600.799 2169.05 603.671 2163.63 604.788C2158.2 605.905 2153.42 604.948 2152.94 602.555C2152.46 600.161 2156.37 597.289 2161.79 596.172C2167.22 595.055 2172.01 596.013 2172.48 598.406Z" fill="#FF9A30"/>
<path d="M2065.26 1550.3L2061.12 1548.71L2056.97 1550.3C2056.97 1550.3 2021.31 1829.36 1638.3 1969.53H2483.85C2100.92 1829.28 2065.18 1550.3 2065.18 1550.3H2065.26Z" fill="#FF9A30"/>
<path d="M2651.86 86.7972C2651.86 117.91 2386.21 143.199 2058.4 143.199C1730.6 143.199 1464.94 117.99 1464.94 86.7972C1464.94 55.6045 1730.6 30.395 2058.4 30.395C2386.21 30.395 2651.86 55.6045 2651.86 86.7972Z" fill="#B9DBEF"/>
<path d="M2772.09 0H1344.8C1328.6 0 1313.93 6.54165 1303.32 17.152C1292.7 27.7623 1286.16 42.4412 1286.16 58.6359C1286.16 90.9455 1312.41 117.192 1344.8 117.192H2772.09C2804.47 117.192 2830.72 90.9455 2830.72 58.6359C2830.72 26.3263 2804.47 0 2772.09 0Z" fill="#00A2FF"/>
<path d="M0 2086.8H4068.62" stroke="#2EA49C" stroke-miterlimit="10"/>
</svg>
